G75*
%MOIN*%
%OFA0B0*%
%FSLAX24Y24*%
%IPPOS*%
%LPD*%
%AMOC8*
5,1,8,0,0,1.08239X$1,22.5*
%
%ADD10C,0.0100*%
%ADD11R,0.0315X0.0472*%
%ADD12R,0.0472X0.0315*%
%ADD13R,0.0433X0.0394*%
%ADD14R,0.2441X0.0728*%
%ADD15R,0.0433X0.1575*%
%ADD16R,0.0512X0.1181*%
%ADD17R,0.2450X0.2650*%
%ADD18R,0.0900X0.0600*%
%ADD19C,0.0660*%
%ADD20R,0.0787X0.0433*%
%ADD21R,0.0787X0.1299*%
%ADD22R,0.0630X0.1024*%
%ADD23R,0.1181X0.0315*%
%ADD24R,0.0472X0.0472*%
%ADD25C,0.0768*%
%ADD26R,0.4197X0.3299*%
%ADD27R,0.0800X0.1500*%
%ADD28R,0.1280X0.1250*%
%ADD29R,0.0433X0.1969*%
%ADD30R,0.1024X0.0630*%
%ADD31R,0.0209X0.0780*%
%ADD32R,0.0394X0.0551*%
%ADD33R,0.0787X0.0197*%
%ADD34C,0.0197*%
%ADD35R,0.0866X0.0551*%
%ADD36R,0.0945X0.0551*%
%ADD37C,0.0157*%
%ADD38R,0.2201X0.2500*%
%ADD39R,0.0358X0.0949*%
%ADD40C,0.0591*%
%ADD41C,0.0310*%
%ADD42C,0.0000*%
%ADD43OC8,0.0650*%
%ADD44C,0.0650*%
%ADD45R,0.0394X0.0433*%
%ADD46R,0.0354X0.0236*%
%ADD47R,0.0197X0.0787*%
%ADD48R,0.0413X0.0256*%
%ADD49R,0.0315X0.0118*%
%ADD50R,0.0118X0.0315*%
%ADD51R,0.0252X0.0750*%
%ADD52R,0.0531X0.0157*%
%ADD53R,0.0236X0.0354*%
%ADD54R,0.0236X0.0413*%
%ADD55C,0.0317*%
%ADD56C,0.0160*%
%ADD57C,0.0240*%
%ADD58C,0.0120*%
%ADD59C,0.0320*%
D10*
X002150Y000150D02*
X058350Y000150D01*
X055850Y000550D02*
X055670Y000370D01*
X054430Y000370D01*
X054250Y000550D01*
X054250Y003150D01*
X053950Y003450D01*
X052950Y003450D01*
X052550Y003850D01*
X052550Y004950D01*
X053130Y005530D01*
X059470Y005530D01*
X059550Y005450D01*
X059550Y004650D01*
X059450Y004550D01*
X057750Y004550D01*
X055850Y002650D01*
X055850Y000550D01*
X055844Y000544D02*
X054256Y000544D01*
X054250Y000643D02*
X055850Y000643D01*
X055850Y000741D02*
X054250Y000741D01*
X054250Y000840D02*
X055850Y000840D01*
X055850Y000938D02*
X054250Y000938D01*
X054250Y001037D02*
X055850Y001037D01*
X055850Y001135D02*
X054250Y001135D01*
X054250Y001234D02*
X055850Y001234D01*
X055850Y001332D02*
X054250Y001332D01*
X054250Y001431D02*
X055850Y001431D01*
X055850Y001529D02*
X054250Y001529D01*
X054250Y001628D02*
X055850Y001628D01*
X055850Y001726D02*
X054250Y001726D01*
X054250Y001825D02*
X055850Y001825D01*
X055850Y001923D02*
X054250Y001923D01*
X054250Y002022D02*
X055850Y002022D01*
X055850Y002120D02*
X054250Y002120D01*
X054250Y002219D02*
X055850Y002219D01*
X055850Y002317D02*
X054250Y002317D01*
X054250Y002416D02*
X055850Y002416D01*
X055850Y002514D02*
X054250Y002514D01*
X054250Y002613D02*
X055850Y002613D01*
X055911Y002711D02*
X054250Y002711D01*
X054250Y002810D02*
X056010Y002810D01*
X056108Y002908D02*
X054250Y002908D01*
X054250Y003007D02*
X056207Y003007D01*
X056305Y003105D02*
X054250Y003105D01*
X054196Y003204D02*
X056404Y003204D01*
X056502Y003302D02*
X054098Y003302D01*
X053999Y003401D02*
X056601Y003401D01*
X056699Y003499D02*
X052901Y003499D01*
X052802Y003598D02*
X056798Y003598D01*
X056896Y003696D02*
X052704Y003696D01*
X052605Y003795D02*
X056995Y003795D01*
X057093Y003893D02*
X052550Y003893D01*
X052550Y003992D02*
X057192Y003992D01*
X057290Y004090D02*
X052550Y004090D01*
X052550Y004189D02*
X057389Y004189D01*
X057487Y004287D02*
X052550Y004287D01*
X052550Y004386D02*
X057586Y004386D01*
X057684Y004484D02*
X052550Y004484D01*
X052550Y004583D02*
X059483Y004583D01*
X059550Y004681D02*
X052550Y004681D01*
X052550Y004780D02*
X059550Y004780D01*
X059550Y004878D02*
X052550Y004878D01*
X052577Y004977D02*
X059550Y004977D01*
X059550Y005075D02*
X052675Y005075D01*
X052774Y005174D02*
X059550Y005174D01*
X059550Y005272D02*
X052872Y005272D01*
X052971Y005371D02*
X059550Y005371D01*
X059531Y005469D02*
X053069Y005469D01*
X050050Y005750D02*
X048750Y004450D01*
X040050Y004450D01*
X039650Y004850D01*
X039650Y007350D01*
X040150Y007850D01*
X059450Y007850D01*
X059550Y007750D01*
X059550Y005850D01*
X059450Y005750D01*
X050050Y005750D01*
X049966Y005666D02*
X039650Y005666D01*
X039650Y005568D02*
X049868Y005568D01*
X049769Y005469D02*
X039650Y005469D01*
X039650Y005371D02*
X049671Y005371D01*
X049572Y005272D02*
X039650Y005272D01*
X039650Y005174D02*
X049474Y005174D01*
X049375Y005075D02*
X039650Y005075D01*
X039650Y004977D02*
X049277Y004977D01*
X049178Y004878D02*
X039650Y004878D01*
X039720Y004780D02*
X049080Y004780D01*
X048981Y004681D02*
X039819Y004681D01*
X039917Y004583D02*
X048883Y004583D01*
X048784Y004484D02*
X040016Y004484D01*
X040050Y003650D02*
X049250Y003650D01*
X049850Y003050D01*
X053550Y003050D01*
X053750Y002850D01*
X053750Y000550D01*
X053570Y000370D01*
X040030Y000370D01*
X039650Y000750D01*
X039650Y003250D01*
X040050Y003650D01*
X039998Y003598D02*
X049302Y003598D01*
X049401Y003499D02*
X039899Y003499D01*
X039801Y003401D02*
X049499Y003401D01*
X049598Y003302D02*
X039702Y003302D01*
X039650Y003204D02*
X049696Y003204D01*
X049795Y003105D02*
X039650Y003105D01*
X039650Y003007D02*
X053593Y003007D01*
X053692Y002908D02*
X039650Y002908D01*
X039650Y002810D02*
X053750Y002810D01*
X053750Y002711D02*
X039650Y002711D01*
X039650Y002613D02*
X053750Y002613D01*
X053750Y002514D02*
X039650Y002514D01*
X039650Y002416D02*
X053750Y002416D01*
X053750Y002317D02*
X039650Y002317D01*
X039650Y002219D02*
X053750Y002219D01*
X053750Y002120D02*
X039650Y002120D01*
X039650Y002022D02*
X053750Y002022D01*
X053750Y001923D02*
X039650Y001923D01*
X039650Y001825D02*
X053750Y001825D01*
X053750Y001726D02*
X039650Y001726D01*
X039650Y001628D02*
X053750Y001628D01*
X053750Y001529D02*
X039650Y001529D01*
X039650Y001431D02*
X053750Y001431D01*
X053750Y001332D02*
X039650Y001332D01*
X039650Y001234D02*
X053750Y001234D01*
X053750Y001135D02*
X039650Y001135D01*
X039650Y001037D02*
X053750Y001037D01*
X053750Y000938D02*
X039650Y000938D01*
X039650Y000840D02*
X053750Y000840D01*
X053750Y000741D02*
X039659Y000741D01*
X039757Y000643D02*
X053750Y000643D01*
X053744Y000544D02*
X039856Y000544D01*
X039954Y000446D02*
X053646Y000446D01*
X054354Y000446D02*
X055746Y000446D01*
X058350Y000150D02*
X058437Y000152D01*
X058524Y000158D01*
X058611Y000167D01*
X058697Y000180D01*
X058783Y000197D01*
X058868Y000218D01*
X058951Y000243D01*
X059034Y000271D01*
X059115Y000302D01*
X059195Y000337D01*
X059273Y000376D01*
X059350Y000418D01*
X059425Y000463D01*
X059497Y000512D01*
X059568Y000563D01*
X059636Y000618D01*
X059701Y000675D01*
X059764Y000736D01*
X059825Y000799D01*
X059882Y000864D01*
X059937Y000932D01*
X059988Y001003D01*
X060037Y001075D01*
X060082Y001150D01*
X060124Y001227D01*
X060163Y001305D01*
X060198Y001385D01*
X060229Y001466D01*
X060257Y001549D01*
X060282Y001632D01*
X060303Y001717D01*
X060320Y001803D01*
X060333Y001889D01*
X060342Y001976D01*
X060348Y002063D01*
X060350Y002150D01*
X060350Y026150D01*
X060348Y026237D01*
X060342Y026324D01*
X060333Y026411D01*
X060320Y026497D01*
X060303Y026583D01*
X060282Y026668D01*
X060257Y026751D01*
X060229Y026834D01*
X060198Y026915D01*
X060163Y026995D01*
X060124Y027073D01*
X060082Y027150D01*
X060037Y027225D01*
X059988Y027297D01*
X059937Y027368D01*
X059882Y027436D01*
X059825Y027501D01*
X059764Y027564D01*
X059701Y027625D01*
X059636Y027682D01*
X059568Y027737D01*
X059497Y027788D01*
X059425Y027837D01*
X059350Y027882D01*
X059273Y027924D01*
X059195Y027963D01*
X059115Y027998D01*
X059034Y028029D01*
X058951Y028057D01*
X058868Y028082D01*
X058783Y028103D01*
X058697Y028120D01*
X058611Y028133D01*
X058524Y028142D01*
X058437Y028148D01*
X058350Y028150D01*
X002150Y028150D01*
X005150Y026950D02*
X005750Y027550D01*
X006350Y027550D01*
X006650Y027250D01*
X006650Y025450D01*
X006850Y025250D01*
X006850Y024285D01*
X006250Y024283D02*
X005550Y024283D01*
X005550Y024381D02*
X006250Y024381D01*
X006250Y024450D02*
X006250Y023250D01*
X005450Y022450D01*
X002950Y022450D01*
X002650Y022150D01*
X001350Y022150D01*
X002250Y023050D01*
X005250Y023050D01*
X005550Y023350D01*
X005550Y024450D01*
X006250Y024450D01*
X006250Y024184D02*
X005550Y024184D01*
X005550Y024086D02*
X006250Y024086D01*
X006250Y023987D02*
X005550Y023987D01*
X005550Y023889D02*
X006250Y023889D01*
X006250Y023790D02*
X005550Y023790D01*
X005550Y023692D02*
X006250Y023692D01*
X006250Y023593D02*
X005550Y023593D01*
X005550Y023495D02*
X006250Y023495D01*
X006250Y023396D02*
X005550Y023396D01*
X005498Y023298D02*
X006250Y023298D01*
X006199Y023199D02*
X005399Y023199D01*
X005301Y023101D02*
X006101Y023101D01*
X006002Y023002D02*
X002202Y023002D01*
X002104Y022904D02*
X005904Y022904D01*
X005805Y022805D02*
X002005Y022805D01*
X001907Y022707D02*
X005707Y022707D01*
X005608Y022608D02*
X001808Y022608D01*
X001710Y022510D02*
X005510Y022510D01*
X006119Y021919D02*
X007381Y021919D01*
X007350Y021950D02*
X009350Y019950D01*
X009350Y014850D01*
X007350Y014850D01*
X004350Y017850D01*
X003250Y017850D01*
X003250Y018350D01*
X004397Y018350D01*
X005650Y019603D01*
X005650Y021450D01*
X006150Y021950D01*
X007350Y021950D01*
X007480Y021820D02*
X006020Y021820D01*
X005922Y021722D02*
X007578Y021722D01*
X007677Y021623D02*
X005823Y021623D01*
X005725Y021525D02*
X007775Y021525D01*
X007874Y021426D02*
X005650Y021426D01*
X005650Y021328D02*
X007972Y021328D01*
X008071Y021229D02*
X005650Y021229D01*
X005650Y021131D02*
X008169Y021131D01*
X008268Y021032D02*
X005650Y021032D01*
X005650Y020934D02*
X008366Y020934D01*
X008465Y020835D02*
X005650Y020835D01*
X005650Y020737D02*
X008563Y020737D01*
X008662Y020638D02*
X005650Y020638D01*
X005650Y020540D02*
X008760Y020540D01*
X008859Y020441D02*
X005650Y020441D01*
X005650Y020343D02*
X008957Y020343D01*
X009056Y020244D02*
X005650Y020244D01*
X005650Y020146D02*
X009154Y020146D01*
X009253Y020047D02*
X005650Y020047D01*
X005650Y019949D02*
X009350Y019949D01*
X009350Y019850D02*
X005650Y019850D01*
X005650Y019752D02*
X009350Y019752D01*
X009350Y019653D02*
X005650Y019653D01*
X005602Y019555D02*
X009350Y019555D01*
X009350Y019456D02*
X005503Y019456D01*
X005405Y019358D02*
X009350Y019358D01*
X009350Y019259D02*
X005306Y019259D01*
X005208Y019161D02*
X009350Y019161D01*
X009350Y019062D02*
X005109Y019062D01*
X005011Y018964D02*
X009350Y018964D01*
X009350Y018865D02*
X004912Y018865D01*
X004814Y018767D02*
X009350Y018767D01*
X009350Y018668D02*
X004715Y018668D01*
X004617Y018570D02*
X009350Y018570D01*
X009350Y018471D02*
X004518Y018471D01*
X004420Y018373D02*
X009350Y018373D01*
X009350Y018274D02*
X003250Y018274D01*
X003250Y018176D02*
X009350Y018176D01*
X009350Y018077D02*
X003250Y018077D01*
X003250Y017979D02*
X009350Y017979D01*
X009350Y017880D02*
X003250Y017880D01*
X002650Y017880D02*
X001350Y017880D01*
X001350Y017782D02*
X002650Y017782D01*
X002650Y017683D02*
X001350Y017683D01*
X001350Y017585D02*
X002650Y017585D01*
X002650Y017486D02*
X001350Y017486D01*
X001350Y017388D02*
X002650Y017388D01*
X002650Y017289D02*
X001350Y017289D01*
X001350Y017191D02*
X002650Y017191D01*
X002650Y017092D02*
X001350Y017092D01*
X001350Y016994D02*
X002650Y016994D01*
X002650Y016895D02*
X001350Y016895D01*
X001350Y016797D02*
X002650Y016797D01*
X002650Y016698D02*
X001350Y016698D01*
X001350Y016600D02*
X002650Y016600D01*
X002650Y016501D02*
X001350Y016501D01*
X001350Y016403D02*
X002650Y016403D01*
X002650Y016304D02*
X001350Y016304D01*
X001350Y016206D02*
X002650Y016206D01*
X002650Y016107D02*
X001350Y016107D01*
X001350Y016009D02*
X002650Y016009D01*
X002650Y015910D02*
X001350Y015910D01*
X001350Y015812D02*
X002650Y015812D01*
X002650Y015713D02*
X001350Y015713D01*
X001350Y015615D02*
X002650Y015615D01*
X002650Y015516D02*
X001350Y015516D01*
X001350Y015418D02*
X002650Y015418D01*
X002650Y015319D02*
X001350Y015319D01*
X001350Y015221D02*
X002650Y015221D01*
X002650Y015122D02*
X001350Y015122D01*
X001350Y015024D02*
X002650Y015024D01*
X002650Y014925D02*
X001350Y014925D01*
X001350Y014827D02*
X002650Y014827D01*
X002650Y014728D02*
X001350Y014728D01*
X001350Y014630D02*
X002650Y014630D01*
X002650Y014531D02*
X001350Y014531D01*
X001350Y014433D02*
X002650Y014433D01*
X002650Y014334D02*
X001350Y014334D01*
X001350Y014236D02*
X002650Y014236D01*
X002650Y014137D02*
X001350Y014137D01*
X001350Y014039D02*
X002650Y014039D01*
X002650Y013940D02*
X001350Y013940D01*
X001350Y013842D02*
X002650Y013842D01*
X002650Y013743D02*
X001350Y013743D01*
X001350Y013645D02*
X002650Y013645D01*
X002650Y013546D02*
X001350Y013546D01*
X001350Y013448D02*
X002650Y013448D01*
X002650Y013349D02*
X001350Y013349D01*
X001350Y013251D02*
X002650Y013251D01*
X002650Y013152D02*
X001350Y013152D01*
X001350Y013054D02*
X002650Y013054D01*
X002650Y012955D02*
X001350Y012955D01*
X001350Y012857D02*
X002650Y012857D01*
X002650Y012758D02*
X001350Y012758D01*
X001350Y012660D02*
X002650Y012660D01*
X002650Y012561D02*
X001350Y012561D01*
X001350Y012463D02*
X002650Y012463D01*
X002650Y012364D02*
X001350Y012364D01*
X001350Y012266D02*
X002650Y012266D01*
X002650Y012167D02*
X001350Y012167D01*
X001350Y012069D02*
X002650Y012069D01*
X002650Y011970D02*
X001350Y011970D01*
X001350Y011872D02*
X002650Y011872D01*
X002650Y011773D02*
X001350Y011773D01*
X001350Y011675D02*
X002650Y011675D01*
X002650Y011576D02*
X001350Y011576D01*
X001350Y011478D02*
X002650Y011478D01*
X002650Y011379D02*
X001350Y011379D01*
X001350Y011281D02*
X002650Y011281D01*
X002650Y011182D02*
X001350Y011182D01*
X001350Y011084D02*
X002650Y011084D01*
X002650Y010985D02*
X001350Y010985D01*
X001350Y010887D02*
X002650Y010887D01*
X002650Y010788D02*
X001350Y010788D01*
X001350Y010690D02*
X002650Y010690D01*
X002650Y010591D02*
X001350Y010591D01*
X001350Y010493D02*
X002650Y010493D01*
X002650Y010394D02*
X001350Y010394D01*
X001350Y010296D02*
X002650Y010296D01*
X002650Y010197D02*
X001350Y010197D01*
X001350Y010099D02*
X002650Y010099D01*
X002650Y010000D02*
X001350Y010000D01*
X001350Y009902D02*
X002650Y009902D01*
X002650Y009803D02*
X001350Y009803D01*
X001350Y009705D02*
X002650Y009705D01*
X002650Y009606D02*
X001350Y009606D01*
X001350Y009508D02*
X002650Y009508D01*
X002650Y009409D02*
X001350Y009409D01*
X001350Y009311D02*
X002650Y009311D01*
X002650Y009212D02*
X001350Y009212D01*
X001350Y009114D02*
X002650Y009114D01*
X002650Y009015D02*
X001350Y009015D01*
X001350Y008917D02*
X002650Y008917D01*
X002650Y008818D02*
X001350Y008818D01*
X001350Y008720D02*
X002650Y008720D01*
X002650Y008621D02*
X001350Y008621D01*
X001350Y008523D02*
X002650Y008523D01*
X002650Y008424D02*
X001350Y008424D01*
X001350Y008326D02*
X002650Y008326D01*
X002650Y008227D02*
X001350Y008227D01*
X001350Y008129D02*
X002650Y008129D01*
X002650Y008030D02*
X001350Y008030D01*
X001350Y007932D02*
X002650Y007932D01*
X002650Y007833D02*
X001350Y007833D01*
X001350Y007735D02*
X002650Y007735D01*
X002650Y007636D02*
X001350Y007636D01*
X001350Y007538D02*
X002650Y007538D01*
X002650Y007439D02*
X001350Y007439D01*
X001350Y007341D02*
X002650Y007341D01*
X002650Y007242D02*
X001350Y007242D01*
X001350Y007144D02*
X002650Y007144D01*
X002650Y007045D02*
X001350Y007045D01*
X001350Y006947D02*
X002650Y006947D01*
X002650Y006848D02*
X001350Y006848D01*
X001350Y006750D02*
X002650Y006750D01*
X002650Y006651D02*
X001350Y006651D01*
X001350Y006553D02*
X002650Y006553D01*
X002650Y006454D02*
X001350Y006454D01*
X001350Y006356D02*
X002650Y006356D01*
X002650Y006257D02*
X001350Y006257D01*
X001350Y006159D02*
X002650Y006159D01*
X002650Y006060D02*
X001350Y006060D01*
X001350Y005962D02*
X002700Y005962D01*
X002650Y006012D02*
X006812Y001850D01*
X008750Y001850D01*
X008750Y000550D01*
X006375Y000550D01*
X003512Y003413D01*
X003512Y003416D01*
X003485Y003440D01*
X003440Y003485D01*
X003416Y003512D01*
X003413Y003512D01*
X001350Y005575D01*
X001350Y022150D01*
X002650Y022150D01*
X002650Y006012D01*
X002799Y005863D02*
X001350Y005863D01*
X001350Y005765D02*
X002897Y005765D01*
X002996Y005666D02*
X001350Y005666D01*
X001357Y005568D02*
X003094Y005568D01*
X003193Y005469D02*
X001456Y005469D01*
X001554Y005371D02*
X003291Y005371D01*
X003390Y005272D02*
X001653Y005272D01*
X001751Y005174D02*
X003488Y005174D01*
X003587Y005075D02*
X001850Y005075D01*
X001948Y004977D02*
X003685Y004977D01*
X003784Y004878D02*
X002047Y004878D01*
X002145Y004780D02*
X003882Y004780D01*
X003981Y004681D02*
X002244Y004681D01*
X002342Y004583D02*
X004079Y004583D01*
X004178Y004484D02*
X002441Y004484D01*
X002539Y004386D02*
X004276Y004386D01*
X004375Y004287D02*
X002638Y004287D01*
X002736Y004189D02*
X004473Y004189D01*
X004572Y004090D02*
X002835Y004090D01*
X002933Y003992D02*
X004670Y003992D01*
X004769Y003893D02*
X003032Y003893D01*
X003130Y003795D02*
X004867Y003795D01*
X004966Y003696D02*
X003229Y003696D01*
X003327Y003598D02*
X005064Y003598D01*
X005163Y003499D02*
X003428Y003499D01*
X003524Y003401D02*
X005261Y003401D01*
X005360Y003302D02*
X003623Y003302D01*
X003721Y003204D02*
X005458Y003204D01*
X005557Y003105D02*
X003820Y003105D01*
X003918Y003007D02*
X005655Y003007D01*
X005754Y002908D02*
X004017Y002908D01*
X004115Y002810D02*
X005852Y002810D01*
X005951Y002711D02*
X004214Y002711D01*
X004312Y002613D02*
X006049Y002613D01*
X006148Y002514D02*
X004411Y002514D01*
X004509Y002416D02*
X006246Y002416D01*
X006345Y002317D02*
X004608Y002317D01*
X004706Y002219D02*
X006443Y002219D01*
X006542Y002120D02*
X004805Y002120D01*
X004903Y002022D02*
X006640Y002022D01*
X006739Y001923D02*
X005002Y001923D01*
X005100Y001825D02*
X008750Y001825D01*
X008750Y001726D02*
X005199Y001726D01*
X005297Y001628D02*
X008750Y001628D01*
X008750Y001529D02*
X005396Y001529D01*
X005494Y001431D02*
X008750Y001431D01*
X008750Y001332D02*
X005593Y001332D01*
X005691Y001234D02*
X008750Y001234D01*
X008750Y001135D02*
X005790Y001135D01*
X005888Y001037D02*
X008750Y001037D01*
X008750Y000938D02*
X005987Y000938D01*
X006085Y000840D02*
X008750Y000840D01*
X008750Y000741D02*
X006184Y000741D01*
X006282Y000643D02*
X008750Y000643D01*
X007350Y000643D02*
X021150Y000643D01*
X021150Y000550D02*
X007350Y000550D01*
X007350Y001850D01*
X008850Y001850D01*
X009050Y001650D01*
X012950Y001650D01*
X013750Y002450D01*
X013750Y005413D01*
X013767Y005430D01*
X013767Y006450D01*
X014069Y006450D01*
X014069Y005430D01*
X014100Y005398D01*
X014100Y003100D01*
X014450Y002750D01*
X021150Y002750D01*
X021150Y000550D01*
X021150Y000741D02*
X007350Y000741D01*
X007350Y000840D02*
X021150Y000840D01*
X021150Y000938D02*
X007350Y000938D01*
X007350Y001037D02*
X021150Y001037D01*
X021150Y001135D02*
X007350Y001135D01*
X007350Y001234D02*
X021150Y001234D01*
X021150Y001332D02*
X007350Y001332D01*
X007350Y001431D02*
X021150Y001431D01*
X021150Y001529D02*
X007350Y001529D01*
X007350Y001628D02*
X021150Y001628D01*
X021150Y001726D02*
X013026Y001726D01*
X013125Y001825D02*
X021150Y001825D01*
X021150Y001923D02*
X013223Y001923D01*
X013322Y002022D02*
X021150Y002022D01*
X021150Y002120D02*
X013420Y002120D01*
X013519Y002219D02*
X021150Y002219D01*
X021150Y002317D02*
X013617Y002317D01*
X013716Y002416D02*
X021150Y002416D01*
X021150Y002514D02*
X013750Y002514D01*
X013750Y002613D02*
X021150Y002613D01*
X021150Y002711D02*
X013750Y002711D01*
X013750Y002810D02*
X014390Y002810D01*
X014292Y002908D02*
X013750Y002908D01*
X013750Y003007D02*
X014193Y003007D01*
X014100Y003105D02*
X013750Y003105D01*
X013750Y003204D02*
X014100Y003204D01*
X014100Y003302D02*
X013750Y003302D01*
X013750Y003401D02*
X014100Y003401D01*
X014100Y003499D02*
X013750Y003499D01*
X013750Y003598D02*
X014100Y003598D01*
X014100Y003696D02*
X013750Y003696D01*
X013750Y003795D02*
X014100Y003795D01*
X014100Y003893D02*
X013750Y003893D01*
X013750Y003992D02*
X014100Y003992D01*
X014100Y004090D02*
X013750Y004090D01*
X013750Y004189D02*
X014100Y004189D01*
X014100Y004287D02*
X013750Y004287D01*
X013750Y004386D02*
X014100Y004386D01*
X014100Y004484D02*
X013750Y004484D01*
X013750Y004583D02*
X014100Y004583D01*
X014100Y004681D02*
X013750Y004681D01*
X013750Y004780D02*
X014100Y004780D01*
X014100Y004878D02*
X013750Y004878D01*
X013750Y004977D02*
X014100Y004977D01*
X014100Y005075D02*
X013750Y005075D01*
X013750Y005174D02*
X014100Y005174D01*
X014100Y005272D02*
X013750Y005272D01*
X013750Y005371D02*
X014100Y005371D01*
X014069Y005469D02*
X013767Y005469D01*
X013767Y005568D02*
X014069Y005568D01*
X014069Y005666D02*
X013767Y005666D01*
X013767Y005765D02*
X014069Y005765D01*
X014069Y005863D02*
X013767Y005863D01*
X013767Y005962D02*
X014069Y005962D01*
X014069Y006060D02*
X013767Y006060D01*
X013767Y006159D02*
X014069Y006159D01*
X014069Y006257D02*
X013767Y006257D01*
X013767Y006356D02*
X014069Y006356D01*
X014211Y006650D02*
X014191Y006670D01*
X013659Y006670D01*
X013639Y006650D01*
X012050Y006650D01*
X012050Y005550D01*
X011770Y005550D01*
X011770Y006541D01*
X011750Y006561D01*
X011750Y006650D01*
X011661Y006650D01*
X011641Y006670D01*
X010041Y006670D01*
X009550Y007161D01*
X009550Y008650D01*
X010650Y008650D01*
X010650Y007750D01*
X010950Y007450D01*
X013850Y007450D01*
X015150Y008750D01*
X017750Y008750D01*
X017750Y006650D01*
X014211Y006650D01*
X014210Y006651D02*
X017750Y006651D01*
X017750Y006750D02*
X009962Y006750D01*
X009863Y006848D02*
X017750Y006848D01*
X017750Y006947D02*
X009765Y006947D01*
X009666Y007045D02*
X017750Y007045D01*
X017750Y007144D02*
X009568Y007144D01*
X009550Y007242D02*
X017750Y007242D01*
X017750Y007341D02*
X009550Y007341D01*
X009550Y007439D02*
X017750Y007439D01*
X017750Y007538D02*
X013938Y007538D01*
X014036Y007636D02*
X017750Y007636D01*
X017750Y007735D02*
X014135Y007735D01*
X014233Y007833D02*
X017750Y007833D01*
X017750Y007932D02*
X014332Y007932D01*
X014430Y008030D02*
X017750Y008030D01*
X017750Y008129D02*
X014529Y008129D01*
X014627Y008227D02*
X017750Y008227D01*
X017750Y008326D02*
X014726Y008326D01*
X014824Y008424D02*
X017750Y008424D01*
X017750Y008523D02*
X014923Y008523D01*
X015021Y008621D02*
X017750Y008621D01*
X017750Y008720D02*
X015120Y008720D01*
X015005Y008917D02*
X009270Y008917D01*
X009270Y009015D02*
X019404Y009015D01*
X019449Y008970D02*
X015059Y008970D01*
X013759Y007670D01*
X011041Y007670D01*
X010870Y007841D01*
X010870Y008741D01*
X010836Y008775D01*
X010836Y008785D01*
X010736Y008885D01*
X009572Y008885D01*
X009557Y008870D01*
X009459Y008870D01*
X009330Y008741D01*
X009330Y007381D01*
X009270Y007441D01*
X009270Y010841D01*
X009141Y010970D01*
X004659Y010970D01*
X004530Y010841D01*
X004530Y006159D01*
X005830Y004859D01*
X005959Y004730D01*
X010641Y004730D01*
X011141Y005230D01*
X011198Y005230D01*
X011198Y005191D01*
X011238Y005151D01*
X011238Y004564D01*
X011338Y004465D01*
X011794Y004465D01*
X011893Y004564D01*
X011893Y005178D01*
X011794Y005277D01*
X011734Y005277D01*
X011711Y005300D01*
X011741Y005330D01*
X012119Y005330D01*
X012066Y005277D01*
X012046Y005277D01*
X011947Y005178D01*
X011947Y004564D01*
X012046Y004465D01*
X012502Y004465D01*
X012602Y004564D01*
X012602Y005178D01*
X012595Y005184D01*
X012638Y005227D01*
X012638Y005330D01*
X012667Y005330D01*
X012767Y005430D01*
X012767Y006430D01*
X013069Y006430D01*
X013069Y005430D01*
X013168Y005330D01*
X013530Y005330D01*
X013530Y002541D01*
X012859Y001870D01*
X009141Y001870D01*
X009070Y001941D01*
X008941Y002070D01*
X006903Y002070D01*
X002870Y006103D01*
X002870Y014050D01*
X014369Y014050D01*
X019449Y008970D01*
X019305Y009114D02*
X009270Y009114D01*
X009270Y009212D02*
X019207Y009212D01*
X019108Y009311D02*
X009270Y009311D01*
X009270Y009409D02*
X019010Y009409D01*
X018911Y009508D02*
X009270Y009508D01*
X009270Y009606D02*
X018813Y009606D01*
X018714Y009705D02*
X009270Y009705D01*
X009270Y009803D02*
X018616Y009803D01*
X018517Y009902D02*
X009270Y009902D01*
X009270Y010000D02*
X018419Y010000D01*
X018320Y010099D02*
X009270Y010099D01*
X009270Y010197D02*
X018222Y010197D01*
X018123Y010296D02*
X009270Y010296D01*
X009270Y010394D02*
X018025Y010394D01*
X017926Y010493D02*
X009270Y010493D01*
X009270Y010591D02*
X017828Y010591D01*
X017729Y010690D02*
X009270Y010690D01*
X009270Y010788D02*
X017631Y010788D01*
X017532Y010887D02*
X009225Y010887D01*
X009050Y010750D02*
X009050Y007350D01*
X009950Y006450D01*
X011550Y006450D01*
X011550Y005450D01*
X011050Y005450D01*
X010550Y004950D01*
X006050Y004950D01*
X004750Y006250D01*
X004750Y010750D01*
X009050Y010750D01*
X009050Y010690D02*
X004750Y010690D01*
X004750Y010591D02*
X009050Y010591D01*
X009050Y010493D02*
X004750Y010493D01*
X004750Y010394D02*
X009050Y010394D01*
X009050Y010296D02*
X004750Y010296D01*
X004750Y010197D02*
X009050Y010197D01*
X009050Y010099D02*
X004750Y010099D01*
X004750Y010000D02*
X009050Y010000D01*
X009050Y009902D02*
X004750Y009902D01*
X004750Y009803D02*
X009050Y009803D01*
X009050Y009705D02*
X004750Y009705D01*
X004750Y009606D02*
X009050Y009606D01*
X009050Y009508D02*
X004750Y009508D01*
X004750Y009409D02*
X009050Y009409D01*
X009050Y009311D02*
X004750Y009311D01*
X004750Y009212D02*
X009050Y009212D01*
X009050Y009114D02*
X004750Y009114D01*
X004750Y009015D02*
X009050Y009015D01*
X009050Y008917D02*
X004750Y008917D01*
X004750Y008818D02*
X009050Y008818D01*
X009050Y008720D02*
X004750Y008720D01*
X004750Y008621D02*
X009050Y008621D01*
X009050Y008523D02*
X004750Y008523D01*
X004750Y008424D02*
X009050Y008424D01*
X009050Y008326D02*
X004750Y008326D01*
X004750Y008227D02*
X009050Y008227D01*
X009050Y008129D02*
X004750Y008129D01*
X004750Y008030D02*
X009050Y008030D01*
X009050Y007932D02*
X004750Y007932D01*
X004750Y007833D02*
X009050Y007833D01*
X009050Y007735D02*
X004750Y007735D01*
X004750Y007636D02*
X009050Y007636D01*
X009050Y007538D02*
X004750Y007538D01*
X004750Y007439D02*
X009050Y007439D01*
X009059Y007341D02*
X004750Y007341D01*
X004750Y007242D02*
X009158Y007242D01*
X009256Y007144D02*
X004750Y007144D01*
X004750Y007045D02*
X009355Y007045D01*
X009453Y006947D02*
X004750Y006947D01*
X004750Y006848D02*
X009552Y006848D01*
X009650Y006750D02*
X004750Y006750D01*
X004750Y006651D02*
X009749Y006651D01*
X009847Y006553D02*
X004750Y006553D01*
X004750Y006454D02*
X009946Y006454D01*
X011418Y005974D02*
X011418Y005282D01*
X011566Y005134D01*
X011566Y004871D01*
X011893Y004878D02*
X011947Y004878D01*
X011947Y004780D02*
X011893Y004780D01*
X011893Y004681D02*
X011947Y004681D01*
X011947Y004583D02*
X011893Y004583D01*
X011813Y004484D02*
X012027Y004484D01*
X012522Y004484D02*
X013530Y004484D01*
X013530Y004386D02*
X004587Y004386D01*
X004489Y004484D02*
X011318Y004484D01*
X011238Y004583D02*
X004390Y004583D01*
X004292Y004681D02*
X011238Y004681D01*
X011238Y004780D02*
X010691Y004780D01*
X010789Y004878D02*
X011238Y004878D01*
X011238Y004977D02*
X010888Y004977D01*
X010986Y005075D02*
X011238Y005075D01*
X011215Y005174D02*
X011085Y005174D01*
X010971Y005371D02*
X005629Y005371D01*
X005531Y005469D02*
X011550Y005469D01*
X011550Y005568D02*
X005432Y005568D01*
X005334Y005666D02*
X011550Y005666D01*
X011550Y005765D02*
X005235Y005765D01*
X005137Y005863D02*
X011550Y005863D01*
X011550Y005962D02*
X005038Y005962D01*
X004940Y006060D02*
X011550Y006060D01*
X011550Y006159D02*
X004841Y006159D01*
X004750Y006257D02*
X011550Y006257D01*
X011550Y006356D02*
X004750Y006356D01*
X004530Y006356D02*
X002870Y006356D01*
X002870Y006454D02*
X004530Y006454D01*
X004530Y006553D02*
X002870Y006553D01*
X002870Y006651D02*
X004530Y006651D01*
X004530Y006750D02*
X002870Y006750D01*
X002870Y006848D02*
X004530Y006848D01*
X004530Y006947D02*
X002870Y006947D01*
X002870Y007045D02*
X004530Y007045D01*
X004530Y007144D02*
X002870Y007144D01*
X002870Y007242D02*
X004530Y007242D01*
X004530Y007341D02*
X002870Y007341D01*
X002870Y007439D02*
X004530Y007439D01*
X004530Y007538D02*
X002870Y007538D01*
X002870Y007636D02*
X004530Y007636D01*
X004530Y007735D02*
X002870Y007735D01*
X002870Y007833D02*
X004530Y007833D01*
X004530Y007932D02*
X002870Y007932D01*
X002870Y008030D02*
X004530Y008030D01*
X004530Y008129D02*
X002870Y008129D01*
X002870Y008227D02*
X004530Y008227D01*
X004530Y008326D02*
X002870Y008326D01*
X002870Y008424D02*
X004530Y008424D01*
X004530Y008523D02*
X002870Y008523D01*
X002870Y008621D02*
X004530Y008621D01*
X004530Y008720D02*
X002870Y008720D01*
X002870Y008818D02*
X004530Y008818D01*
X004530Y008917D02*
X002870Y008917D01*
X002870Y009015D02*
X004530Y009015D01*
X004530Y009114D02*
X002870Y009114D01*
X002870Y009212D02*
X004530Y009212D01*
X004530Y009311D02*
X002870Y009311D01*
X002870Y009409D02*
X004530Y009409D01*
X004530Y009508D02*
X002870Y009508D01*
X002870Y009606D02*
X004530Y009606D01*
X004530Y009705D02*
X002870Y009705D01*
X002870Y009803D02*
X004530Y009803D01*
X004530Y009902D02*
X002870Y009902D01*
X002870Y010000D02*
X004530Y010000D01*
X004530Y010099D02*
X002870Y010099D01*
X002870Y010197D02*
X004530Y010197D01*
X004530Y010296D02*
X002870Y010296D01*
X002870Y010394D02*
X004530Y010394D01*
X004530Y010493D02*
X002870Y010493D01*
X002870Y010591D02*
X004530Y010591D01*
X004530Y010690D02*
X002870Y010690D01*
X002870Y010788D02*
X004530Y010788D01*
X004575Y010887D02*
X002870Y010887D01*
X002870Y010985D02*
X017434Y010985D01*
X017335Y011084D02*
X002870Y011084D01*
X002870Y011182D02*
X017237Y011182D01*
X017138Y011281D02*
X002870Y011281D01*
X002870Y011379D02*
X017040Y011379D01*
X016941Y011478D02*
X002870Y011478D01*
X002870Y011576D02*
X016843Y011576D01*
X016744Y011675D02*
X002870Y011675D01*
X002870Y011773D02*
X016646Y011773D01*
X016547Y011872D02*
X002870Y011872D01*
X002870Y011970D02*
X016449Y011970D01*
X016350Y012069D02*
X002870Y012069D01*
X002870Y012167D02*
X007303Y012167D01*
X007293Y012177D02*
X007392Y012078D01*
X008333Y012078D01*
X008433Y012177D01*
X008433Y013818D01*
X008333Y013918D01*
X007392Y013918D01*
X007293Y013818D01*
X007293Y012177D01*
X007293Y012266D02*
X002870Y012266D01*
X002870Y012364D02*
X007293Y012364D01*
X007293Y012463D02*
X002870Y012463D01*
X002870Y012561D02*
X007293Y012561D01*
X007293Y012660D02*
X002870Y012660D01*
X002870Y012758D02*
X007293Y012758D01*
X007293Y012857D02*
X002870Y012857D01*
X002870Y012955D02*
X007293Y012955D01*
X007293Y013054D02*
X002870Y013054D01*
X002870Y013152D02*
X007293Y013152D01*
X007293Y013251D02*
X002870Y013251D01*
X002870Y013349D02*
X007293Y013349D01*
X007293Y013448D02*
X002870Y013448D01*
X002870Y013546D02*
X007293Y013546D01*
X007293Y013645D02*
X002870Y013645D01*
X002870Y013743D02*
X007293Y013743D01*
X007316Y013842D02*
X002870Y013842D01*
X002870Y013940D02*
X014479Y013940D01*
X014577Y013842D02*
X008409Y013842D01*
X008433Y013743D02*
X014676Y013743D01*
X014774Y013645D02*
X008433Y013645D01*
X008433Y013546D02*
X014873Y013546D01*
X014971Y013448D02*
X008433Y013448D01*
X008433Y013349D02*
X015070Y013349D01*
X015168Y013251D02*
X008433Y013251D01*
X008433Y013152D02*
X015267Y013152D01*
X015365Y013054D02*
X008433Y013054D01*
X008433Y012955D02*
X015464Y012955D01*
X015562Y012857D02*
X008433Y012857D01*
X008433Y012758D02*
X015661Y012758D01*
X015759Y012660D02*
X008433Y012660D01*
X008433Y012561D02*
X015858Y012561D01*
X015956Y012463D02*
X008433Y012463D01*
X008433Y012364D02*
X016055Y012364D01*
X016153Y012266D02*
X008433Y012266D01*
X008422Y012167D02*
X016252Y012167D01*
X014380Y014039D02*
X002870Y014039D01*
X006388Y015812D02*
X009350Y015812D01*
X009350Y015910D02*
X006290Y015910D01*
X006191Y016009D02*
X009350Y016009D01*
X009350Y016107D02*
X006093Y016107D01*
X005994Y016206D02*
X009350Y016206D01*
X009350Y016304D02*
X005896Y016304D01*
X005797Y016403D02*
X009350Y016403D01*
X009350Y016501D02*
X005699Y016501D01*
X005600Y016600D02*
X009350Y016600D01*
X009350Y016698D02*
X005502Y016698D01*
X005403Y016797D02*
X009350Y016797D01*
X009350Y016895D02*
X005305Y016895D01*
X005206Y016994D02*
X009350Y016994D01*
X009350Y017092D02*
X005108Y017092D01*
X005009Y017191D02*
X009350Y017191D01*
X009350Y017289D02*
X004911Y017289D01*
X004812Y017388D02*
X009350Y017388D01*
X009350Y017486D02*
X004714Y017486D01*
X004615Y017585D02*
X009350Y017585D01*
X009350Y017683D02*
X004517Y017683D01*
X004418Y017782D02*
X009350Y017782D01*
X009350Y015713D02*
X006487Y015713D01*
X006585Y015615D02*
X009350Y015615D01*
X009350Y015516D02*
X006684Y015516D01*
X006782Y015418D02*
X009350Y015418D01*
X009350Y015319D02*
X006881Y015319D01*
X006979Y015221D02*
X009350Y015221D01*
X009350Y015122D02*
X007078Y015122D01*
X007176Y015024D02*
X009350Y015024D01*
X009350Y014925D02*
X007275Y014925D01*
X009050Y015650D02*
X009815Y015650D01*
X010485Y015650D02*
X011237Y015650D01*
X012063Y015650D02*
X012550Y015650D01*
X015450Y018550D02*
X014700Y019300D01*
X014700Y020080D01*
X014200Y020080D02*
X014200Y020700D01*
X014150Y020750D01*
X014200Y021300D02*
X014804Y020696D01*
X016350Y020696D01*
X016796Y020696D01*
X016850Y020750D01*
X016850Y021300D02*
X016746Y021404D01*
X016350Y021404D01*
X015825Y021404D01*
X015700Y021529D01*
X015700Y022020D01*
X015200Y022020D02*
X015200Y023100D01*
X015304Y023100D01*
X015304Y023997D01*
X015324Y024017D01*
X015450Y024143D01*
X015450Y026750D01*
X014450Y026750D02*
X014450Y024143D01*
X014576Y024017D01*
X014596Y023997D01*
X014596Y023100D01*
X014700Y023100D01*
X014700Y022020D01*
X014200Y022020D02*
X014200Y021300D01*
X012550Y020850D02*
X023950Y009450D01*
X028450Y009450D01*
X029650Y010650D01*
X029650Y011850D01*
X030605Y012805D01*
X031206Y012805D01*
X031206Y012490D02*
X030590Y012490D01*
X029850Y011750D01*
X029850Y010550D01*
X028550Y009250D01*
X023850Y009250D01*
X011850Y021250D01*
X011850Y023615D01*
X011150Y023615D02*
X011150Y021650D01*
X023750Y009050D01*
X028650Y009050D01*
X030050Y010450D01*
X030050Y011650D01*
X030575Y012175D01*
X031206Y012175D01*
X031875Y011506D02*
X031875Y010275D01*
X030050Y008450D01*
X024050Y008450D01*
X010450Y022050D01*
X010450Y023615D01*
X010450Y024285D02*
X010450Y025250D01*
X010650Y025450D01*
X010650Y026450D01*
X011150Y026950D01*
X011650Y026450D02*
X012150Y026950D01*
X011650Y026450D02*
X011650Y025550D01*
X011850Y025350D01*
X011850Y024285D01*
X011150Y024285D02*
X011150Y025950D01*
X012150Y025950D02*
X012550Y025550D01*
X012550Y024285D01*
X012550Y023615D02*
X012550Y020850D01*
X015200Y020080D02*
X015200Y019500D01*
X015250Y019450D01*
X015450Y018550D02*
X023050Y018550D01*
X023150Y018450D01*
X023950Y018450D01*
X024050Y018550D01*
X030150Y018550D01*
X032190Y016510D01*
X032190Y015994D01*
X031875Y015994D02*
X031875Y016425D01*
X030050Y018250D01*
X028950Y018250D01*
X028950Y017850D02*
X028550Y018250D01*
X028950Y017850D02*
X029850Y017850D01*
X030250Y017450D01*
X030250Y015550D01*
X030475Y015325D01*
X031206Y015325D01*
X031206Y015010D02*
X028590Y015010D01*
X027700Y015900D01*
X022104Y015900D01*
X021000Y015900D01*
X020550Y015450D01*
X020550Y014804D01*
X020550Y014096D02*
X020550Y013850D01*
X020950Y013450D01*
X021350Y013850D01*
X021350Y014096D01*
X021350Y014804D02*
X021350Y015250D01*
X021500Y015400D01*
X022104Y015400D01*
X025500Y015400D01*
X025750Y015650D01*
X027450Y015650D01*
X028405Y014695D01*
X031206Y014695D01*
X031206Y014380D02*
X030620Y014380D01*
X030550Y014450D01*
X028950Y014450D01*
X028550Y014050D01*
X026350Y014050D01*
X024850Y012550D01*
X024200Y012550D01*
X024450Y012850D02*
X024650Y012850D01*
X025450Y013650D01*
X025450Y014050D01*
X026350Y013050D02*
X027850Y013050D01*
X029050Y014250D01*
X030450Y014250D01*
X030635Y014065D01*
X031206Y014065D01*
X031206Y013750D02*
X030254Y013750D01*
X030050Y013954D01*
X029654Y013954D01*
X029550Y013850D01*
X029550Y013350D02*
X029654Y013246D01*
X030050Y013246D01*
X030239Y013435D01*
X031206Y013435D01*
X032190Y011506D02*
X032190Y010290D01*
X030150Y008250D01*
X023950Y008250D01*
X008950Y023250D01*
X008950Y023615D01*
X008250Y023615D02*
X008250Y023350D01*
X023550Y008050D01*
X030250Y008050D01*
X032505Y010305D01*
X032505Y011506D01*
X032820Y011506D02*
X032820Y010320D01*
X032450Y009950D01*
X030350Y007850D01*
X023050Y007850D01*
X007550Y023350D01*
X007550Y023615D01*
X007450Y023150D02*
X007050Y023150D01*
X006850Y023350D01*
X006850Y023615D01*
X007450Y023150D02*
X022950Y007650D01*
X034050Y007650D01*
X034860Y008460D01*
X034860Y010240D01*
X034395Y010705D01*
X034395Y011506D01*
X034710Y011506D02*
X034710Y010690D01*
X037150Y008250D01*
X051150Y008250D01*
X052700Y009800D01*
X052922Y009578D01*
X053504Y009578D01*
X053504Y009834D02*
X053834Y009834D01*
X054050Y010050D01*
X054250Y010650D02*
X054250Y011096D01*
X053250Y011115D02*
X053250Y010550D01*
X052850Y009950D02*
X052850Y011650D01*
X052985Y011785D01*
X053250Y011785D01*
X053250Y012050D01*
X053453Y012253D01*
X053453Y012448D01*
X053650Y012448D02*
X053650Y012050D01*
X053750Y011950D01*
X053950Y012150D02*
X054150Y012150D01*
X054250Y012050D01*
X054250Y011804D01*
X053950Y012150D02*
X053847Y012253D01*
X053847Y012448D01*
X054152Y012753D02*
X054732Y012753D01*
X055004Y013025D01*
X055004Y013147D01*
X055004Y013344D01*
X055004Y013950D01*
X055004Y014650D01*
X055450Y014650D01*
X054450Y015050D02*
X055050Y015650D01*
X055050Y016595D01*
X054650Y016595D01*
X055050Y016595D02*
X055050Y020630D01*
X054050Y020630D02*
X054050Y021250D01*
X053050Y020630D02*
X052830Y020630D01*
X052550Y020350D01*
X052550Y016595D01*
X052550Y015650D01*
X050950Y014050D01*
X050950Y009850D01*
X050550Y009450D01*
X049350Y009450D01*
X048650Y010150D01*
X048650Y011130D01*
X048150Y011130D02*
X048150Y010350D01*
X049250Y009250D01*
X050650Y009250D01*
X051150Y009750D01*
X051150Y013850D01*
X052550Y015250D01*
X053650Y015250D01*
X054050Y015650D01*
X054050Y016595D01*
X053650Y016595D01*
X054050Y016595D02*
X054050Y017480D01*
X053050Y017480D02*
X053050Y018150D01*
X052050Y017480D02*
X052050Y016595D01*
X051600Y016595D01*
X052050Y016595D02*
X052050Y015450D01*
X050750Y014150D01*
X050750Y009950D01*
X050450Y009650D01*
X049450Y009650D01*
X049150Y009950D01*
X049150Y011130D01*
X049650Y011130D02*
X049650Y011850D01*
X049450Y012250D02*
X050150Y012950D01*
X050150Y013570D01*
X049650Y013570D02*
X049650Y013050D01*
X049050Y012450D01*
X046850Y012450D01*
X043950Y009550D01*
X039050Y009550D01*
X037950Y010650D01*
X037950Y012226D01*
X037526Y012650D01*
X036550Y012650D01*
X036395Y012805D01*
X035694Y012805D01*
X035694Y012490D02*
X036410Y012490D01*
X036450Y012450D01*
X037467Y012450D01*
X037750Y012167D01*
X037750Y010550D01*
X038950Y009350D01*
X044050Y009350D01*
X046950Y012250D01*
X049450Y012250D01*
X050150Y011850D02*
X050150Y011130D01*
X050150Y010304D01*
X050254Y010200D01*
X049650Y010304D02*
X049650Y011130D01*
X049650Y010304D02*
X049546Y010200D01*
X048950Y009050D02*
X047650Y010350D01*
X047650Y011130D01*
X046650Y011130D02*
X046650Y010650D01*
X046550Y010550D01*
X045550Y010550D01*
X044150Y009150D01*
X038850Y009150D01*
X037550Y010450D01*
X037550Y012050D01*
X037425Y012175D01*
X035694Y012175D01*
X035025Y011506D02*
X035025Y010675D01*
X037250Y008450D01*
X051050Y008450D01*
X052050Y009450D01*
X052050Y010050D01*
X052050Y011650D01*
X052185Y011785D01*
X052450Y011785D01*
X052450Y012350D01*
X052853Y012753D01*
X053148Y012753D01*
X053148Y012556D02*
X052956Y012556D01*
X052850Y012450D01*
X052850Y012250D01*
X052550Y012750D02*
X051700Y012750D01*
X051646Y012804D01*
X051646Y013150D01*
X051646Y013446D01*
X051850Y013650D01*
X051350Y013750D02*
X052650Y015050D01*
X054450Y015050D01*
X054525Y015550D02*
X054350Y015550D01*
X054525Y015550D02*
X054650Y015675D01*
X054650Y016005D01*
X053650Y016005D02*
X053650Y015675D01*
X053525Y015550D01*
X053300Y015550D01*
X053120Y015550D01*
X052995Y015675D01*
X052995Y016005D01*
X052950Y016005D01*
X053605Y016005D02*
X053650Y016005D01*
X052950Y016595D02*
X052550Y016595D01*
X051600Y016005D02*
X051600Y015675D01*
X051475Y015550D01*
X051300Y015550D01*
X051075Y015550D01*
X050950Y015675D01*
X050950Y016005D01*
X050950Y016595D02*
X050550Y016595D01*
X050550Y020450D01*
X050730Y020630D01*
X051050Y020630D01*
X051550Y020150D02*
X051780Y019920D01*
X052050Y019920D01*
X051550Y020150D02*
X051550Y023250D01*
X052050Y023750D01*
X052050Y023955D01*
X053050Y023955D02*
X053050Y023070D01*
X053550Y023250D02*
X053550Y020150D01*
X053780Y019920D01*
X054050Y019920D01*
X052050Y020630D02*
X052050Y021250D01*
X050050Y021250D02*
X050050Y020630D01*
X049550Y020150D02*
X049780Y019920D01*
X050050Y019920D01*
X049550Y020150D02*
X049550Y023250D01*
X050050Y023750D01*
X050050Y023955D01*
X049050Y023955D02*
X049050Y023070D01*
X048050Y023750D02*
X047550Y023250D01*
X047550Y020150D01*
X047780Y019920D01*
X048050Y019920D01*
X048050Y020630D02*
X048050Y021250D01*
X048730Y020630D02*
X049050Y020630D01*
X048730Y020630D02*
X048550Y020450D01*
X048550Y016589D01*
X049000Y016589D01*
X048550Y016589D02*
X048550Y015750D01*
X048150Y015350D01*
X048150Y013570D01*
X047650Y013570D02*
X047650Y015250D01*
X048050Y015650D01*
X048050Y016589D01*
X047622Y016589D01*
X048050Y016589D02*
X048050Y017480D01*
X047050Y017480D02*
X047050Y018150D01*
X045350Y018330D02*
X045350Y018950D01*
X044350Y018330D02*
X044350Y010350D01*
X043805Y009805D01*
X042800Y009805D01*
X042300Y010500D02*
X041850Y010050D01*
X039050Y010050D01*
X038150Y010950D01*
X038150Y012267D01*
X037567Y012850D01*
X036650Y012850D01*
X036380Y013120D01*
X035694Y013120D01*
X035694Y013435D02*
X036365Y013435D01*
X036750Y013050D01*
X037643Y013050D01*
X038350Y012343D01*
X038350Y011050D01*
X039150Y010250D01*
X040850Y010250D01*
X041300Y010700D01*
X041300Y011330D01*
X040800Y011330D02*
X040800Y010700D01*
X040550Y010450D01*
X039250Y010450D01*
X038550Y011150D01*
X038550Y013568D01*
X037521Y014596D01*
X036596Y014596D01*
X036380Y014380D01*
X035694Y014380D01*
X035694Y014065D02*
X036711Y014065D01*
X036900Y014254D01*
X037296Y014254D01*
X037400Y014150D01*
X037400Y013650D02*
X037296Y013546D01*
X036900Y013546D01*
X036696Y013750D01*
X035694Y013750D01*
X035694Y015325D02*
X036225Y015325D01*
X036350Y015450D01*
X036350Y020850D01*
X035450Y021750D01*
X033550Y021750D01*
X033396Y021904D01*
X033396Y022750D01*
X033396Y024444D01*
X033250Y024590D01*
X032933Y024273D01*
X033250Y024590D02*
X033250Y026750D01*
X029950Y026750D02*
X029950Y024590D01*
X030096Y024444D01*
X030096Y022750D01*
X030096Y021904D01*
X030450Y021550D01*
X035350Y021550D01*
X036150Y020750D01*
X036150Y017850D01*
X035025Y016725D01*
X035025Y015994D01*
X034710Y015994D02*
X034710Y016710D01*
X035950Y017950D01*
X035950Y020650D01*
X035250Y021350D01*
X027750Y021350D01*
X026896Y022204D01*
X026896Y022750D01*
X026896Y024444D01*
X026750Y024590D01*
X026433Y024273D01*
X026750Y024590D02*
X026750Y026750D01*
X024750Y026750D02*
X024750Y024143D01*
X024624Y024017D01*
X024624Y023070D01*
X024604Y023050D01*
X024500Y023146D01*
X024500Y022020D01*
X024000Y022020D02*
X024000Y023146D01*
X023896Y023050D01*
X023876Y023070D01*
X023876Y024017D01*
X023750Y024143D01*
X023750Y026750D01*
X024250Y025450D02*
X024250Y024883D01*
X021650Y024143D02*
X021524Y024017D01*
X021524Y023120D01*
X021504Y023100D01*
X021400Y022996D01*
X021400Y022020D01*
X020900Y022020D02*
X020900Y022996D01*
X020796Y023100D01*
X020776Y023120D01*
X020776Y024017D01*
X020650Y024143D01*
X020650Y026750D01*
X021650Y026750D02*
X021650Y024143D01*
X021150Y024883D02*
X021150Y025450D01*
X018550Y026750D02*
X018550Y024143D01*
X018424Y024017D01*
X018404Y023997D01*
X018404Y023100D01*
X018300Y022996D01*
X018300Y022020D01*
X017800Y022020D02*
X017800Y022996D01*
X017696Y023100D01*
X017696Y023997D01*
X017676Y024017D01*
X017550Y024143D01*
X017550Y026750D01*
X018050Y025450D02*
X018050Y024883D01*
X014950Y024883D02*
X014950Y025450D01*
X008950Y025150D02*
X008950Y024285D01*
X008250Y024285D02*
X008250Y025350D01*
X008150Y025450D01*
X008150Y025950D01*
X007650Y025450D02*
X007650Y026450D01*
X007150Y026950D01*
X008150Y026950D02*
X008650Y026450D01*
X008650Y025450D01*
X008950Y025150D01*
X007650Y025450D02*
X007550Y025350D01*
X007550Y024285D01*
X002911Y022411D02*
X001611Y022411D01*
X001513Y022313D02*
X002813Y022313D01*
X002714Y022214D02*
X001414Y022214D01*
X001350Y022116D02*
X002650Y022116D01*
X002650Y022017D02*
X001350Y022017D01*
X001350Y021919D02*
X002650Y021919D01*
X002650Y021820D02*
X001350Y021820D01*
X001350Y021722D02*
X002650Y021722D01*
X002650Y021623D02*
X001350Y021623D01*
X001350Y021525D02*
X002650Y021525D01*
X002650Y021426D02*
X001350Y021426D01*
X001350Y021328D02*
X002650Y021328D01*
X002650Y021229D02*
X001350Y021229D01*
X001350Y021131D02*
X002650Y021131D01*
X002650Y021032D02*
X001350Y021032D01*
X001350Y020934D02*
X002650Y020934D01*
X002650Y020835D02*
X001350Y020835D01*
X001350Y020737D02*
X002650Y020737D01*
X002650Y020638D02*
X001350Y020638D01*
X001350Y020540D02*
X002650Y020540D01*
X002650Y020441D02*
X001350Y020441D01*
X001350Y020343D02*
X002650Y020343D01*
X002650Y020244D02*
X001350Y020244D01*
X001350Y020146D02*
X002650Y020146D01*
X002650Y020047D02*
X001350Y020047D01*
X001350Y019949D02*
X002650Y019949D01*
X002650Y019850D02*
X001350Y019850D01*
X001350Y019752D02*
X002650Y019752D01*
X002650Y019653D02*
X001350Y019653D01*
X001350Y019555D02*
X002650Y019555D01*
X002650Y019456D02*
X001350Y019456D01*
X001350Y019358D02*
X002650Y019358D01*
X002650Y019259D02*
X001350Y019259D01*
X001350Y019161D02*
X002650Y019161D01*
X002650Y019062D02*
X001350Y019062D01*
X001350Y018964D02*
X002650Y018964D01*
X002650Y018865D02*
X001350Y018865D01*
X001350Y018767D02*
X002650Y018767D01*
X002650Y018668D02*
X001350Y018668D01*
X001350Y018570D02*
X002650Y018570D01*
X002650Y018471D02*
X001350Y018471D01*
X001350Y018373D02*
X002650Y018373D01*
X002650Y018274D02*
X001350Y018274D01*
X001350Y018176D02*
X002650Y018176D01*
X002650Y018077D02*
X001350Y018077D01*
X001350Y017979D02*
X002650Y017979D01*
X017300Y019200D02*
X017350Y019150D01*
X017300Y019200D02*
X017300Y020080D01*
X017800Y020080D02*
X017800Y019350D01*
X018400Y018750D01*
X023150Y018750D01*
X023250Y018650D01*
X023850Y018650D01*
X023950Y018750D01*
X030250Y018750D01*
X032505Y016495D01*
X032505Y015994D01*
X032820Y015994D02*
X032820Y017126D01*
X032650Y017296D01*
X032204Y017296D01*
X032150Y017350D01*
X032150Y017950D02*
X032204Y018004D01*
X032650Y018004D01*
X033135Y018465D02*
X033133Y018507D01*
X033128Y018549D01*
X033118Y018591D01*
X033106Y018631D01*
X033090Y018670D01*
X033070Y018708D01*
X033047Y018743D01*
X033022Y018777D01*
X032993Y018808D01*
X032962Y018837D01*
X032928Y018862D01*
X032893Y018885D01*
X032855Y018905D01*
X032816Y018921D01*
X032776Y018933D01*
X032734Y018943D01*
X032692Y018948D01*
X032650Y018950D01*
X032080Y018950D01*
X033135Y018465D02*
X033135Y015994D01*
X033450Y015994D02*
X033450Y019400D01*
X033452Y019445D01*
X033458Y019491D01*
X033467Y019535D01*
X033480Y019579D01*
X033496Y019621D01*
X033516Y019662D01*
X033540Y019701D01*
X033566Y019738D01*
X033595Y019773D01*
X033627Y019805D01*
X033662Y019834D01*
X033699Y019860D01*
X033738Y019884D01*
X033779Y019904D01*
X033821Y019920D01*
X033865Y019933D01*
X033909Y019942D01*
X033955Y019948D01*
X034000Y019950D01*
X034520Y019950D01*
X035050Y020950D02*
X035550Y020450D01*
X035550Y018150D01*
X034080Y016680D01*
X034080Y015994D01*
X034395Y015994D02*
X034395Y016695D01*
X035750Y018050D01*
X035750Y020550D01*
X035150Y021150D01*
X031250Y021150D01*
X029250Y019150D01*
X024250Y019150D01*
X024000Y019400D01*
X024000Y020080D01*
X023500Y020080D02*
X023500Y019200D01*
X023550Y019150D01*
X023250Y018950D02*
X021250Y018950D01*
X021100Y019100D01*
X020900Y019300D01*
X020900Y020080D01*
X020400Y020080D02*
X020400Y019200D01*
X020450Y019150D01*
X021400Y019500D02*
X021450Y019450D01*
X021400Y019500D02*
X021400Y020080D01*
X021004Y020696D02*
X022550Y020696D01*
X022996Y020696D01*
X023050Y020750D01*
X022550Y020696D02*
X022504Y020650D01*
X023500Y021300D02*
X024104Y020696D01*
X025650Y020696D01*
X026096Y020696D01*
X026150Y020750D01*
X026150Y021350D02*
X026096Y021404D01*
X025650Y021404D01*
X025125Y021404D01*
X025000Y021529D01*
X025000Y022020D01*
X023500Y022020D02*
X023500Y021300D01*
X023050Y021350D02*
X022996Y021404D01*
X022550Y021404D01*
X022025Y021404D01*
X021900Y021529D01*
X021900Y022020D01*
X020400Y022020D02*
X020400Y021300D01*
X021004Y020696D01*
X019950Y020750D02*
X019896Y020696D01*
X019450Y020696D01*
X017904Y020696D01*
X017300Y021300D01*
X017300Y022020D01*
X018800Y022020D02*
X018800Y021529D01*
X018925Y021404D01*
X019450Y021404D01*
X019896Y021404D01*
X019950Y021350D01*
X018300Y020080D02*
X018300Y019500D01*
X018350Y019450D01*
X020496Y018096D02*
X020550Y018150D01*
X020496Y018096D02*
X020496Y017650D01*
X020496Y016904D01*
X021000Y016400D01*
X022104Y016400D01*
X022104Y016900D02*
X021400Y016900D01*
X021204Y017096D01*
X021204Y017650D01*
X021204Y018096D01*
X021150Y018150D01*
X023250Y018950D02*
X023350Y018850D01*
X023750Y018850D01*
X023850Y018950D01*
X029350Y018950D01*
X031350Y020950D01*
X035050Y020950D01*
X037350Y021830D02*
X037350Y018450D01*
X038150Y017650D01*
X039650Y017650D01*
X040300Y017000D01*
X040300Y015295D01*
X040300Y014705D02*
X040300Y013770D01*
X039800Y013770D02*
X039800Y013300D01*
X039750Y013250D01*
X039250Y013250D01*
X039150Y013350D01*
X039150Y012904D01*
X039150Y012196D02*
X040300Y012196D01*
X043300Y012196D01*
X043300Y011330D01*
X042800Y011330D02*
X042800Y010395D01*
X042300Y010500D02*
X042300Y011330D01*
X041800Y011330D02*
X041800Y010600D01*
X041650Y010450D01*
X040300Y011330D02*
X040300Y012196D01*
X043300Y012196D02*
X043496Y012196D01*
X043950Y012650D01*
X043300Y013770D02*
X043300Y014705D01*
X043300Y015295D02*
X043300Y015900D01*
X043850Y016450D01*
X043850Y021650D01*
X043650Y021850D01*
X043370Y021850D01*
X043350Y021830D01*
X042350Y021830D02*
X042350Y022450D01*
X041670Y021830D02*
X041350Y021830D01*
X041670Y021830D02*
X041950Y021550D01*
X041950Y017750D01*
X042300Y017400D01*
X042300Y015295D01*
X041300Y015295D02*
X041300Y016600D01*
X039850Y018050D01*
X039850Y021650D01*
X039670Y021830D01*
X039350Y021830D01*
X040350Y021830D02*
X040350Y022450D01*
X038350Y022450D02*
X038350Y021830D01*
X038850Y020950D02*
X038670Y020770D01*
X038350Y020770D01*
X038850Y020950D02*
X038850Y026450D01*
X039150Y026750D01*
X038150Y026750D02*
X037350Y025950D01*
X037350Y024270D01*
X035150Y023450D02*
X035127Y023427D01*
X034567Y023427D01*
X034650Y022750D02*
X034104Y022750D01*
X034650Y022750D02*
X034750Y022650D01*
X031850Y023450D02*
X031827Y023427D01*
X031267Y023427D01*
X031350Y022750D02*
X030804Y022750D01*
X031350Y022750D02*
X031450Y022650D01*
X028650Y023450D02*
X028627Y023427D01*
X028067Y023427D01*
X028150Y022750D02*
X027604Y022750D01*
X028150Y022750D02*
X028250Y022650D01*
X029633Y024273D02*
X029950Y024590D01*
X024500Y020080D02*
X024500Y019500D01*
X024550Y019450D01*
X019596Y016400D02*
X018700Y016400D01*
X018650Y016450D01*
X018650Y015950D02*
X018700Y015900D01*
X019596Y015900D01*
X019596Y015400D02*
X018700Y015400D01*
X018650Y015450D01*
X023050Y014450D02*
X023050Y013250D01*
X023250Y013050D01*
X023700Y013050D01*
X024200Y013050D02*
X024250Y013050D01*
X024450Y012850D01*
X023700Y012550D02*
X023250Y012550D01*
X023050Y012350D01*
X023050Y011250D01*
X023350Y010950D01*
X024250Y010950D01*
X026350Y013050D01*
X023650Y015050D02*
X023050Y014450D01*
X023650Y015050D02*
X026350Y015050D01*
X033765Y015994D02*
X033765Y017167D01*
X033767Y017191D01*
X033772Y017214D01*
X033781Y017236D01*
X033794Y017256D01*
X033809Y017274D01*
X033827Y017289D01*
X033847Y017302D01*
X033869Y017311D01*
X033892Y017316D01*
X033916Y017318D01*
X034318Y017318D01*
X034450Y017450D01*
X034450Y017900D02*
X034324Y018026D01*
X033916Y018026D01*
X034501Y018970D02*
X035130Y018970D01*
X035200Y018950D01*
X038350Y018330D02*
X038350Y017950D01*
X038450Y017850D01*
X039741Y017850D01*
X040800Y016791D01*
X040800Y016495D01*
X040800Y015905D02*
X040800Y013770D01*
X041300Y013770D02*
X041300Y014705D01*
X042300Y014705D02*
X042300Y013770D01*
X041800Y013770D02*
X041800Y015905D01*
X042800Y015905D02*
X042800Y013770D01*
X046650Y013570D02*
X046650Y014350D01*
X048650Y014650D02*
X048650Y013570D01*
X049150Y013570D02*
X049150Y014450D01*
X049550Y014850D01*
X050050Y014850D01*
X050550Y015350D01*
X050550Y016595D01*
X050050Y016595D02*
X049650Y016595D01*
X050050Y016595D02*
X050050Y017480D01*
X049050Y017480D02*
X049050Y018150D01*
X051050Y018150D02*
X051050Y017480D01*
X050050Y016595D02*
X050050Y015450D01*
X049850Y015250D01*
X049250Y015250D01*
X048650Y014650D01*
X049125Y015550D02*
X049300Y015550D01*
X049525Y015550D01*
X049650Y015675D01*
X049650Y016005D01*
X049000Y015999D02*
X049000Y015675D01*
X049125Y015550D01*
X047622Y015999D02*
X047299Y015999D01*
X047150Y015850D01*
X042800Y016495D02*
X042800Y017400D01*
X042350Y017850D01*
X042350Y018330D01*
X043350Y018330D02*
X043350Y018950D01*
X041350Y018950D02*
X041350Y018330D01*
X040690Y017850D02*
X040450Y017850D01*
X040350Y017950D01*
X040350Y018330D01*
X039350Y018330D02*
X039350Y018950D01*
X040690Y017850D02*
X041800Y016740D01*
X041800Y016495D01*
X042350Y020770D02*
X042770Y020770D01*
X042850Y020850D01*
X042850Y026450D01*
X043150Y026750D01*
X043350Y025950D02*
X044150Y026750D01*
X044850Y026450D02*
X045150Y026750D01*
X044850Y026450D02*
X044850Y020850D01*
X044770Y020770D01*
X044350Y020770D01*
X044350Y021830D02*
X044350Y022450D01*
X043350Y024270D02*
X043350Y025950D01*
X042150Y026750D02*
X041350Y025950D01*
X041350Y024270D01*
X039350Y024270D02*
X039350Y025950D01*
X040150Y026750D01*
X040850Y026450D02*
X041150Y026750D01*
X040850Y026450D02*
X040850Y020950D01*
X040670Y020770D01*
X040350Y020770D01*
X048050Y023750D02*
X048050Y023955D01*
X048050Y024545D02*
X048050Y025950D01*
X048850Y026750D01*
X049050Y025950D02*
X049850Y026750D01*
X050050Y025950D02*
X050850Y026750D01*
X051050Y025950D02*
X051850Y026750D01*
X052050Y025950D02*
X052850Y026750D01*
X053050Y025950D02*
X053850Y026750D01*
X054050Y025950D02*
X054850Y026750D01*
X055050Y025950D02*
X055850Y026750D01*
X055050Y025950D02*
X055050Y024545D01*
X054050Y024545D02*
X054050Y025950D01*
X053050Y025950D02*
X053050Y024545D01*
X052050Y024545D02*
X052050Y025950D01*
X051050Y025950D02*
X051050Y024545D01*
X051050Y023955D02*
X051050Y023070D01*
X053550Y023250D02*
X054050Y023750D01*
X054050Y023955D01*
X055050Y023955D02*
X055050Y023070D01*
X056350Y022250D02*
X056350Y019650D01*
X056700Y019300D01*
X057042Y019300D01*
X057200Y019142D01*
X057200Y018665D01*
X056700Y018665D02*
X056700Y019300D01*
X057050Y019750D02*
X056750Y020050D01*
X056750Y020445D01*
X056755Y020450D01*
X056755Y021050D01*
X057345Y021050D02*
X057345Y022245D01*
X057350Y022250D01*
X057345Y020450D02*
X058950Y020450D01*
X057700Y019400D02*
X057350Y019750D01*
X057050Y019750D01*
X057700Y019400D02*
X057700Y018665D01*
X058200Y018665D02*
X058200Y015600D01*
X058850Y014950D01*
X058850Y013950D01*
X058399Y013499D01*
X058399Y012750D01*
X058576Y012573D01*
X058576Y011681D01*
X059324Y011681D02*
X059324Y012624D01*
X059450Y012750D01*
X059501Y012750D01*
X059450Y012750D02*
X059324Y012750D01*
X059324Y013424D01*
X059750Y013850D01*
X058200Y013800D02*
X058200Y014435D01*
X057700Y014435D02*
X057700Y014000D01*
X057200Y013500D01*
X057200Y009800D01*
X057150Y009750D01*
X056785Y009750D01*
X056745Y009750D01*
X056745Y009050D01*
X056155Y009050D02*
X056139Y009066D01*
X055196Y009066D01*
X054685Y008615D02*
X054685Y008350D01*
X055150Y008350D01*
X055250Y008250D01*
X054685Y008615D02*
X053978Y009322D01*
X053504Y009322D01*
X053504Y009066D02*
X052666Y009066D01*
X052650Y009050D01*
X053504Y009066D02*
X053834Y009066D01*
X054015Y008885D01*
X054015Y008350D01*
X052700Y009800D02*
X052850Y009950D01*
X052450Y010550D02*
X052450Y011115D01*
X052550Y012750D02*
X052750Y012950D01*
X053148Y012950D01*
X053148Y013147D02*
X053145Y013150D01*
X052354Y013150D01*
X052550Y013650D02*
X052856Y013344D01*
X053148Y013344D01*
X053453Y013452D02*
X053453Y014350D01*
X053550Y014350D01*
X053453Y014350D02*
X053453Y014447D01*
X053296Y014604D01*
X053050Y014604D01*
X053050Y013896D02*
X052704Y013896D01*
X052550Y013900D01*
X052550Y013650D01*
X051350Y013750D02*
X051350Y009650D01*
X050750Y009050D01*
X048950Y009050D01*
X056115Y009750D02*
X056150Y009785D01*
X056150Y010250D01*
X058399Y009350D02*
X058399Y008499D01*
X058250Y008350D01*
X059501Y008599D02*
X059750Y008350D01*
X059501Y008599D02*
X059501Y009350D01*
X059324Y009527D01*
X059324Y010619D01*
X059324Y011681D01*
X057550Y012550D02*
X057535Y012565D01*
X057535Y013150D01*
X057535Y013535D01*
X057650Y013650D01*
X058050Y013650D01*
X058200Y013800D01*
X057200Y013900D02*
X057200Y014435D01*
X056700Y014435D02*
X056700Y013700D01*
X056850Y013550D01*
X056850Y013165D01*
X056865Y013150D01*
X056850Y013165D02*
X056850Y012650D01*
X056750Y012550D01*
X055004Y013147D02*
X054152Y013147D01*
X054152Y013344D02*
X055004Y013344D01*
X054050Y013950D02*
X053847Y013747D01*
X053847Y013452D01*
X054050Y013950D02*
X054296Y013950D01*
X054296Y014650D01*
X053850Y014650D01*
X056850Y013550D02*
X057200Y013900D01*
X058576Y010619D02*
X058576Y009627D01*
X058399Y009350D01*
X059467Y007833D02*
X040133Y007833D01*
X040035Y007735D02*
X059550Y007735D01*
X059550Y007636D02*
X039936Y007636D01*
X039838Y007538D02*
X059550Y007538D01*
X059550Y007439D02*
X039739Y007439D01*
X039650Y007341D02*
X059550Y007341D01*
X059550Y007242D02*
X039650Y007242D01*
X039650Y007144D02*
X059550Y007144D01*
X059550Y007045D02*
X039650Y007045D01*
X039650Y006947D02*
X059550Y006947D01*
X059550Y006848D02*
X039650Y006848D01*
X039650Y006750D02*
X059550Y006750D01*
X059550Y006651D02*
X039650Y006651D01*
X039650Y006553D02*
X059550Y006553D01*
X059550Y006454D02*
X039650Y006454D01*
X039650Y006356D02*
X059550Y006356D01*
X059550Y006257D02*
X039650Y006257D01*
X039650Y006159D02*
X059550Y006159D01*
X059550Y006060D02*
X039650Y006060D01*
X039650Y005962D02*
X059550Y005962D01*
X059550Y005863D02*
X039650Y005863D01*
X039650Y005765D02*
X059465Y005765D01*
X038950Y005765D02*
X026150Y005765D01*
X026150Y005863D02*
X038950Y005863D01*
X038950Y005962D02*
X026150Y005962D01*
X026150Y006060D02*
X038950Y006060D01*
X038950Y006159D02*
X026150Y006159D01*
X026150Y006257D02*
X038950Y006257D01*
X038950Y006356D02*
X026150Y006356D01*
X026150Y006454D02*
X038950Y006454D01*
X038950Y006553D02*
X026150Y006553D01*
X026150Y006651D02*
X038950Y006651D01*
X038950Y006750D02*
X026150Y006750D01*
X026550Y007150D01*
X038550Y007150D01*
X038950Y006750D01*
X038950Y004850D01*
X038550Y004450D01*
X026550Y004450D01*
X026150Y004850D01*
X026150Y006750D01*
X026248Y006848D02*
X038852Y006848D01*
X038753Y006947D02*
X026347Y006947D01*
X026445Y007045D02*
X038655Y007045D01*
X038556Y007144D02*
X026544Y007144D01*
X024035Y005765D02*
X021835Y005765D01*
X021737Y005863D02*
X023937Y005863D01*
X023838Y005962D02*
X021638Y005962D01*
X021540Y006060D02*
X023740Y006060D01*
X023641Y006159D02*
X021441Y006159D01*
X021343Y006257D02*
X023543Y006257D01*
X023444Y006356D02*
X021244Y006356D01*
X021146Y006454D02*
X023346Y006454D01*
X023247Y006553D02*
X021047Y006553D01*
X020950Y006650D02*
X017450Y006650D01*
X017450Y008750D01*
X021050Y008750D01*
X026150Y003650D01*
X028950Y003650D01*
X028950Y000370D01*
X027230Y000370D01*
X020950Y006650D01*
X020859Y006430D02*
X022850Y004439D01*
X022850Y000550D01*
X021370Y000550D01*
X021370Y002841D01*
X021241Y002970D01*
X014541Y002970D01*
X014320Y003191D01*
X014320Y005330D01*
X014667Y005330D01*
X014767Y005430D01*
X014767Y005754D01*
X015283Y005754D01*
X015362Y005746D01*
X015373Y005754D01*
X015387Y005754D01*
X015416Y005783D01*
X015602Y005783D01*
X015650Y005831D01*
X015698Y005783D01*
X016272Y005783D01*
X016371Y005883D01*
X016371Y006417D01*
X016358Y006430D01*
X020859Y006430D01*
X020933Y006356D02*
X016371Y006356D01*
X016371Y006257D02*
X021032Y006257D01*
X021130Y006159D02*
X016371Y006159D01*
X016371Y006060D02*
X021229Y006060D01*
X021327Y005962D02*
X016371Y005962D01*
X016351Y005863D02*
X021426Y005863D01*
X021524Y005765D02*
X015397Y005765D01*
X015296Y005974D02*
X015315Y006150D01*
X015296Y005974D02*
X014418Y005974D01*
X014767Y005666D02*
X021623Y005666D01*
X021721Y005568D02*
X014767Y005568D01*
X014767Y005469D02*
X021820Y005469D01*
X021918Y005371D02*
X014708Y005371D01*
X014320Y005272D02*
X022017Y005272D01*
X022115Y005174D02*
X014320Y005174D01*
X014320Y005075D02*
X022214Y005075D01*
X022312Y004977D02*
X014320Y004977D01*
X014320Y004878D02*
X022411Y004878D01*
X022509Y004780D02*
X014320Y004780D01*
X014320Y004681D02*
X022608Y004681D01*
X022706Y004583D02*
X014320Y004583D01*
X014320Y004484D02*
X022805Y004484D01*
X022850Y004386D02*
X014320Y004386D01*
X014320Y004287D02*
X022850Y004287D01*
X022850Y004189D02*
X014320Y004189D01*
X014320Y004090D02*
X022850Y004090D01*
X022850Y003992D02*
X014320Y003992D01*
X014320Y003893D02*
X022850Y003893D01*
X022850Y003795D02*
X014320Y003795D01*
X014320Y003696D02*
X022850Y003696D01*
X022850Y003598D02*
X014320Y003598D01*
X014320Y003499D02*
X022850Y003499D01*
X022850Y003401D02*
X014320Y003401D01*
X014320Y003302D02*
X022850Y003302D01*
X022850Y003204D02*
X014320Y003204D01*
X014406Y003105D02*
X022850Y003105D01*
X022850Y003007D02*
X014505Y003007D01*
X013530Y003007D02*
X005966Y003007D01*
X005868Y003105D02*
X013530Y003105D01*
X013530Y003204D02*
X005769Y003204D01*
X005671Y003302D02*
X013530Y003302D01*
X013530Y003401D02*
X005572Y003401D01*
X005474Y003499D02*
X013530Y003499D01*
X013530Y003598D02*
X005375Y003598D01*
X005277Y003696D02*
X013530Y003696D01*
X013530Y003795D02*
X005178Y003795D01*
X005080Y003893D02*
X013530Y003893D01*
X013530Y003992D02*
X004981Y003992D01*
X004883Y004090D02*
X013530Y004090D01*
X013530Y004189D02*
X004784Y004189D01*
X004686Y004287D02*
X013530Y004287D01*
X013530Y004583D02*
X012602Y004583D01*
X012602Y004681D02*
X013530Y004681D01*
X013530Y004780D02*
X012602Y004780D01*
X012602Y004878D02*
X013530Y004878D01*
X013530Y004977D02*
X012602Y004977D01*
X012602Y005075D02*
X013530Y005075D01*
X013530Y005174D02*
X012602Y005174D01*
X012638Y005272D02*
X013530Y005272D01*
X013128Y005371D02*
X012708Y005371D01*
X012767Y005469D02*
X013069Y005469D01*
X013069Y005568D02*
X012767Y005568D01*
X012767Y005666D02*
X013069Y005666D01*
X013069Y005765D02*
X012767Y005765D01*
X012767Y005863D02*
X013069Y005863D01*
X013069Y005962D02*
X012767Y005962D01*
X012767Y006060D02*
X013069Y006060D01*
X013069Y006159D02*
X012767Y006159D01*
X012767Y006257D02*
X013069Y006257D01*
X013069Y006356D02*
X012767Y006356D01*
X013640Y006651D02*
X011660Y006651D01*
X011759Y006553D02*
X012050Y006553D01*
X012050Y006454D02*
X011770Y006454D01*
X011770Y006356D02*
X012050Y006356D01*
X012050Y006257D02*
X011770Y006257D01*
X011770Y006159D02*
X012050Y006159D01*
X012050Y006060D02*
X011770Y006060D01*
X011770Y005962D02*
X012050Y005962D01*
X012050Y005863D02*
X011770Y005863D01*
X011770Y005765D02*
X012050Y005765D01*
X012050Y005666D02*
X011770Y005666D01*
X011770Y005568D02*
X012050Y005568D01*
X012041Y005272D02*
X011799Y005272D01*
X011893Y005174D02*
X011947Y005174D01*
X011947Y005075D02*
X011893Y005075D01*
X011893Y004977D02*
X011947Y004977D01*
X012274Y004871D02*
X012274Y005174D01*
X012418Y005318D01*
X012418Y005974D01*
X010872Y005272D02*
X005728Y005272D01*
X005826Y005174D02*
X010774Y005174D01*
X010675Y005075D02*
X005925Y005075D01*
X006023Y004977D02*
X010577Y004977D01*
X013530Y002908D02*
X006065Y002908D01*
X006163Y002810D02*
X013530Y002810D01*
X013530Y002711D02*
X006262Y002711D01*
X006360Y002613D02*
X013530Y002613D01*
X013503Y002514D02*
X006459Y002514D01*
X006557Y002416D02*
X013404Y002416D01*
X013306Y002317D02*
X006656Y002317D01*
X006754Y002219D02*
X013207Y002219D01*
X013109Y002120D02*
X006853Y002120D01*
X007350Y001825D02*
X008875Y001825D01*
X008974Y001726D02*
X007350Y001726D01*
X008990Y002022D02*
X013010Y002022D01*
X012912Y001923D02*
X009088Y001923D01*
X005909Y004780D02*
X004193Y004780D01*
X004095Y004878D02*
X005811Y004878D01*
X005712Y004977D02*
X003996Y004977D01*
X003898Y005075D02*
X005614Y005075D01*
X005515Y005174D02*
X003799Y005174D01*
X003701Y005272D02*
X005417Y005272D01*
X005318Y005371D02*
X003602Y005371D01*
X003504Y005469D02*
X005220Y005469D01*
X005121Y005568D02*
X003405Y005568D01*
X003307Y005666D02*
X005023Y005666D01*
X004924Y005765D02*
X003208Y005765D01*
X003110Y005863D02*
X004826Y005863D01*
X004727Y005962D02*
X003011Y005962D01*
X002913Y006060D02*
X004629Y006060D01*
X004530Y006159D02*
X002870Y006159D01*
X002870Y006257D02*
X004530Y006257D01*
X009272Y007439D02*
X009330Y007439D01*
X009330Y007538D02*
X009270Y007538D01*
X009270Y007636D02*
X009330Y007636D01*
X009330Y007735D02*
X009270Y007735D01*
X009270Y007833D02*
X009330Y007833D01*
X009330Y007932D02*
X009270Y007932D01*
X009270Y008030D02*
X009330Y008030D01*
X009330Y008129D02*
X009270Y008129D01*
X009270Y008227D02*
X009330Y008227D01*
X009330Y008326D02*
X009270Y008326D01*
X009270Y008424D02*
X009330Y008424D01*
X009330Y008523D02*
X009270Y008523D01*
X009270Y008621D02*
X009330Y008621D01*
X009330Y008720D02*
X009270Y008720D01*
X009270Y008818D02*
X009407Y008818D01*
X009550Y008621D02*
X010650Y008621D01*
X010650Y008523D02*
X009550Y008523D01*
X009550Y008424D02*
X010650Y008424D01*
X010650Y008326D02*
X009550Y008326D01*
X009550Y008227D02*
X010650Y008227D01*
X010650Y008129D02*
X009550Y008129D01*
X009550Y008030D02*
X010650Y008030D01*
X010650Y007932D02*
X009550Y007932D01*
X009550Y007833D02*
X010650Y007833D01*
X010665Y007735D02*
X009550Y007735D01*
X009550Y007636D02*
X010764Y007636D01*
X010862Y007538D02*
X009550Y007538D01*
X010878Y007833D02*
X013922Y007833D01*
X014020Y007932D02*
X010870Y007932D01*
X010870Y008030D02*
X014119Y008030D01*
X014217Y008129D02*
X010870Y008129D01*
X010870Y008227D02*
X014316Y008227D01*
X014414Y008326D02*
X010870Y008326D01*
X010870Y008424D02*
X014513Y008424D01*
X014611Y008523D02*
X010870Y008523D01*
X010870Y008621D02*
X014710Y008621D01*
X014808Y008720D02*
X010870Y008720D01*
X010803Y008818D02*
X014907Y008818D01*
X013823Y007735D02*
X010977Y007735D01*
X015950Y007150D02*
X016004Y007096D01*
X015985Y006150D01*
X017450Y006651D02*
X023149Y006651D01*
X023050Y006750D02*
X017450Y006750D01*
X017450Y006848D02*
X022952Y006848D01*
X022853Y006947D02*
X017450Y006947D01*
X017450Y007045D02*
X022755Y007045D01*
X022656Y007144D02*
X017450Y007144D01*
X017450Y007242D02*
X022558Y007242D01*
X022459Y007341D02*
X017450Y007341D01*
X017450Y007439D02*
X022361Y007439D01*
X022262Y007538D02*
X017450Y007538D01*
X017450Y007636D02*
X022164Y007636D01*
X022065Y007735D02*
X017450Y007735D01*
X017450Y007833D02*
X021967Y007833D01*
X021868Y007932D02*
X017450Y007932D01*
X017450Y008030D02*
X021770Y008030D01*
X021671Y008129D02*
X017450Y008129D01*
X017450Y008227D02*
X021573Y008227D01*
X021474Y008326D02*
X017450Y008326D01*
X017450Y008424D02*
X021376Y008424D01*
X021277Y008523D02*
X017450Y008523D01*
X017450Y008621D02*
X021179Y008621D01*
X021080Y008720D02*
X017450Y008720D01*
X021934Y005666D02*
X024134Y005666D01*
X024232Y005568D02*
X022032Y005568D01*
X022131Y005469D02*
X024331Y005469D01*
X024429Y005371D02*
X022229Y005371D01*
X022328Y005272D02*
X024528Y005272D01*
X024626Y005174D02*
X022426Y005174D01*
X022525Y005075D02*
X024725Y005075D01*
X024823Y004977D02*
X022623Y004977D01*
X022722Y004878D02*
X024922Y004878D01*
X025020Y004780D02*
X022820Y004780D01*
X022919Y004681D02*
X025119Y004681D01*
X025217Y004583D02*
X023017Y004583D01*
X023116Y004484D02*
X025316Y004484D01*
X025414Y004386D02*
X023214Y004386D01*
X023313Y004287D02*
X025513Y004287D01*
X025611Y004189D02*
X023411Y004189D01*
X023510Y004090D02*
X025710Y004090D01*
X025808Y003992D02*
X023608Y003992D01*
X023707Y003893D02*
X025907Y003893D01*
X026005Y003795D02*
X023805Y003795D01*
X023904Y003696D02*
X026104Y003696D01*
X026516Y004484D02*
X038584Y004484D01*
X038683Y004583D02*
X026417Y004583D01*
X026319Y004681D02*
X038781Y004681D01*
X038880Y004780D02*
X026220Y004780D01*
X026150Y004878D02*
X038950Y004878D01*
X038950Y004977D02*
X026150Y004977D01*
X026150Y005075D02*
X038950Y005075D01*
X038950Y005174D02*
X026150Y005174D01*
X026150Y005272D02*
X038950Y005272D01*
X038950Y005371D02*
X026150Y005371D01*
X026150Y005469D02*
X038950Y005469D01*
X038950Y005568D02*
X026150Y005568D01*
X026150Y005666D02*
X038950Y005666D01*
X038550Y003650D02*
X038950Y003250D01*
X038950Y000733D01*
X038587Y000370D01*
X028562Y000370D01*
X028150Y000782D01*
X028150Y003250D01*
X028550Y003650D01*
X038550Y003650D01*
X038602Y003598D02*
X028498Y003598D01*
X028399Y003499D02*
X038701Y003499D01*
X038799Y003401D02*
X028301Y003401D01*
X028202Y003302D02*
X038898Y003302D01*
X038950Y003204D02*
X028150Y003204D01*
X028150Y003105D02*
X038950Y003105D01*
X038950Y003007D02*
X028150Y003007D01*
X028150Y002908D02*
X038950Y002908D01*
X038950Y002810D02*
X028150Y002810D01*
X028150Y002711D02*
X038950Y002711D01*
X038950Y002613D02*
X028150Y002613D01*
X028150Y002514D02*
X038950Y002514D01*
X038950Y002416D02*
X028150Y002416D01*
X028150Y002317D02*
X038950Y002317D01*
X038950Y002219D02*
X028150Y002219D01*
X028150Y002120D02*
X038950Y002120D01*
X038950Y002022D02*
X028150Y002022D01*
X028150Y001923D02*
X038950Y001923D01*
X038950Y001825D02*
X028150Y001825D01*
X028150Y001726D02*
X038950Y001726D01*
X038950Y001628D02*
X028150Y001628D01*
X028150Y001529D02*
X038950Y001529D01*
X038950Y001431D02*
X028150Y001431D01*
X028150Y001332D02*
X038950Y001332D01*
X038950Y001234D02*
X028150Y001234D01*
X028150Y001135D02*
X038950Y001135D01*
X038950Y001037D02*
X028150Y001037D01*
X028150Y000938D02*
X038950Y000938D01*
X038950Y000840D02*
X028150Y000840D01*
X028191Y000741D02*
X038950Y000741D01*
X038859Y000643D02*
X028290Y000643D01*
X028388Y000544D02*
X038761Y000544D01*
X038662Y000446D02*
X028487Y000446D01*
X028950Y000446D02*
X027154Y000446D01*
X027056Y000544D02*
X028950Y000544D01*
X028950Y000643D02*
X026957Y000643D01*
X026859Y000741D02*
X028950Y000741D01*
X028950Y000840D02*
X026760Y000840D01*
X026662Y000938D02*
X028950Y000938D01*
X028950Y001037D02*
X026563Y001037D01*
X026465Y001135D02*
X028950Y001135D01*
X028950Y001234D02*
X026366Y001234D01*
X026268Y001332D02*
X028950Y001332D01*
X028950Y001431D02*
X026169Y001431D01*
X026071Y001529D02*
X028950Y001529D01*
X028950Y001628D02*
X025972Y001628D01*
X025874Y001726D02*
X028950Y001726D01*
X028950Y001825D02*
X025775Y001825D01*
X025677Y001923D02*
X028950Y001923D01*
X028950Y002022D02*
X025578Y002022D01*
X025480Y002120D02*
X028950Y002120D01*
X028950Y002219D02*
X025381Y002219D01*
X025283Y002317D02*
X028950Y002317D01*
X028950Y002416D02*
X025184Y002416D01*
X025086Y002514D02*
X028950Y002514D01*
X028950Y002613D02*
X024987Y002613D01*
X024889Y002711D02*
X028950Y002711D01*
X028950Y002810D02*
X024790Y002810D01*
X024692Y002908D02*
X028950Y002908D01*
X028950Y003007D02*
X024593Y003007D01*
X024495Y003105D02*
X028950Y003105D01*
X028950Y003204D02*
X024396Y003204D01*
X024298Y003302D02*
X028950Y003302D01*
X028950Y003401D02*
X024199Y003401D01*
X024101Y003499D02*
X028950Y003499D01*
X028950Y003598D02*
X024002Y003598D01*
X022850Y002908D02*
X021303Y002908D01*
X021370Y002810D02*
X022850Y002810D01*
X022850Y002711D02*
X021370Y002711D01*
X021370Y002613D02*
X022850Y002613D01*
X022850Y002514D02*
X021370Y002514D01*
X021370Y002416D02*
X022850Y002416D01*
X022850Y002317D02*
X021370Y002317D01*
X021370Y002219D02*
X022850Y002219D01*
X022850Y002120D02*
X021370Y002120D01*
X021370Y002022D02*
X022850Y002022D01*
X022850Y001923D02*
X021370Y001923D01*
X021370Y001825D02*
X022850Y001825D01*
X022850Y001726D02*
X021370Y001726D01*
X021370Y001628D02*
X022850Y001628D01*
X022850Y001529D02*
X021370Y001529D01*
X021370Y001431D02*
X022850Y001431D01*
X022850Y001332D02*
X021370Y001332D01*
X021370Y001234D02*
X022850Y001234D01*
X022850Y001135D02*
X021370Y001135D01*
X021370Y001037D02*
X022850Y001037D01*
X022850Y000938D02*
X021370Y000938D01*
X021370Y000840D02*
X022850Y000840D01*
X022850Y000741D02*
X021370Y000741D01*
X021370Y000643D02*
X022850Y000643D01*
X032950Y008550D02*
X033415Y008550D01*
X034085Y008550D02*
X034104Y009350D01*
X033850Y009350D01*
X033765Y009435D01*
X033765Y011506D01*
X034080Y011506D02*
X034080Y010174D01*
X034426Y010174D01*
X034550Y010050D01*
X033450Y010204D02*
X033450Y010750D01*
X033287Y010750D01*
X033135Y010902D01*
X033135Y011506D01*
X033450Y011506D02*
X033450Y010750D01*
X033450Y010204D02*
X033396Y010150D01*
X033150Y010150D01*
X032950Y009950D01*
X032950Y009350D02*
X033396Y009350D01*
X032060Y019970D02*
X031420Y019970D01*
X031400Y019950D01*
X049050Y024545D02*
X049050Y025950D01*
X050050Y025950D02*
X050050Y024545D01*
X002150Y028150D02*
X002063Y028148D01*
X001976Y028142D01*
X001889Y028133D01*
X001803Y028120D01*
X001717Y028103D01*
X001632Y028082D01*
X001549Y028057D01*
X001466Y028029D01*
X001385Y027998D01*
X001305Y027963D01*
X001227Y027924D01*
X001150Y027882D01*
X001075Y027837D01*
X001003Y027788D01*
X000932Y027737D01*
X000864Y027682D01*
X000799Y027625D01*
X000736Y027564D01*
X000675Y027501D01*
X000618Y027436D01*
X000563Y027368D01*
X000512Y027297D01*
X000463Y027225D01*
X000418Y027150D01*
X000376Y027073D01*
X000337Y026995D01*
X000302Y026915D01*
X000271Y026834D01*
X000243Y026751D01*
X000218Y026668D01*
X000197Y026583D01*
X000180Y026497D01*
X000167Y026411D01*
X000158Y026324D01*
X000152Y026237D01*
X000150Y026150D01*
X000150Y002150D01*
X000152Y002063D01*
X000158Y001976D01*
X000167Y001889D01*
X000180Y001803D01*
X000197Y001717D01*
X000218Y001632D01*
X000243Y001549D01*
X000271Y001466D01*
X000302Y001385D01*
X000337Y001305D01*
X000376Y001227D01*
X000418Y001150D01*
X000463Y001075D01*
X000512Y001003D01*
X000563Y000932D01*
X000618Y000864D01*
X000675Y000799D01*
X000736Y000736D01*
X000799Y000675D01*
X000864Y000618D01*
X000932Y000563D01*
X001003Y000512D01*
X001075Y000463D01*
X001150Y000418D01*
X001227Y000376D01*
X001305Y000337D01*
X001385Y000302D01*
X001466Y000271D01*
X001549Y000243D01*
X001632Y000218D01*
X001717Y000197D01*
X001803Y000180D01*
X001889Y000167D01*
X001976Y000158D01*
X002063Y000152D01*
X002150Y000150D01*
D11*
X011566Y004871D03*
X012274Y004871D03*
X033396Y009350D03*
X034104Y009350D03*
X034104Y010150D03*
X033396Y010150D03*
X021204Y017650D03*
X020496Y017650D03*
X009731Y016446D03*
X009022Y016446D03*
X004339Y016044D03*
X003630Y016044D03*
X014596Y023100D03*
X015304Y023100D03*
X017696Y023100D03*
X018404Y023100D03*
X020796Y023100D03*
X021504Y023100D03*
X023896Y023050D03*
X024604Y023050D03*
X026896Y022750D03*
X027604Y022750D03*
X030096Y022750D03*
X030804Y022750D03*
X033396Y022750D03*
X034104Y022750D03*
X037350Y021830D03*
X038350Y021830D03*
X039350Y021830D03*
X040350Y021830D03*
X041350Y021830D03*
X042350Y021830D03*
X043350Y021830D03*
X044350Y021830D03*
X044350Y020770D03*
X045350Y020770D03*
X047050Y019920D03*
X048050Y019920D03*
X048050Y020630D03*
X049050Y020630D03*
X050050Y020630D03*
X050050Y019920D03*
X049050Y019920D03*
X051050Y019920D03*
X051050Y020630D03*
X052050Y020630D03*
X053050Y020630D03*
X053050Y019920D03*
X052050Y019920D03*
X054050Y019920D03*
X054050Y020630D03*
X055050Y020630D03*
X055050Y023070D03*
X054050Y023070D03*
X053050Y023070D03*
X052050Y023070D03*
X051050Y023070D03*
X050050Y023070D03*
X049050Y023070D03*
X048050Y023070D03*
X044350Y024270D03*
X043350Y024270D03*
X042350Y024270D03*
X041350Y024270D03*
X040350Y024270D03*
X039350Y024270D03*
X038350Y024270D03*
X037350Y024270D03*
X038350Y020770D03*
X039350Y020770D03*
X040350Y020770D03*
X041350Y020770D03*
X042350Y020770D03*
X043350Y020770D03*
X043350Y018330D03*
X042350Y018330D03*
X041350Y018330D03*
X040350Y018330D03*
X039350Y018330D03*
X038350Y018330D03*
X044350Y018330D03*
X045350Y018330D03*
X047050Y017480D03*
X048050Y017480D03*
X049050Y017480D03*
X050050Y017480D03*
X051050Y017480D03*
X052050Y017480D03*
X053050Y017480D03*
X054050Y017480D03*
X054296Y014650D03*
X055004Y014650D03*
X055004Y013950D03*
X054296Y013950D03*
X052354Y013150D03*
X051646Y013150D03*
X050254Y010200D03*
X049546Y010200D03*
D12*
X054250Y011096D03*
X054250Y011804D03*
X053050Y013896D03*
X053050Y014604D03*
X039150Y012904D03*
X039150Y012196D03*
X036900Y013546D03*
X036900Y014254D03*
X033916Y017318D03*
X033916Y018026D03*
X032650Y018004D03*
X032650Y017296D03*
X030050Y013954D03*
X030050Y013246D03*
X021350Y014096D03*
X021350Y014804D03*
X020550Y014804D03*
X020550Y014096D03*
X019450Y020696D03*
X019450Y021404D03*
X016350Y021404D03*
X016350Y020696D03*
X022550Y020696D03*
X022550Y021404D03*
X025650Y021404D03*
X025650Y020696D03*
X016709Y006923D03*
X016709Y006214D03*
D13*
X015985Y006150D03*
X015315Y006150D03*
X033415Y008550D03*
X034085Y008550D03*
X054015Y008350D03*
X054685Y008350D03*
X056115Y009750D03*
X056785Y009750D03*
X056865Y013150D03*
X057535Y013150D03*
X010485Y015650D03*
X009815Y015650D03*
D14*
X054214Y006673D03*
X054214Y004252D03*
D15*
X043169Y005578D03*
X043169Y002523D03*
X030149Y002523D03*
X030149Y005578D03*
X020422Y004629D03*
X020422Y001574D03*
D16*
X038385Y001968D03*
X040236Y001968D03*
X040236Y006063D03*
X038385Y006063D03*
D17*
X052246Y001678D03*
D18*
X055056Y000788D03*
X055056Y002568D03*
D19*
X048349Y003070D02*
X047689Y003070D01*
X047689Y005039D02*
X048349Y005039D01*
X035255Y005039D02*
X034595Y005039D01*
X034595Y003070D02*
X035255Y003070D01*
D20*
X003627Y017179D03*
X003627Y018085D03*
X003627Y018990D03*
D21*
X005950Y018085D03*
D22*
X008826Y017930D03*
X009928Y017930D03*
X004636Y015028D03*
X003533Y015028D03*
X004799Y023950D03*
X005901Y023950D03*
X058399Y012750D03*
X059501Y012750D03*
X059501Y009350D03*
X058399Y009350D03*
D23*
X006647Y021159D03*
X004600Y021159D03*
D24*
X011237Y015650D03*
X012063Y015650D03*
D25*
X008150Y020450D03*
X026700Y005533D03*
X032350Y001275D03*
X045496Y001275D03*
X045649Y007133D03*
X013550Y001350D03*
D26*
X006878Y009098D03*
D27*
X005894Y012983D03*
X007863Y012998D03*
D28*
X008063Y005684D03*
X008063Y001224D03*
D29*
X016591Y001559D03*
X016591Y004748D03*
D30*
X011650Y002301D03*
X011650Y001199D03*
X010154Y008400D03*
X010154Y009502D03*
X015732Y009502D03*
X017110Y009502D03*
X017110Y008400D03*
X015732Y008400D03*
D31*
X015700Y020080D03*
X015200Y020080D03*
X014700Y020080D03*
X014200Y020080D03*
X017300Y020080D03*
X017800Y020080D03*
X018300Y020080D03*
X018800Y020080D03*
X020400Y020080D03*
X020900Y020080D03*
X021400Y020080D03*
X021900Y020080D03*
X023500Y020080D03*
X024000Y020080D03*
X024500Y020080D03*
X025000Y020080D03*
X025000Y022020D03*
X024500Y022020D03*
X024000Y022020D03*
X023500Y022020D03*
X021900Y022020D03*
X021400Y022020D03*
X020900Y022020D03*
X020400Y022020D03*
X018800Y022020D03*
X018300Y022020D03*
X017800Y022020D03*
X017300Y022020D03*
X015700Y022020D03*
X015200Y022020D03*
X014700Y022020D03*
X014200Y022020D03*
D32*
X014576Y024017D03*
X015324Y024017D03*
X014950Y024883D03*
X017676Y024017D03*
X018424Y024017D03*
X018050Y024883D03*
X020776Y024017D03*
X021524Y024017D03*
X021150Y024883D03*
X023876Y024017D03*
X024624Y024017D03*
X024250Y024883D03*
D33*
X022104Y016900D03*
X022104Y016400D03*
X022104Y015900D03*
X022104Y015400D03*
X019596Y015400D03*
X019596Y015900D03*
X019596Y016400D03*
X019596Y016900D03*
D34*
X003150Y023850D03*
X058850Y008550D03*
D35*
X034540Y019970D03*
X032060Y019970D03*
X032060Y018970D03*
D36*
X034501Y018970D03*
D37*
X034395Y015698D02*
X034395Y015698D01*
X034395Y016290D01*
X034395Y016290D01*
X034395Y015698D01*
X034395Y015854D02*
X034395Y015854D01*
X034395Y016010D02*
X034395Y016010D01*
X034395Y016166D02*
X034395Y016166D01*
X034710Y015698D02*
X034710Y015698D01*
X034710Y016290D01*
X034710Y016290D01*
X034710Y015698D01*
X034710Y015854D02*
X034710Y015854D01*
X034710Y016010D02*
X034710Y016010D01*
X034710Y016166D02*
X034710Y016166D01*
X035025Y015698D02*
X035025Y015698D01*
X035025Y016290D01*
X035025Y016290D01*
X035025Y015698D01*
X035025Y015854D02*
X035025Y015854D01*
X035025Y016010D02*
X035025Y016010D01*
X035025Y016166D02*
X035025Y016166D01*
X034080Y015698D02*
X034080Y015698D01*
X034080Y016290D01*
X034080Y016290D01*
X034080Y015698D01*
X034080Y015854D02*
X034080Y015854D01*
X034080Y016010D02*
X034080Y016010D01*
X034080Y016166D02*
X034080Y016166D01*
X033765Y015698D02*
X033765Y015698D01*
X033765Y016290D01*
X033765Y016290D01*
X033765Y015698D01*
X033765Y015854D02*
X033765Y015854D01*
X033765Y016010D02*
X033765Y016010D01*
X033765Y016166D02*
X033765Y016166D01*
X033450Y015698D02*
X033450Y015698D01*
X033450Y016290D01*
X033450Y016290D01*
X033450Y015698D01*
X033450Y015854D02*
X033450Y015854D01*
X033450Y016010D02*
X033450Y016010D01*
X033450Y016166D02*
X033450Y016166D01*
X033135Y015698D02*
X033135Y015698D01*
X033135Y016290D01*
X033135Y016290D01*
X033135Y015698D01*
X033135Y015854D02*
X033135Y015854D01*
X033135Y016010D02*
X033135Y016010D01*
X033135Y016166D02*
X033135Y016166D01*
X032820Y015698D02*
X032820Y015698D01*
X032820Y016290D01*
X032820Y016290D01*
X032820Y015698D01*
X032820Y015854D02*
X032820Y015854D01*
X032820Y016010D02*
X032820Y016010D01*
X032820Y016166D02*
X032820Y016166D01*
X032505Y015698D02*
X032505Y015698D01*
X032505Y016290D01*
X032505Y016290D01*
X032505Y015698D01*
X032505Y015854D02*
X032505Y015854D01*
X032505Y016010D02*
X032505Y016010D01*
X032505Y016166D02*
X032505Y016166D01*
X032190Y015698D02*
X032190Y015698D01*
X032190Y016290D01*
X032190Y016290D01*
X032190Y015698D01*
X032190Y015854D02*
X032190Y015854D01*
X032190Y016010D02*
X032190Y016010D01*
X032190Y016166D02*
X032190Y016166D01*
X031875Y015698D02*
X031875Y015698D01*
X031875Y016290D01*
X031875Y016290D01*
X031875Y015698D01*
X031875Y015854D02*
X031875Y015854D01*
X031875Y016010D02*
X031875Y016010D01*
X031875Y016166D02*
X031875Y016166D01*
X030910Y015325D02*
X030910Y015325D01*
X031502Y015325D01*
X031502Y015325D01*
X030910Y015325D01*
X030910Y015010D02*
X030910Y015010D01*
X031502Y015010D01*
X031502Y015010D01*
X030910Y015010D01*
X030910Y014695D02*
X030910Y014695D01*
X031502Y014695D01*
X031502Y014695D01*
X030910Y014695D01*
X030910Y014380D02*
X030910Y014380D01*
X031502Y014380D01*
X031502Y014380D01*
X030910Y014380D01*
X030910Y014065D02*
X030910Y014065D01*
X031502Y014065D01*
X031502Y014065D01*
X030910Y014065D01*
X030910Y013750D02*
X030910Y013750D01*
X031502Y013750D01*
X031502Y013750D01*
X030910Y013750D01*
X030910Y013435D02*
X030910Y013435D01*
X031502Y013435D01*
X031502Y013435D01*
X030910Y013435D01*
X030910Y013120D02*
X030910Y013120D01*
X031502Y013120D01*
X031502Y013120D01*
X030910Y013120D01*
X030910Y012805D02*
X030910Y012805D01*
X031502Y012805D01*
X031502Y012805D01*
X030910Y012805D01*
X030910Y012490D02*
X030910Y012490D01*
X031502Y012490D01*
X031502Y012490D01*
X030910Y012490D01*
X030910Y012175D02*
X030910Y012175D01*
X031502Y012175D01*
X031502Y012175D01*
X030910Y012175D01*
X031875Y011210D02*
X031875Y011210D01*
X031875Y011802D01*
X031875Y011802D01*
X031875Y011210D01*
X031875Y011366D02*
X031875Y011366D01*
X031875Y011522D02*
X031875Y011522D01*
X031875Y011678D02*
X031875Y011678D01*
X032190Y011210D02*
X032190Y011210D01*
X032190Y011802D01*
X032190Y011802D01*
X032190Y011210D01*
X032190Y011366D02*
X032190Y011366D01*
X032190Y011522D02*
X032190Y011522D01*
X032190Y011678D02*
X032190Y011678D01*
X032505Y011210D02*
X032505Y011210D01*
X032505Y011802D01*
X032505Y011802D01*
X032505Y011210D01*
X032505Y011366D02*
X032505Y011366D01*
X032505Y011522D02*
X032505Y011522D01*
X032505Y011678D02*
X032505Y011678D01*
X032820Y011210D02*
X032820Y011210D01*
X032820Y011802D01*
X032820Y011802D01*
X032820Y011210D01*
X032820Y011366D02*
X032820Y011366D01*
X032820Y011522D02*
X032820Y011522D01*
X032820Y011678D02*
X032820Y011678D01*
X033135Y011210D02*
X033135Y011210D01*
X033135Y011802D01*
X033135Y011802D01*
X033135Y011210D01*
X033135Y011366D02*
X033135Y011366D01*
X033135Y011522D02*
X033135Y011522D01*
X033135Y011678D02*
X033135Y011678D01*
X033450Y011210D02*
X033450Y011210D01*
X033450Y011802D01*
X033450Y011802D01*
X033450Y011210D01*
X033450Y011366D02*
X033450Y011366D01*
X033450Y011522D02*
X033450Y011522D01*
X033450Y011678D02*
X033450Y011678D01*
X033765Y011210D02*
X033765Y011210D01*
X033765Y011802D01*
X033765Y011802D01*
X033765Y011210D01*
X033765Y011366D02*
X033765Y011366D01*
X033765Y011522D02*
X033765Y011522D01*
X033765Y011678D02*
X033765Y011678D01*
X034080Y011210D02*
X034080Y011210D01*
X034080Y011802D01*
X034080Y011802D01*
X034080Y011210D01*
X034080Y011366D02*
X034080Y011366D01*
X034080Y011522D02*
X034080Y011522D01*
X034080Y011678D02*
X034080Y011678D01*
X034395Y011210D02*
X034395Y011210D01*
X034395Y011802D01*
X034395Y011802D01*
X034395Y011210D01*
X034395Y011366D02*
X034395Y011366D01*
X034395Y011522D02*
X034395Y011522D01*
X034395Y011678D02*
X034395Y011678D01*
X034710Y011210D02*
X034710Y011210D01*
X034710Y011802D01*
X034710Y011802D01*
X034710Y011210D01*
X034710Y011366D02*
X034710Y011366D01*
X034710Y011522D02*
X034710Y011522D01*
X034710Y011678D02*
X034710Y011678D01*
X035025Y011210D02*
X035025Y011210D01*
X035025Y011802D01*
X035025Y011802D01*
X035025Y011210D01*
X035025Y011366D02*
X035025Y011366D01*
X035025Y011522D02*
X035025Y011522D01*
X035025Y011678D02*
X035025Y011678D01*
X035398Y012175D02*
X035398Y012175D01*
X035990Y012175D01*
X035990Y012175D01*
X035398Y012175D01*
X035398Y012490D02*
X035398Y012490D01*
X035990Y012490D01*
X035990Y012490D01*
X035398Y012490D01*
X035398Y012805D02*
X035398Y012805D01*
X035990Y012805D01*
X035990Y012805D01*
X035398Y012805D01*
X035398Y013120D02*
X035398Y013120D01*
X035990Y013120D01*
X035990Y013120D01*
X035398Y013120D01*
X035398Y013435D02*
X035398Y013435D01*
X035990Y013435D01*
X035990Y013435D01*
X035398Y013435D01*
X035398Y013750D02*
X035398Y013750D01*
X035990Y013750D01*
X035990Y013750D01*
X035398Y013750D01*
X035398Y014065D02*
X035398Y014065D01*
X035990Y014065D01*
X035990Y014065D01*
X035398Y014065D01*
X035398Y014380D02*
X035398Y014380D01*
X035990Y014380D01*
X035990Y014380D01*
X035398Y014380D01*
X035398Y014695D02*
X035398Y014695D01*
X035990Y014695D01*
X035990Y014695D01*
X035398Y014695D01*
X035398Y015010D02*
X035398Y015010D01*
X035990Y015010D01*
X035990Y015010D01*
X035398Y015010D01*
X035398Y015325D02*
X035398Y015325D01*
X035990Y015325D01*
X035990Y015325D01*
X035398Y015325D01*
D38*
X012918Y009606D03*
D39*
X012918Y005974D03*
X013418Y005974D03*
X013918Y005974D03*
X014418Y005974D03*
X012418Y005974D03*
X011918Y005974D03*
X011418Y005974D03*
D40*
X026350Y010050D03*
X026350Y011050D03*
X026350Y012050D03*
X026350Y013050D03*
X026350Y014050D03*
X026350Y015050D03*
X036150Y026750D03*
X037150Y026750D03*
X038150Y026750D03*
X039150Y026750D03*
X040150Y026750D03*
X041150Y026750D03*
X042150Y026750D03*
X043150Y026750D03*
X044150Y026750D03*
X045150Y026750D03*
X046850Y026750D03*
X047850Y026750D03*
X048850Y026750D03*
X049850Y026750D03*
X050850Y026750D03*
X051850Y026750D03*
X052850Y026750D03*
X053850Y026750D03*
X054850Y026750D03*
X055850Y026750D03*
D41*
X024200Y013050D03*
X023700Y013050D03*
X023700Y012550D03*
X023700Y012050D03*
X024200Y012050D03*
X024200Y012550D03*
D42*
X023755Y011550D02*
X023757Y011578D01*
X023763Y011605D01*
X023773Y011631D01*
X023786Y011655D01*
X023803Y011678D01*
X023822Y011697D01*
X023845Y011714D01*
X023869Y011727D01*
X023895Y011737D01*
X023922Y011743D01*
X023950Y011745D01*
X023978Y011743D01*
X024005Y011737D01*
X024031Y011727D01*
X024055Y011714D01*
X024078Y011697D01*
X024097Y011678D01*
X024114Y011655D01*
X024127Y011631D01*
X024137Y011605D01*
X024143Y011578D01*
X024145Y011550D01*
X024143Y011522D01*
X024137Y011495D01*
X024127Y011469D01*
X024114Y011445D01*
X024097Y011422D01*
X024078Y011403D01*
X024055Y011386D01*
X024031Y011373D01*
X024005Y011363D01*
X023978Y011357D01*
X023950Y011355D01*
X023922Y011357D01*
X023895Y011363D01*
X023869Y011373D01*
X023845Y011386D01*
X023822Y011403D01*
X023803Y011422D01*
X023786Y011445D01*
X023773Y011469D01*
X023763Y011495D01*
X023757Y011522D01*
X023755Y011550D01*
X023355Y013550D02*
X023357Y013578D01*
X023363Y013605D01*
X023373Y013631D01*
X023386Y013655D01*
X023403Y013678D01*
X023422Y013697D01*
X023445Y013714D01*
X023469Y013727D01*
X023495Y013737D01*
X023522Y013743D01*
X023550Y013745D01*
X023578Y013743D01*
X023605Y013737D01*
X023631Y013727D01*
X023655Y013714D01*
X023678Y013697D01*
X023697Y013678D01*
X023714Y013655D01*
X023727Y013631D01*
X023737Y013605D01*
X023743Y013578D01*
X023745Y013550D01*
X023743Y013522D01*
X023737Y013495D01*
X023727Y013469D01*
X023714Y013445D01*
X023697Y013422D01*
X023678Y013403D01*
X023655Y013386D01*
X023631Y013373D01*
X023605Y013363D01*
X023578Y013357D01*
X023550Y013355D01*
X023522Y013357D01*
X023495Y013363D01*
X023469Y013373D01*
X023445Y013386D01*
X023422Y013403D01*
X023403Y013422D01*
X023386Y013445D01*
X023373Y013469D01*
X023363Y013495D01*
X023357Y013522D01*
X023355Y013550D01*
X024155Y013550D02*
X024157Y013578D01*
X024163Y013605D01*
X024173Y013631D01*
X024186Y013655D01*
X024203Y013678D01*
X024222Y013697D01*
X024245Y013714D01*
X024269Y013727D01*
X024295Y013737D01*
X024322Y013743D01*
X024350Y013745D01*
X024378Y013743D01*
X024405Y013737D01*
X024431Y013727D01*
X024455Y013714D01*
X024478Y013697D01*
X024497Y013678D01*
X024514Y013655D01*
X024527Y013631D01*
X024537Y013605D01*
X024543Y013578D01*
X024545Y013550D01*
X024543Y013522D01*
X024537Y013495D01*
X024527Y013469D01*
X024514Y013445D01*
X024497Y013422D01*
X024478Y013403D01*
X024455Y013386D01*
X024431Y013373D01*
X024405Y013363D01*
X024378Y013357D01*
X024350Y013355D01*
X024322Y013357D01*
X024295Y013363D01*
X024269Y013373D01*
X024245Y013386D01*
X024222Y013403D01*
X024203Y013422D01*
X024186Y013445D01*
X024173Y013469D01*
X024163Y013495D01*
X024157Y013522D01*
X024155Y013550D01*
X001300Y002050D02*
X001302Y002104D01*
X001308Y002158D01*
X001318Y002211D01*
X001331Y002264D01*
X001348Y002315D01*
X001369Y002365D01*
X001394Y002413D01*
X001422Y002460D01*
X001453Y002504D01*
X001487Y002546D01*
X001524Y002585D01*
X001564Y002622D01*
X001607Y002655D01*
X001652Y002686D01*
X001699Y002713D01*
X001747Y002736D01*
X001798Y002756D01*
X001849Y002773D01*
X001902Y002785D01*
X001955Y002794D01*
X002009Y002799D01*
X002064Y002800D01*
X002118Y002797D01*
X002171Y002790D01*
X002224Y002779D01*
X002277Y002765D01*
X002328Y002747D01*
X002377Y002725D01*
X002425Y002700D01*
X002471Y002671D01*
X002515Y002639D01*
X002556Y002604D01*
X002594Y002566D01*
X002630Y002525D01*
X002663Y002482D01*
X002693Y002437D01*
X002719Y002389D01*
X002742Y002340D01*
X002761Y002289D01*
X002776Y002238D01*
X002788Y002185D01*
X002796Y002131D01*
X002800Y002077D01*
X002800Y002023D01*
X002796Y001969D01*
X002788Y001915D01*
X002776Y001862D01*
X002761Y001811D01*
X002742Y001760D01*
X002719Y001711D01*
X002693Y001663D01*
X002663Y001618D01*
X002630Y001575D01*
X002594Y001534D01*
X002556Y001496D01*
X002515Y001461D01*
X002471Y001429D01*
X002425Y001400D01*
X002377Y001375D01*
X002328Y001353D01*
X002277Y001335D01*
X002224Y001321D01*
X002171Y001310D01*
X002118Y001303D01*
X002064Y001300D01*
X002009Y001301D01*
X001955Y001306D01*
X001902Y001315D01*
X001849Y001327D01*
X001798Y001344D01*
X001747Y001364D01*
X001699Y001387D01*
X001652Y001414D01*
X001607Y001445D01*
X001564Y001478D01*
X001524Y001515D01*
X001487Y001554D01*
X001453Y001596D01*
X001422Y001640D01*
X001394Y001687D01*
X001369Y001735D01*
X001348Y001785D01*
X001331Y001836D01*
X001318Y001889D01*
X001308Y001942D01*
X001302Y001996D01*
X001300Y002050D01*
X001300Y026350D02*
X001302Y026404D01*
X001308Y026458D01*
X001318Y026511D01*
X001331Y026564D01*
X001348Y026615D01*
X001369Y026665D01*
X001394Y026713D01*
X001422Y026760D01*
X001453Y026804D01*
X001487Y026846D01*
X001524Y026885D01*
X001564Y026922D01*
X001607Y026955D01*
X001652Y026986D01*
X001699Y027013D01*
X001747Y027036D01*
X001798Y027056D01*
X001849Y027073D01*
X001902Y027085D01*
X001955Y027094D01*
X002009Y027099D01*
X002064Y027100D01*
X002118Y027097D01*
X002171Y027090D01*
X002224Y027079D01*
X002277Y027065D01*
X002328Y027047D01*
X002377Y027025D01*
X002425Y027000D01*
X002471Y026971D01*
X002515Y026939D01*
X002556Y026904D01*
X002594Y026866D01*
X002630Y026825D01*
X002663Y026782D01*
X002693Y026737D01*
X002719Y026689D01*
X002742Y026640D01*
X002761Y026589D01*
X002776Y026538D01*
X002788Y026485D01*
X002796Y026431D01*
X002800Y026377D01*
X002800Y026323D01*
X002796Y026269D01*
X002788Y026215D01*
X002776Y026162D01*
X002761Y026111D01*
X002742Y026060D01*
X002719Y026011D01*
X002693Y025963D01*
X002663Y025918D01*
X002630Y025875D01*
X002594Y025834D01*
X002556Y025796D01*
X002515Y025761D01*
X002471Y025729D01*
X002425Y025700D01*
X002377Y025675D01*
X002328Y025653D01*
X002277Y025635D01*
X002224Y025621D01*
X002171Y025610D01*
X002118Y025603D01*
X002064Y025600D01*
X002009Y025601D01*
X001955Y025606D01*
X001902Y025615D01*
X001849Y025627D01*
X001798Y025644D01*
X001747Y025664D01*
X001699Y025687D01*
X001652Y025714D01*
X001607Y025745D01*
X001564Y025778D01*
X001524Y025815D01*
X001487Y025854D01*
X001453Y025896D01*
X001422Y025940D01*
X001394Y025987D01*
X001369Y026035D01*
X001348Y026085D01*
X001331Y026136D01*
X001318Y026189D01*
X001308Y026242D01*
X001302Y026296D01*
X001300Y026350D01*
X057700Y026250D02*
X057702Y026304D01*
X057708Y026358D01*
X057718Y026411D01*
X057731Y026464D01*
X057748Y026515D01*
X057769Y026565D01*
X057794Y026613D01*
X057822Y026660D01*
X057853Y026704D01*
X057887Y026746D01*
X057924Y026785D01*
X057964Y026822D01*
X058007Y026855D01*
X058052Y026886D01*
X058099Y026913D01*
X058147Y026936D01*
X058198Y026956D01*
X058249Y026973D01*
X058302Y026985D01*
X058355Y026994D01*
X058409Y026999D01*
X058464Y027000D01*
X058518Y026997D01*
X058571Y026990D01*
X058624Y026979D01*
X058677Y026965D01*
X058728Y026947D01*
X058777Y026925D01*
X058825Y026900D01*
X058871Y026871D01*
X058915Y026839D01*
X058956Y026804D01*
X058994Y026766D01*
X059030Y026725D01*
X059063Y026682D01*
X059093Y026637D01*
X059119Y026589D01*
X059142Y026540D01*
X059161Y026489D01*
X059176Y026438D01*
X059188Y026385D01*
X059196Y026331D01*
X059200Y026277D01*
X059200Y026223D01*
X059196Y026169D01*
X059188Y026115D01*
X059176Y026062D01*
X059161Y026011D01*
X059142Y025960D01*
X059119Y025911D01*
X059093Y025863D01*
X059063Y025818D01*
X059030Y025775D01*
X058994Y025734D01*
X058956Y025696D01*
X058915Y025661D01*
X058871Y025629D01*
X058825Y025600D01*
X058777Y025575D01*
X058728Y025553D01*
X058677Y025535D01*
X058624Y025521D01*
X058571Y025510D01*
X058518Y025503D01*
X058464Y025500D01*
X058409Y025501D01*
X058355Y025506D01*
X058302Y025515D01*
X058249Y025527D01*
X058198Y025544D01*
X058147Y025564D01*
X058099Y025587D01*
X058052Y025614D01*
X058007Y025645D01*
X057964Y025678D01*
X057924Y025715D01*
X057887Y025754D01*
X057853Y025796D01*
X057822Y025840D01*
X057794Y025887D01*
X057769Y025935D01*
X057748Y025985D01*
X057731Y026036D01*
X057718Y026089D01*
X057708Y026142D01*
X057702Y026196D01*
X057700Y026250D01*
X057700Y002050D02*
X057702Y002104D01*
X057708Y002158D01*
X057718Y002211D01*
X057731Y002264D01*
X057748Y002315D01*
X057769Y002365D01*
X057794Y002413D01*
X057822Y002460D01*
X057853Y002504D01*
X057887Y002546D01*
X057924Y002585D01*
X057964Y002622D01*
X058007Y002655D01*
X058052Y002686D01*
X058099Y002713D01*
X058147Y002736D01*
X058198Y002756D01*
X058249Y002773D01*
X058302Y002785D01*
X058355Y002794D01*
X058409Y002799D01*
X058464Y002800D01*
X058518Y002797D01*
X058571Y002790D01*
X058624Y002779D01*
X058677Y002765D01*
X058728Y002747D01*
X058777Y002725D01*
X058825Y002700D01*
X058871Y002671D01*
X058915Y002639D01*
X058956Y002604D01*
X058994Y002566D01*
X059030Y002525D01*
X059063Y002482D01*
X059093Y002437D01*
X059119Y002389D01*
X059142Y002340D01*
X059161Y002289D01*
X059176Y002238D01*
X059188Y002185D01*
X059196Y002131D01*
X059200Y002077D01*
X059200Y002023D01*
X059196Y001969D01*
X059188Y001915D01*
X059176Y001862D01*
X059161Y001811D01*
X059142Y001760D01*
X059119Y001711D01*
X059093Y001663D01*
X059063Y001618D01*
X059030Y001575D01*
X058994Y001534D01*
X058956Y001496D01*
X058915Y001461D01*
X058871Y001429D01*
X058825Y001400D01*
X058777Y001375D01*
X058728Y001353D01*
X058677Y001335D01*
X058624Y001321D01*
X058571Y001310D01*
X058518Y001303D01*
X058464Y001300D01*
X058409Y001301D01*
X058355Y001306D01*
X058302Y001315D01*
X058249Y001327D01*
X058198Y001344D01*
X058147Y001364D01*
X058099Y001387D01*
X058052Y001414D01*
X058007Y001445D01*
X057964Y001478D01*
X057924Y001515D01*
X057887Y001554D01*
X057853Y001596D01*
X057822Y001640D01*
X057794Y001687D01*
X057769Y001735D01*
X057748Y001785D01*
X057731Y001836D01*
X057718Y001889D01*
X057708Y001942D01*
X057702Y001996D01*
X057700Y002050D01*
D43*
X058950Y005150D03*
X058950Y006150D03*
X058950Y020450D03*
X058950Y021450D03*
X034250Y026750D03*
X033250Y026750D03*
X030950Y026750D03*
X029950Y026750D03*
X027750Y026750D03*
X026750Y026750D03*
X024750Y026750D03*
X023750Y026750D03*
X021650Y026750D03*
X020650Y026750D03*
X018550Y026750D03*
X017550Y026750D03*
X015450Y026750D03*
X014450Y026750D03*
D44*
X012150Y026950D03*
X011150Y026950D03*
X010150Y026950D03*
X009150Y026950D03*
X008150Y026950D03*
X007150Y026950D03*
X006150Y026950D03*
X005150Y026950D03*
X005150Y025950D03*
X006150Y025950D03*
X007150Y025950D03*
X008150Y025950D03*
X009150Y025950D03*
X010150Y025950D03*
X011150Y025950D03*
X012150Y025950D03*
D45*
X011850Y024285D03*
X011150Y024285D03*
X010450Y024285D03*
X010450Y023615D03*
X011150Y023615D03*
X011850Y023615D03*
X012550Y023615D03*
X012550Y024285D03*
X008950Y024285D03*
X008250Y024285D03*
X007550Y024285D03*
X006850Y024285D03*
X006850Y023615D03*
X007550Y023615D03*
X008250Y023615D03*
X008950Y023615D03*
X052450Y011785D03*
X052450Y011115D03*
X053250Y011115D03*
X053250Y011785D03*
D46*
X052950Y016005D03*
X053650Y016005D03*
X053650Y016595D03*
X052950Y016595D03*
X051600Y016595D03*
X050950Y016595D03*
X050950Y016005D03*
X051600Y016005D03*
X049650Y016005D03*
X049650Y016595D03*
X049000Y016589D03*
X049000Y015999D03*
X047622Y015999D03*
X047622Y016589D03*
X043300Y015295D03*
X043300Y014705D03*
X042300Y014705D03*
X041300Y014705D03*
X041300Y015295D03*
X042300Y015295D03*
X041800Y015905D03*
X042800Y015905D03*
X042800Y016495D03*
X041800Y016495D03*
X040800Y016495D03*
X040800Y015905D03*
X040300Y015295D03*
X040300Y014705D03*
X042800Y010395D03*
X042800Y009805D03*
X054650Y016005D03*
X054650Y016595D03*
X055050Y023955D03*
X054050Y023955D03*
X054050Y024545D03*
X055050Y024545D03*
X053050Y024545D03*
X052050Y024545D03*
X052050Y023955D03*
X053050Y023955D03*
X051050Y023955D03*
X051050Y024545D03*
X050050Y024545D03*
X049050Y024545D03*
X049050Y023955D03*
X050050Y023955D03*
X048050Y023955D03*
X048050Y024545D03*
D47*
X043300Y013770D03*
X042800Y013770D03*
X042300Y013770D03*
X041800Y013770D03*
X041300Y013770D03*
X040800Y013770D03*
X040300Y013770D03*
X039800Y013770D03*
X039800Y011330D03*
X040300Y011330D03*
X040800Y011330D03*
X041300Y011330D03*
X041800Y011330D03*
X042300Y011330D03*
X042800Y011330D03*
X043300Y011330D03*
X046650Y011130D03*
X047150Y011130D03*
X047650Y011130D03*
X048150Y011130D03*
X048650Y011130D03*
X049150Y011130D03*
X049650Y011130D03*
X050150Y011130D03*
X050150Y013570D03*
X049650Y013570D03*
X049150Y013570D03*
X048650Y013570D03*
X048150Y013570D03*
X047650Y013570D03*
X047150Y013570D03*
X046650Y013570D03*
D48*
X034567Y023427D03*
X034567Y024273D03*
X032933Y024273D03*
X032933Y023427D03*
X031267Y023427D03*
X031267Y024273D03*
X029633Y024273D03*
X028067Y024273D03*
X028067Y023427D03*
X029633Y023427D03*
X026433Y023427D03*
X026433Y024273D03*
D49*
X053148Y013344D03*
X053148Y013147D03*
X053148Y012950D03*
X053148Y012753D03*
X053148Y012556D03*
X054152Y012556D03*
X054152Y012753D03*
X054152Y012950D03*
X054152Y013147D03*
X054152Y013344D03*
D50*
X053847Y013452D03*
X053650Y013452D03*
X053453Y013452D03*
X053453Y012448D03*
X053650Y012448D03*
X053847Y012448D03*
D51*
X056700Y014435D03*
X057200Y014435D03*
X057700Y014435D03*
X058200Y014435D03*
X058200Y018665D03*
X057700Y018665D03*
X057200Y018665D03*
X056700Y018665D03*
D52*
X055196Y009834D03*
X055196Y009578D03*
X055196Y009322D03*
X055196Y009066D03*
X053504Y009066D03*
X053504Y009322D03*
X053504Y009578D03*
X053504Y009834D03*
D53*
X056155Y009050D03*
X056745Y009050D03*
X056755Y020450D03*
X057345Y020450D03*
X057345Y021050D03*
X056755Y021050D03*
D54*
X058576Y011681D03*
X059324Y011681D03*
X059324Y010619D03*
X058950Y010619D03*
X058576Y010619D03*
D55*
X056150Y010250D03*
X054250Y010650D03*
X053250Y010550D03*
X052450Y010550D03*
X052050Y010050D03*
X052650Y009050D03*
X054050Y010050D03*
X053750Y011950D03*
X052850Y012250D03*
X051850Y013650D03*
X052550Y013900D03*
X053550Y014350D03*
X053850Y014650D03*
X055450Y014650D03*
X054350Y015550D03*
X053300Y015550D03*
X051300Y015550D03*
X049300Y015550D03*
X047150Y015850D03*
X046650Y014350D03*
X043950Y012650D03*
X041650Y010450D03*
X039150Y013350D03*
X037400Y013650D03*
X037400Y014150D03*
X032150Y017350D03*
X032150Y017950D03*
X034450Y017900D03*
X034450Y017450D03*
X035200Y018950D03*
X031400Y019950D03*
X028950Y018250D03*
X028550Y018250D03*
X024550Y019450D03*
X023550Y019150D03*
X021450Y019450D03*
X020450Y019150D03*
X020550Y018150D03*
X021150Y018150D03*
X018350Y019450D03*
X017350Y019150D03*
X015250Y019450D03*
X014150Y020750D03*
X016850Y020750D03*
X016850Y021300D03*
X019950Y021350D03*
X019950Y020750D03*
X023050Y020750D03*
X023050Y021350D03*
X026150Y021350D03*
X026150Y020750D03*
X028250Y022650D03*
X028650Y023450D03*
X031450Y022650D03*
X031850Y023450D03*
X034750Y022650D03*
X035150Y023450D03*
X038350Y023650D03*
X040350Y023650D03*
X040350Y022450D03*
X038350Y022450D03*
X042350Y022450D03*
X044350Y022450D03*
X044350Y023650D03*
X042350Y023650D03*
X048050Y022550D03*
X050050Y022550D03*
X052050Y022550D03*
X054050Y022550D03*
X056350Y022250D03*
X057350Y022250D03*
X054050Y021250D03*
X052050Y021250D03*
X050050Y021250D03*
X048050Y021250D03*
X045350Y020150D03*
X043350Y020150D03*
X041350Y020150D03*
X039350Y020150D03*
X039350Y018950D03*
X041350Y018950D03*
X043350Y018950D03*
X045350Y018950D03*
X047050Y019150D03*
X047050Y018150D03*
X049050Y018150D03*
X049050Y019150D03*
X051050Y019150D03*
X051050Y018150D03*
X053050Y018150D03*
X053050Y019150D03*
X059750Y013850D03*
X057550Y012550D03*
X056750Y012550D03*
X050150Y011850D03*
X049650Y011850D03*
X055250Y008250D03*
X058250Y008350D03*
X059750Y008350D03*
X034550Y010050D03*
X032950Y009950D03*
X032950Y009350D03*
X032950Y008550D03*
X030750Y006300D03*
X030750Y005800D03*
X030750Y005300D03*
X030750Y004800D03*
X029550Y004800D03*
X029550Y005300D03*
X029550Y005800D03*
X029550Y006300D03*
X021000Y005400D03*
X021000Y004900D03*
X021000Y004400D03*
X021000Y003900D03*
X019800Y003900D03*
X019800Y004400D03*
X019800Y004900D03*
X019800Y005400D03*
X017200Y005500D03*
X017200Y005000D03*
X017200Y004500D03*
X017200Y004000D03*
X016000Y004000D03*
X016000Y004500D03*
X016000Y005000D03*
X016000Y005500D03*
X012900Y005100D03*
X012900Y004700D03*
X012900Y004300D03*
X011950Y003000D03*
X011350Y003000D03*
X009350Y004450D03*
X008850Y004450D03*
X008350Y004450D03*
X007850Y004450D03*
X007350Y004450D03*
X006850Y004450D03*
X003150Y006250D03*
X003150Y006750D03*
X003150Y007250D03*
X003150Y007750D03*
X003150Y008250D03*
X003150Y008750D03*
X003150Y009250D03*
X003150Y009750D03*
X003150Y010250D03*
X003150Y010750D03*
X003150Y011250D03*
X003150Y011750D03*
X003150Y012250D03*
X003150Y012750D03*
X003150Y013250D03*
X003150Y013750D03*
X005100Y013500D03*
X005100Y013000D03*
X005100Y012500D03*
X006650Y012500D03*
X006650Y013000D03*
X006650Y013500D03*
X005450Y015050D03*
X004850Y016050D03*
X010250Y016450D03*
X012550Y015650D03*
X010650Y017950D03*
X004350Y019000D03*
X003750Y021150D03*
X014950Y025450D03*
X018050Y025450D03*
X021150Y025450D03*
X024250Y025450D03*
X018650Y016450D03*
X018650Y015950D03*
X018650Y015450D03*
X020950Y013450D03*
X025450Y014050D03*
X029550Y013850D03*
X029550Y013350D03*
X017450Y010300D03*
X016850Y010300D03*
X016050Y010300D03*
X015450Y010300D03*
X014350Y010350D03*
X014350Y009850D03*
X014350Y009350D03*
X014350Y008850D03*
X013650Y007950D03*
X013150Y007950D03*
X012650Y007950D03*
X012150Y007950D03*
X011450Y008850D03*
X011450Y009350D03*
X011450Y009850D03*
X011450Y010350D03*
X010450Y010300D03*
X009850Y010300D03*
X012150Y011250D03*
X012650Y011250D03*
X013150Y011250D03*
X013650Y011250D03*
D56*
X004799Y023950D02*
X004799Y025501D01*
X004620Y025680D01*
X004620Y026212D01*
X004859Y026450D01*
X005650Y026450D01*
X006150Y026950D01*
D57*
X004600Y021159D02*
X004591Y021150D01*
X003750Y021150D01*
X003627Y018990D02*
X004350Y018990D01*
X004350Y019000D01*
X009928Y017930D02*
X010650Y017930D01*
X010650Y017950D01*
X010250Y016450D02*
X010250Y016446D01*
X009731Y016446D01*
X005450Y015050D02*
X005450Y015028D01*
X004636Y015028D01*
X004850Y016044D02*
X004339Y016044D01*
X004850Y016044D02*
X004850Y016050D01*
D58*
X032060Y018970D02*
X032062Y018962D01*
X032066Y018956D01*
X032072Y018952D01*
X032080Y018950D01*
X034520Y019950D02*
X034528Y019952D01*
X034534Y019956D01*
X034538Y019962D01*
X034540Y019970D01*
X039350Y020150D02*
X039350Y020770D01*
X041350Y020770D02*
X041350Y020150D01*
X043350Y020150D02*
X043350Y020770D01*
X045350Y020770D02*
X045350Y020150D01*
X047050Y019920D02*
X047050Y019150D01*
X049050Y019150D02*
X049050Y019920D01*
X051050Y019920D02*
X051050Y019150D01*
X053050Y019150D02*
X053050Y019920D01*
X052050Y022550D02*
X052050Y023070D01*
X054050Y023070D02*
X054050Y022550D01*
X050050Y022550D02*
X050050Y023070D01*
X048050Y023070D02*
X048050Y022550D01*
X044350Y023650D02*
X044350Y024270D01*
X042350Y024270D02*
X042350Y023650D01*
X040350Y023650D02*
X040350Y024270D01*
X038350Y024270D02*
X038350Y023650D01*
X034080Y010174D02*
X034081Y010167D01*
X034085Y010160D01*
X034090Y010155D01*
X034097Y010151D01*
X034104Y010150D01*
D59*
X005901Y023950D02*
X005901Y025701D01*
X006150Y025950D01*
X003627Y017179D02*
X003627Y016047D01*
X003627Y015122D01*
X003533Y015028D01*
X002072Y015028D01*
X002050Y015050D01*
X003627Y016047D02*
X003630Y016044D01*
M02*
