G75*
%MOIN*%
%OFA0B0*%
%FSLAX24Y24*%
%IPPOS*%
%LPD*%
%AMOC8*
5,1,8,0,0,1.08239X$1,22.5*
%
%ADD10C,0.0100*%
%ADD11C,0.0660*%
%ADD12C,0.0768*%
%ADD13C,0.0591*%
%ADD14C,0.0000*%
%ADD15OC8,0.0650*%
%ADD16C,0.0650*%
%ADD17C,0.0317*%
%ADD18C,0.0240*%
D10*
X002150Y000150D02*
X058350Y000150D01*
X056150Y000850D02*
X055750Y000450D01*
X046321Y000450D01*
X045496Y001275D01*
X044952Y001037D02*
X032894Y001037D01*
X032935Y001135D02*
X044911Y001135D01*
X044902Y001157D02*
X044992Y000939D01*
X045159Y000772D01*
X045378Y000681D01*
X045614Y000681D01*
X045690Y000713D01*
X045993Y000410D01*
X003260Y000410D01*
X003289Y000435D01*
X003357Y000481D01*
X003361Y000498D01*
X003418Y000548D01*
X003435Y000549D01*
X003489Y000611D01*
X003551Y000665D01*
X003552Y000682D01*
X003602Y000739D01*
X003619Y000743D01*
X003665Y000811D01*
X003719Y000872D01*
X003718Y000890D01*
X003760Y000953D01*
X003777Y000959D01*
X003813Y001032D01*
X003858Y001100D01*
X003855Y001118D01*
X003888Y001186D01*
X003904Y001193D01*
X003931Y001271D01*
X003967Y001345D01*
X003961Y001361D01*
X003986Y001433D01*
X004000Y001443D01*
X004016Y001523D01*
X004042Y001601D01*
X004035Y001617D01*
X004050Y001691D01*
X004063Y001703D01*
X004068Y001784D01*
X004084Y001865D01*
X004074Y001879D01*
X004079Y001955D01*
X004091Y001968D01*
X004086Y002050D01*
X004091Y002132D01*
X004079Y002145D01*
X004074Y002221D01*
X004084Y002235D01*
X004068Y002316D01*
X004063Y002397D01*
X004050Y002409D01*
X004035Y002483D01*
X004042Y002499D01*
X004016Y002577D01*
X004000Y002657D01*
X003986Y002667D01*
X003961Y002739D01*
X003967Y002755D01*
X003931Y002829D01*
X003904Y002907D01*
X003888Y002914D01*
X003855Y002982D01*
X003858Y003000D01*
X003813Y003068D01*
X003777Y003141D01*
X003760Y003147D01*
X003718Y003210D01*
X003719Y003228D01*
X003665Y003289D01*
X003619Y003357D01*
X003602Y003361D01*
X003552Y003418D01*
X003551Y003435D01*
X003489Y003489D01*
X003435Y003551D01*
X003418Y003552D01*
X003361Y003602D01*
X003357Y003619D01*
X003289Y003665D01*
X003228Y003719D01*
X003210Y003718D01*
X003147Y003760D01*
X003141Y003777D01*
X003068Y003813D01*
X003000Y003858D01*
X002982Y003855D01*
X002914Y003888D01*
X002907Y003904D01*
X002829Y003931D01*
X002755Y003967D01*
X002739Y003961D01*
X002667Y003986D01*
X002657Y004000D01*
X002577Y004016D01*
X002499Y004042D01*
X002483Y004035D01*
X002409Y004050D01*
X002397Y004063D01*
X002316Y004068D01*
X002235Y004084D01*
X002221Y004074D01*
X002145Y004079D01*
X002132Y004091D01*
X002050Y004086D01*
X001968Y004091D01*
X001955Y004079D01*
X001879Y004074D01*
X001865Y004084D01*
X001784Y004068D01*
X001703Y004063D01*
X001691Y004050D01*
X001617Y004035D01*
X001601Y004042D01*
X001523Y004016D01*
X001443Y004000D01*
X001433Y003986D01*
X001361Y003961D01*
X001345Y003967D01*
X001271Y003931D01*
X001193Y003904D01*
X001186Y003888D01*
X001118Y003855D01*
X001100Y003858D01*
X001032Y003813D01*
X000959Y003777D01*
X000953Y003760D01*
X000890Y003718D01*
X000872Y003719D01*
X000811Y003665D01*
X000743Y003619D01*
X000739Y003602D01*
X000682Y003552D01*
X000665Y003551D01*
X000611Y003489D01*
X000549Y003435D01*
X000548Y003418D01*
X000498Y003361D01*
X000481Y003357D01*
X000435Y003289D01*
X000410Y003260D01*
X000410Y025140D01*
X000435Y025111D01*
X000481Y025043D01*
X000498Y025039D01*
X000548Y024982D01*
X000549Y024965D01*
X000611Y024911D01*
X000665Y024849D01*
X000682Y024848D01*
X000739Y024798D01*
X000743Y024781D01*
X000811Y024735D01*
X000872Y024681D01*
X000890Y024682D01*
X000953Y024640D01*
X000959Y024623D01*
X001032Y024587D01*
X001100Y024542D01*
X001118Y024545D01*
X001186Y024512D01*
X001193Y024496D01*
X001271Y024469D01*
X001345Y024433D01*
X001361Y024439D01*
X001433Y024414D01*
X001443Y024400D01*
X001523Y024384D01*
X001601Y024358D01*
X001617Y024365D01*
X001691Y024350D01*
X001703Y024337D01*
X001784Y024332D01*
X001865Y024316D01*
X001879Y024326D01*
X001955Y024321D01*
X001968Y024309D01*
X002050Y024314D01*
X002132Y024309D01*
X002145Y024321D01*
X002221Y024326D01*
X002235Y024316D01*
X002316Y024332D01*
X002397Y024337D01*
X002409Y024350D01*
X002483Y024365D01*
X002499Y024358D01*
X002577Y024384D01*
X002657Y024400D01*
X002667Y024414D01*
X002739Y024439D01*
X002755Y024433D01*
X002829Y024469D01*
X002907Y024496D01*
X002914Y024512D01*
X002982Y024545D01*
X003000Y024542D01*
X003068Y024587D01*
X003141Y024623D01*
X003147Y024640D01*
X003210Y024682D01*
X003228Y024681D01*
X003289Y024735D01*
X003357Y024781D01*
X003361Y024798D01*
X003418Y024848D01*
X003435Y024849D01*
X003489Y024911D01*
X003551Y024965D01*
X003552Y024982D01*
X003602Y025039D01*
X003619Y025043D01*
X003665Y025111D01*
X003719Y025172D01*
X003718Y025190D01*
X003760Y025253D01*
X003777Y025259D01*
X003813Y025332D01*
X003858Y025400D01*
X003855Y025418D01*
X003888Y025486D01*
X003904Y025493D01*
X003931Y025571D01*
X003967Y025645D01*
X003961Y025661D01*
X003986Y025733D01*
X004000Y025743D01*
X004016Y025823D01*
X004042Y025901D01*
X004035Y025917D01*
X004050Y025991D01*
X004063Y026003D01*
X004068Y026084D01*
X004084Y026165D01*
X004074Y026179D01*
X004079Y026255D01*
X004091Y026268D01*
X004086Y026350D01*
X004091Y026432D01*
X004079Y026445D01*
X004074Y026521D01*
X004084Y026535D01*
X004068Y026616D01*
X004063Y026697D01*
X004050Y026709D01*
X004035Y026783D01*
X004042Y026799D01*
X004016Y026877D01*
X004000Y026957D01*
X003986Y026967D01*
X003961Y027039D01*
X003967Y027055D01*
X003931Y027129D01*
X003904Y027207D01*
X003888Y027214D01*
X003855Y027282D01*
X003858Y027300D01*
X003813Y027368D01*
X003777Y027441D01*
X003760Y027447D01*
X003718Y027510D01*
X003719Y027528D01*
X003665Y027589D01*
X003619Y027657D01*
X003602Y027661D01*
X003552Y027718D01*
X003551Y027735D01*
X003489Y027789D01*
X003435Y027851D01*
X003418Y027852D01*
X003375Y027890D01*
X057240Y027890D01*
X057211Y027865D01*
X057143Y027819D01*
X057139Y027802D01*
X057082Y027752D01*
X057065Y027751D01*
X057011Y027689D01*
X056949Y027635D01*
X056948Y027618D01*
X056898Y027561D01*
X056881Y027557D01*
X056835Y027489D01*
X056781Y027428D01*
X056782Y027410D01*
X056740Y027347D01*
X056723Y027341D01*
X056687Y027268D01*
X056642Y027200D01*
X056645Y027182D01*
X056612Y027114D01*
X056596Y027107D01*
X056569Y027029D01*
X056533Y026955D01*
X056539Y026939D01*
X056514Y026867D01*
X056500Y026857D01*
X056484Y026777D01*
X056458Y026699D01*
X056465Y026683D01*
X056450Y026609D01*
X056437Y026597D01*
X056432Y026516D01*
X056416Y026435D01*
X056426Y026421D01*
X056421Y026345D01*
X056409Y026332D01*
X056414Y026250D01*
X056409Y026168D01*
X056421Y026155D01*
X056426Y026079D01*
X056416Y026065D01*
X056432Y025984D01*
X056437Y025903D01*
X056450Y025891D01*
X056465Y025817D01*
X056458Y025801D01*
X056484Y025723D01*
X056500Y025643D01*
X056514Y025633D01*
X056539Y025561D01*
X056533Y025545D01*
X056569Y025471D01*
X056596Y025393D01*
X056612Y025386D01*
X056645Y025318D01*
X056642Y025300D01*
X056687Y025232D01*
X056723Y025159D01*
X056740Y025153D01*
X056782Y025090D01*
X056781Y025072D01*
X056835Y025011D01*
X056881Y024943D01*
X056898Y024939D01*
X056948Y024882D01*
X056949Y024865D01*
X057011Y024811D01*
X057065Y024749D01*
X057082Y024748D01*
X057139Y024698D01*
X057143Y024681D01*
X057211Y024635D01*
X057272Y024581D01*
X057290Y024582D01*
X057353Y024540D01*
X057359Y024523D01*
X057432Y024487D01*
X057500Y024442D01*
X057518Y024445D01*
X057586Y024412D01*
X057593Y024396D01*
X057671Y024369D01*
X057745Y024333D01*
X057761Y024339D01*
X057833Y024314D01*
X057843Y024300D01*
X057923Y024284D01*
X058001Y024258D01*
X058017Y024265D01*
X058091Y024250D01*
X058103Y024237D01*
X058184Y024232D01*
X058265Y024216D01*
X058279Y024226D01*
X058355Y024221D01*
X058368Y024209D01*
X058450Y024214D01*
X058532Y024209D01*
X058545Y024221D01*
X058621Y024226D01*
X058635Y024216D01*
X058716Y024232D01*
X058797Y024237D01*
X058809Y024250D01*
X058883Y024265D01*
X058899Y024258D01*
X058977Y024284D01*
X059057Y024300D01*
X059067Y024314D01*
X059139Y024339D01*
X059155Y024333D01*
X059229Y024369D01*
X059307Y024396D01*
X059314Y024412D01*
X059382Y024445D01*
X059400Y024442D01*
X059468Y024487D01*
X059541Y024523D01*
X059547Y024540D01*
X059610Y024582D01*
X059628Y024581D01*
X059689Y024635D01*
X059757Y024681D01*
X059761Y024698D01*
X059818Y024748D01*
X059835Y024749D01*
X059889Y024811D01*
X059951Y024865D01*
X059952Y024882D01*
X060002Y024939D01*
X060019Y024943D01*
X060065Y025011D01*
X060090Y025040D01*
X060090Y022278D01*
X059547Y022820D01*
X059452Y022860D01*
X055523Y022860D01*
X055474Y022880D01*
X054216Y022880D01*
X054123Y022918D01*
X053977Y022918D01*
X053884Y022880D01*
X052216Y022880D01*
X052123Y022918D01*
X051977Y022918D01*
X051884Y022880D01*
X050216Y022880D01*
X050123Y022918D01*
X049977Y022918D01*
X049884Y022880D01*
X048216Y022880D01*
X048123Y022918D01*
X047977Y022918D01*
X047884Y022880D01*
X046887Y022880D01*
X045837Y023930D01*
X045716Y023980D01*
X044516Y023980D01*
X044423Y024018D01*
X044277Y024018D01*
X044184Y023980D01*
X042516Y023980D01*
X042423Y024018D01*
X042277Y024018D01*
X042184Y023980D01*
X040516Y023980D01*
X040423Y024018D01*
X040277Y024018D01*
X040184Y023980D01*
X038516Y023980D01*
X038423Y024018D01*
X038277Y024018D01*
X038141Y023962D01*
X038038Y023859D01*
X037982Y023723D01*
X037982Y023577D01*
X038038Y023441D01*
X038141Y023338D01*
X038277Y023282D01*
X038423Y023282D01*
X038516Y023320D01*
X040184Y023320D01*
X040277Y023282D01*
X040423Y023282D01*
X040516Y023320D01*
X042184Y023320D01*
X042277Y023282D01*
X042423Y023282D01*
X042516Y023320D01*
X044184Y023320D01*
X044277Y023282D01*
X044423Y023282D01*
X044516Y023320D01*
X045513Y023320D01*
X046470Y022363D01*
X046563Y022270D01*
X046684Y022220D01*
X047884Y022220D01*
X047977Y022182D01*
X048123Y022182D01*
X048216Y022220D01*
X049884Y022220D01*
X049977Y022182D01*
X050123Y022182D01*
X050216Y022220D01*
X051884Y022220D01*
X051977Y022182D01*
X052123Y022182D01*
X052216Y022220D01*
X053884Y022220D01*
X053977Y022182D01*
X054123Y022182D01*
X054216Y022220D01*
X055220Y022220D01*
X055220Y020987D01*
X053713Y019480D01*
X053216Y019480D01*
X053123Y019518D01*
X052977Y019518D01*
X052884Y019480D01*
X051216Y019480D01*
X051123Y019518D01*
X050977Y019518D01*
X050884Y019480D01*
X049216Y019480D01*
X049123Y019518D01*
X048977Y019518D01*
X048884Y019480D01*
X047216Y019480D01*
X047123Y019518D01*
X046977Y019518D01*
X046886Y019481D01*
X045937Y020430D01*
X045816Y020480D01*
X045516Y020480D01*
X045423Y020518D01*
X045277Y020518D01*
X045184Y020480D01*
X043516Y020480D01*
X043423Y020518D01*
X043277Y020518D01*
X043184Y020480D01*
X041516Y020480D01*
X041423Y020518D01*
X041277Y020518D01*
X041184Y020480D01*
X039516Y020480D01*
X039423Y020518D01*
X039277Y020518D01*
X039141Y020462D01*
X039038Y020359D01*
X038982Y020223D01*
X038982Y020077D01*
X039038Y019941D01*
X039141Y019838D01*
X039277Y019782D01*
X039423Y019782D01*
X039516Y019820D01*
X041184Y019820D01*
X041277Y019782D01*
X041423Y019782D01*
X041516Y019820D01*
X043184Y019820D01*
X043277Y019782D01*
X043423Y019782D01*
X043516Y019820D01*
X045184Y019820D01*
X045277Y019782D01*
X045423Y019782D01*
X045516Y019820D01*
X045613Y019820D01*
X046470Y018963D01*
X046563Y018870D01*
X046684Y018820D01*
X046884Y018820D01*
X046977Y018782D01*
X047123Y018782D01*
X047216Y018820D01*
X048884Y018820D01*
X048977Y018782D01*
X049123Y018782D01*
X049216Y018820D01*
X050884Y018820D01*
X050977Y018782D01*
X051123Y018782D01*
X051216Y018820D01*
X052884Y018820D01*
X052977Y018782D01*
X053123Y018782D01*
X053216Y018820D01*
X053916Y018820D01*
X054037Y018870D01*
X055737Y020570D01*
X055830Y020663D01*
X055880Y020784D01*
X055880Y021790D01*
X058534Y021790D01*
X058415Y021672D01*
X058415Y021228D01*
X058694Y020950D01*
X058415Y020672D01*
X058415Y020228D01*
X058728Y019915D01*
X059172Y019915D01*
X059290Y020034D01*
X059290Y006858D01*
X059242Y006810D01*
X058698Y006810D01*
X058603Y006770D01*
X058530Y006697D01*
X058510Y006678D01*
X058510Y008089D01*
X058562Y008141D01*
X058618Y008277D01*
X058618Y008423D01*
X058562Y008559D01*
X058459Y008662D01*
X058323Y008718D01*
X058177Y008718D01*
X058041Y008662D01*
X057938Y008559D01*
X057882Y008423D01*
X057882Y008277D01*
X057938Y008141D01*
X057990Y008089D01*
X057990Y004858D01*
X056003Y002870D01*
X055930Y002797D01*
X055890Y002702D01*
X055890Y000958D01*
X055642Y000710D01*
X046429Y000710D01*
X046058Y001081D01*
X046090Y001157D01*
X046090Y001393D01*
X045999Y001612D01*
X045832Y001779D01*
X045614Y001869D01*
X045378Y001869D01*
X045159Y001779D01*
X044992Y001612D01*
X044902Y001393D01*
X044902Y001157D01*
X044902Y001234D02*
X032944Y001234D01*
X032944Y001157D02*
X032944Y001393D01*
X032853Y001612D01*
X032686Y001779D01*
X032468Y001869D01*
X032232Y001869D01*
X032014Y001779D01*
X031847Y001612D01*
X031756Y001393D01*
X031756Y001157D01*
X031847Y000939D01*
X032014Y000772D01*
X032232Y000681D01*
X032468Y000681D01*
X032686Y000772D01*
X032853Y000939D01*
X032944Y001157D01*
X032944Y001332D02*
X044902Y001332D01*
X044917Y001431D02*
X032928Y001431D01*
X032888Y001529D02*
X044958Y001529D01*
X045008Y001628D02*
X032838Y001628D01*
X032739Y001726D02*
X045107Y001726D01*
X045270Y001825D02*
X032576Y001825D01*
X032124Y001825D02*
X013915Y001825D01*
X013886Y001853D02*
X014053Y001686D01*
X014144Y001468D01*
X014144Y001232D01*
X014053Y001014D01*
X013886Y000847D01*
X013668Y000756D01*
X013432Y000756D01*
X013214Y000847D01*
X013047Y001014D01*
X012956Y001232D01*
X012956Y001468D01*
X013047Y001686D01*
X013214Y001853D01*
X013432Y001944D01*
X013668Y001944D01*
X013886Y001853D01*
X014014Y001726D02*
X031961Y001726D01*
X031862Y001628D02*
X014078Y001628D01*
X014119Y001529D02*
X031812Y001529D01*
X031772Y001431D02*
X014144Y001431D01*
X014144Y001332D02*
X031756Y001332D01*
X031756Y001234D02*
X014144Y001234D01*
X014104Y001135D02*
X031765Y001135D01*
X031806Y001037D02*
X014063Y001037D01*
X013978Y000938D02*
X031847Y000938D01*
X031946Y000840D02*
X013869Y000840D01*
X013231Y000840D02*
X003690Y000840D01*
X003750Y000938D02*
X013122Y000938D01*
X013037Y001037D02*
X003816Y001037D01*
X003863Y001135D02*
X012996Y001135D01*
X012956Y001234D02*
X003918Y001234D01*
X003961Y001332D02*
X012956Y001332D01*
X012956Y001431D02*
X003985Y001431D01*
X004018Y001529D02*
X012981Y001529D01*
X013022Y001628D02*
X004037Y001628D01*
X004064Y001726D02*
X013086Y001726D01*
X013185Y001825D02*
X004076Y001825D01*
X004077Y001923D02*
X013382Y001923D01*
X013718Y001923D02*
X055890Y001923D01*
X055890Y001825D02*
X045721Y001825D01*
X045885Y001726D02*
X055890Y001726D01*
X055890Y001628D02*
X045983Y001628D01*
X046033Y001529D02*
X055890Y001529D01*
X055890Y001431D02*
X046074Y001431D01*
X046090Y001332D02*
X055890Y001332D01*
X055890Y001234D02*
X046090Y001234D01*
X046080Y001135D02*
X055890Y001135D01*
X055890Y001037D02*
X046102Y001037D01*
X046201Y000938D02*
X055870Y000938D01*
X055772Y000840D02*
X046299Y000840D01*
X046398Y000741D02*
X055673Y000741D01*
X056150Y000850D02*
X056150Y002650D01*
X058250Y004750D01*
X058250Y008350D01*
X058500Y008621D02*
X059290Y008621D01*
X059290Y008523D02*
X058577Y008523D01*
X058618Y008424D02*
X059290Y008424D01*
X059290Y008326D02*
X058618Y008326D01*
X058598Y008227D02*
X059290Y008227D01*
X059290Y008129D02*
X058550Y008129D01*
X058510Y008030D02*
X059290Y008030D01*
X059290Y007932D02*
X058510Y007932D01*
X058510Y007833D02*
X059290Y007833D01*
X059290Y007735D02*
X058510Y007735D01*
X058510Y007636D02*
X059290Y007636D01*
X059290Y007538D02*
X058510Y007538D01*
X058510Y007439D02*
X059290Y007439D01*
X059290Y007341D02*
X058510Y007341D01*
X058510Y007242D02*
X059290Y007242D01*
X059290Y007144D02*
X058510Y007144D01*
X058510Y007045D02*
X059290Y007045D01*
X059290Y006947D02*
X058510Y006947D01*
X058510Y006848D02*
X059280Y006848D01*
X059451Y006651D02*
X060050Y006651D01*
X060050Y006553D02*
X059353Y006553D01*
X059350Y006550D02*
X059550Y006750D01*
X059550Y021650D01*
X059150Y022050D01*
X055500Y022050D01*
X055500Y022600D01*
X059400Y022600D01*
X060050Y021950D01*
X060050Y006050D01*
X059750Y005750D01*
X058750Y005750D01*
X058550Y005950D01*
X058550Y006350D01*
X058750Y006550D01*
X059350Y006550D01*
X059550Y006750D02*
X060050Y006750D01*
X060050Y006848D02*
X059550Y006848D01*
X059550Y006947D02*
X060050Y006947D01*
X060050Y007045D02*
X059550Y007045D01*
X059550Y007144D02*
X060050Y007144D01*
X060050Y007242D02*
X059550Y007242D01*
X059550Y007341D02*
X060050Y007341D01*
X060050Y007439D02*
X059550Y007439D01*
X059550Y007538D02*
X060050Y007538D01*
X060050Y007636D02*
X059550Y007636D01*
X059550Y007735D02*
X060050Y007735D01*
X060050Y007833D02*
X059550Y007833D01*
X059550Y007932D02*
X060050Y007932D01*
X060050Y008030D02*
X059550Y008030D01*
X059550Y008129D02*
X060050Y008129D01*
X060050Y008227D02*
X059550Y008227D01*
X059550Y008326D02*
X060050Y008326D01*
X060050Y008424D02*
X059550Y008424D01*
X059550Y008523D02*
X060050Y008523D01*
X060050Y008621D02*
X059550Y008621D01*
X059550Y008720D02*
X060050Y008720D01*
X060050Y008818D02*
X059550Y008818D01*
X059550Y008917D02*
X060050Y008917D01*
X060050Y009015D02*
X059550Y009015D01*
X059550Y009114D02*
X060050Y009114D01*
X060050Y009212D02*
X059550Y009212D01*
X059550Y009311D02*
X060050Y009311D01*
X060050Y009409D02*
X059550Y009409D01*
X059550Y009508D02*
X060050Y009508D01*
X060050Y009606D02*
X059550Y009606D01*
X059550Y009705D02*
X060050Y009705D01*
X060050Y009803D02*
X059550Y009803D01*
X059550Y009902D02*
X060050Y009902D01*
X060050Y010000D02*
X059550Y010000D01*
X059550Y010099D02*
X060050Y010099D01*
X060050Y010197D02*
X059550Y010197D01*
X059550Y010296D02*
X060050Y010296D01*
X060050Y010394D02*
X059550Y010394D01*
X059550Y010493D02*
X060050Y010493D01*
X060050Y010591D02*
X059550Y010591D01*
X059550Y010690D02*
X060050Y010690D01*
X060050Y010788D02*
X059550Y010788D01*
X059550Y010887D02*
X060050Y010887D01*
X060050Y010985D02*
X059550Y010985D01*
X059550Y011084D02*
X060050Y011084D01*
X060050Y011182D02*
X059550Y011182D01*
X059550Y011281D02*
X060050Y011281D01*
X060050Y011379D02*
X059550Y011379D01*
X059550Y011478D02*
X060050Y011478D01*
X060050Y011576D02*
X059550Y011576D01*
X059550Y011675D02*
X060050Y011675D01*
X060050Y011773D02*
X059550Y011773D01*
X059550Y011872D02*
X060050Y011872D01*
X060050Y011970D02*
X059550Y011970D01*
X059550Y012069D02*
X060050Y012069D01*
X060050Y012167D02*
X059550Y012167D01*
X059550Y012266D02*
X060050Y012266D01*
X060050Y012364D02*
X059550Y012364D01*
X059550Y012463D02*
X060050Y012463D01*
X060050Y012561D02*
X059550Y012561D01*
X059550Y012660D02*
X060050Y012660D01*
X060050Y012758D02*
X059550Y012758D01*
X059550Y012857D02*
X060050Y012857D01*
X060050Y012955D02*
X059550Y012955D01*
X059550Y013054D02*
X060050Y013054D01*
X060050Y013152D02*
X059550Y013152D01*
X059550Y013251D02*
X060050Y013251D01*
X060050Y013349D02*
X059550Y013349D01*
X059550Y013448D02*
X060050Y013448D01*
X060050Y013546D02*
X059550Y013546D01*
X059550Y013645D02*
X060050Y013645D01*
X060050Y013743D02*
X059550Y013743D01*
X059550Y013842D02*
X060050Y013842D01*
X060050Y013940D02*
X059550Y013940D01*
X059550Y014039D02*
X060050Y014039D01*
X060050Y014137D02*
X059550Y014137D01*
X059550Y014236D02*
X060050Y014236D01*
X060050Y014334D02*
X059550Y014334D01*
X059550Y014433D02*
X060050Y014433D01*
X060050Y014531D02*
X059550Y014531D01*
X059550Y014630D02*
X060050Y014630D01*
X060050Y014728D02*
X059550Y014728D01*
X059550Y014827D02*
X060050Y014827D01*
X060050Y014925D02*
X059550Y014925D01*
X059550Y015024D02*
X060050Y015024D01*
X060050Y015122D02*
X059550Y015122D01*
X059550Y015221D02*
X060050Y015221D01*
X060050Y015319D02*
X059550Y015319D01*
X059550Y015418D02*
X060050Y015418D01*
X060050Y015516D02*
X059550Y015516D01*
X059550Y015615D02*
X060050Y015615D01*
X060050Y015713D02*
X059550Y015713D01*
X059550Y015812D02*
X060050Y015812D01*
X060050Y015910D02*
X059550Y015910D01*
X059550Y016009D02*
X060050Y016009D01*
X060050Y016107D02*
X059550Y016107D01*
X059550Y016206D02*
X060050Y016206D01*
X060050Y016304D02*
X059550Y016304D01*
X059550Y016403D02*
X060050Y016403D01*
X060050Y016501D02*
X059550Y016501D01*
X059550Y016600D02*
X060050Y016600D01*
X060050Y016698D02*
X059550Y016698D01*
X059550Y016797D02*
X060050Y016797D01*
X060050Y016895D02*
X059550Y016895D01*
X059550Y016994D02*
X060050Y016994D01*
X060050Y017092D02*
X059550Y017092D01*
X059550Y017191D02*
X060050Y017191D01*
X060050Y017289D02*
X059550Y017289D01*
X059550Y017388D02*
X060050Y017388D01*
X060050Y017486D02*
X059550Y017486D01*
X059550Y017585D02*
X060050Y017585D01*
X060050Y017683D02*
X059550Y017683D01*
X059550Y017782D02*
X060050Y017782D01*
X060050Y017880D02*
X059550Y017880D01*
X059550Y017979D02*
X060050Y017979D01*
X060050Y018077D02*
X059550Y018077D01*
X059550Y018176D02*
X060050Y018176D01*
X060050Y018274D02*
X059550Y018274D01*
X059550Y018373D02*
X060050Y018373D01*
X060050Y018471D02*
X059550Y018471D01*
X059550Y018570D02*
X060050Y018570D01*
X060050Y018668D02*
X059550Y018668D01*
X059550Y018767D02*
X060050Y018767D01*
X060050Y018865D02*
X059550Y018865D01*
X059550Y018964D02*
X060050Y018964D01*
X060050Y019062D02*
X059550Y019062D01*
X059550Y019161D02*
X060050Y019161D01*
X060050Y019259D02*
X059550Y019259D01*
X059550Y019358D02*
X060050Y019358D01*
X060050Y019456D02*
X059550Y019456D01*
X059550Y019555D02*
X060050Y019555D01*
X060050Y019653D02*
X059550Y019653D01*
X059550Y019752D02*
X060050Y019752D01*
X060050Y019850D02*
X059550Y019850D01*
X059550Y019949D02*
X060050Y019949D01*
X060050Y020047D02*
X059550Y020047D01*
X059550Y020146D02*
X060050Y020146D01*
X060050Y020244D02*
X059550Y020244D01*
X059550Y020343D02*
X060050Y020343D01*
X060050Y020441D02*
X059550Y020441D01*
X059550Y020540D02*
X060050Y020540D01*
X060050Y020638D02*
X059550Y020638D01*
X059550Y020737D02*
X060050Y020737D01*
X060050Y020835D02*
X059550Y020835D01*
X059550Y020934D02*
X060050Y020934D01*
X060050Y021032D02*
X059550Y021032D01*
X059550Y021131D02*
X060050Y021131D01*
X060050Y021229D02*
X059550Y021229D01*
X059550Y021328D02*
X060050Y021328D01*
X060050Y021426D02*
X059550Y021426D01*
X059550Y021525D02*
X060050Y021525D01*
X060050Y021623D02*
X059550Y021623D01*
X059478Y021722D02*
X060050Y021722D01*
X060050Y021820D02*
X059380Y021820D01*
X059281Y021919D02*
X060050Y021919D01*
X059983Y022017D02*
X059183Y022017D01*
X059589Y022411D02*
X055500Y022411D01*
X055500Y022313D02*
X059687Y022313D01*
X059786Y022214D02*
X055500Y022214D01*
X055500Y022116D02*
X059884Y022116D01*
X060055Y022313D02*
X060090Y022313D01*
X060090Y022411D02*
X059957Y022411D01*
X059858Y022510D02*
X060090Y022510D01*
X060090Y022608D02*
X059760Y022608D01*
X059661Y022707D02*
X060090Y022707D01*
X060090Y022805D02*
X059563Y022805D01*
X059490Y022510D02*
X055500Y022510D01*
X055220Y022214D02*
X054202Y022214D01*
X053898Y022214D02*
X052202Y022214D01*
X051898Y022214D02*
X050202Y022214D01*
X049898Y022214D02*
X048202Y022214D01*
X047898Y022214D02*
X036754Y022214D01*
X036852Y022116D02*
X055220Y022116D01*
X055220Y022017D02*
X036951Y022017D01*
X037049Y021919D02*
X055220Y021919D01*
X055220Y021820D02*
X037148Y021820D01*
X037170Y021797D02*
X037097Y021870D01*
X035934Y023033D01*
X035898Y023070D01*
X035898Y023070D01*
X035897Y023070D01*
X035850Y023090D01*
X035803Y023110D01*
X035802Y023110D01*
X035751Y023110D01*
X010707Y023208D01*
X010702Y023210D01*
X010198Y023210D01*
X010151Y023212D01*
X010147Y023210D01*
X010142Y023210D01*
X010141Y023210D01*
X010098Y023210D01*
X010003Y023170D01*
X009470Y022638D01*
X009436Y022606D01*
X009433Y022601D01*
X007686Y020854D01*
X007674Y020848D01*
X007650Y020817D01*
X007622Y020790D01*
X007618Y020779D01*
X007598Y020763D01*
X007586Y020740D01*
X007570Y020720D01*
X007562Y020695D01*
X007557Y020685D01*
X007540Y020665D01*
X007533Y020640D01*
X007520Y020617D01*
X007518Y020591D01*
X007515Y020581D01*
X007502Y020558D01*
X007500Y020532D01*
X007492Y020507D01*
X007495Y020481D01*
X007494Y020470D01*
X007486Y020445D01*
X007489Y020419D01*
X007486Y020393D01*
X007494Y020368D01*
X007496Y020347D01*
X007493Y020321D01*
X007501Y020296D01*
X007503Y020270D01*
X007516Y020247D01*
X007522Y020227D01*
X007524Y020201D01*
X007537Y020178D01*
X007544Y020153D01*
X007561Y020133D01*
X007571Y020114D01*
X007578Y020089D01*
X007595Y020069D01*
X007607Y020046D01*
X007627Y020029D01*
X007641Y020013D01*
X007653Y019990D01*
X007673Y019973D01*
X007690Y019953D01*
X007713Y019941D01*
X007729Y019927D01*
X007746Y019907D01*
X007769Y019895D01*
X007789Y019878D01*
X007814Y019871D01*
X007833Y019861D01*
X007853Y019844D01*
X007878Y019837D01*
X007901Y019824D01*
X007927Y019822D01*
X007947Y019816D01*
X007970Y019803D01*
X007996Y019801D01*
X008021Y019793D01*
X008047Y019796D01*
X008068Y019794D01*
X008093Y019786D01*
X008119Y019789D01*
X008145Y019786D01*
X008170Y019794D01*
X008181Y019795D01*
X008207Y019792D01*
X008232Y019800D01*
X008258Y019802D01*
X008281Y019815D01*
X008291Y019818D01*
X008317Y019820D01*
X008340Y019833D01*
X008365Y019840D01*
X008385Y019857D01*
X008395Y019862D01*
X008420Y019870D01*
X008440Y019886D01*
X008463Y019898D01*
X008479Y019918D01*
X008490Y019922D01*
X008517Y019950D01*
X008548Y019974D01*
X008554Y019986D01*
X010758Y022190D01*
X016090Y022190D01*
X016090Y020998D01*
X016130Y020903D01*
X016203Y020830D01*
X016503Y020530D01*
X016582Y020497D01*
X016641Y020438D01*
X016777Y020382D01*
X016923Y020382D01*
X017059Y020438D01*
X017162Y020541D01*
X017218Y020677D01*
X017218Y020823D01*
X017162Y020959D01*
X017059Y021062D01*
X016923Y021118D01*
X016777Y021118D01*
X016687Y021081D01*
X016610Y021158D01*
X016610Y022190D01*
X019190Y022190D01*
X019190Y021198D01*
X019230Y021103D01*
X019303Y021030D01*
X019582Y020751D01*
X019582Y020677D01*
X019638Y020541D01*
X019741Y020438D01*
X019877Y020382D01*
X020023Y020382D01*
X020159Y020438D01*
X020262Y020541D01*
X020318Y020677D01*
X020318Y020823D01*
X020262Y020959D01*
X020159Y021062D01*
X020023Y021118D01*
X019949Y021118D01*
X019710Y021358D01*
X019710Y022190D01*
X022290Y022190D01*
X022290Y021198D01*
X022330Y021103D01*
X022403Y021030D01*
X022682Y020751D01*
X022682Y020677D01*
X022738Y020541D01*
X022841Y020438D01*
X022977Y020382D01*
X023123Y020382D01*
X023259Y020438D01*
X023362Y020541D01*
X023418Y020677D01*
X023418Y020823D01*
X023362Y020959D01*
X023259Y021062D01*
X023123Y021118D01*
X023049Y021118D01*
X022810Y021358D01*
X022810Y022190D01*
X025390Y022190D01*
X025390Y021198D01*
X025430Y021103D01*
X025503Y021030D01*
X025782Y020751D01*
X025782Y020677D01*
X025838Y020541D01*
X025941Y020438D01*
X026077Y020382D01*
X026223Y020382D01*
X026359Y020438D01*
X026462Y020541D01*
X026518Y020677D01*
X026518Y020823D01*
X026462Y020959D01*
X026359Y021062D01*
X026223Y021118D01*
X026149Y021118D01*
X025910Y021358D01*
X025910Y022190D01*
X029390Y022190D01*
X029390Y017610D01*
X022058Y017610D01*
X021620Y018047D01*
X021620Y018047D01*
X021547Y018120D01*
X021518Y018149D01*
X021518Y018223D01*
X021462Y018359D01*
X021359Y018462D01*
X021223Y018518D01*
X021077Y018518D01*
X020941Y018462D01*
X020838Y018359D01*
X020782Y018223D01*
X020782Y018077D01*
X000410Y018077D01*
X000410Y017979D02*
X020822Y017979D01*
X020838Y017941D02*
X020782Y018077D01*
X020782Y018176D02*
X000410Y018176D01*
X000410Y018274D02*
X020803Y018274D01*
X020852Y018373D02*
X000410Y018373D01*
X000410Y018471D02*
X020962Y018471D01*
X021150Y018150D02*
X021400Y017900D01*
X021400Y017800D01*
X020950Y017350D01*
X020950Y013450D01*
X020690Y013711D02*
X020638Y013659D01*
X020582Y013523D01*
X020582Y013377D01*
X020638Y013241D01*
X020741Y013138D01*
X020877Y013082D01*
X021023Y013082D01*
X021159Y013138D01*
X021262Y013241D01*
X021318Y013377D01*
X021318Y013523D01*
X021262Y013659D01*
X021210Y013711D01*
X021210Y017242D01*
X021450Y017482D01*
X021730Y017203D01*
X021803Y017130D01*
X021898Y017090D01*
X028690Y017090D01*
X028690Y013898D01*
X028730Y013803D01*
X028803Y013730D01*
X029182Y013351D01*
X029182Y013277D01*
X029238Y013141D01*
X029341Y013038D01*
X029477Y012982D01*
X029623Y012982D01*
X029759Y013038D01*
X029862Y013141D01*
X029918Y013277D01*
X029918Y013423D01*
X029862Y013559D01*
X029759Y013662D01*
X029623Y013718D01*
X029549Y013718D01*
X029210Y014058D01*
X029210Y017090D01*
X031889Y017090D01*
X031941Y017038D01*
X032077Y016982D01*
X032223Y016982D01*
X032359Y017038D01*
X032462Y017141D01*
X032518Y017277D01*
X032518Y017423D01*
X032462Y017559D01*
X032359Y017662D01*
X032223Y017718D01*
X032077Y017718D01*
X031941Y017662D01*
X031889Y017610D01*
X029910Y017610D01*
X029910Y022190D01*
X035442Y022190D01*
X036290Y021342D01*
X036290Y018160D01*
X034711Y018160D01*
X034659Y018212D01*
X034523Y018268D01*
X034377Y018268D01*
X034241Y018212D01*
X034138Y018109D01*
X034082Y017973D01*
X034082Y017827D01*
X034138Y017691D01*
X034241Y017588D01*
X034377Y017532D01*
X034523Y017532D01*
X034659Y017588D01*
X034711Y017640D01*
X036314Y017640D01*
X036330Y017603D01*
X036403Y017530D01*
X037832Y016100D01*
X037180Y015447D01*
X037140Y015352D01*
X037140Y014411D01*
X037088Y014359D01*
X037032Y014223D01*
X037032Y014077D01*
X037088Y013941D01*
X037191Y013838D01*
X037327Y013782D01*
X037401Y013782D01*
X037590Y013592D01*
X037590Y011658D01*
X036242Y010310D01*
X034811Y010310D01*
X034759Y010362D01*
X034623Y010418D01*
X034477Y010418D01*
X034341Y010362D01*
X034238Y010259D01*
X034182Y010123D01*
X034182Y010049D01*
X033742Y009610D01*
X033211Y009610D01*
X033159Y009662D01*
X033023Y009718D01*
X032877Y009718D01*
X032741Y009662D01*
X032638Y009559D01*
X032582Y009423D01*
X032582Y009277D01*
X032638Y009141D01*
X032741Y009038D01*
X032877Y008982D01*
X033023Y008982D01*
X033159Y009038D01*
X033211Y009090D01*
X033902Y009090D01*
X033997Y009130D01*
X034549Y009682D01*
X034623Y009682D01*
X034759Y009738D01*
X034811Y009790D01*
X036402Y009790D01*
X036497Y009830D01*
X037997Y011330D01*
X038070Y011403D01*
X038110Y011498D01*
X038110Y013752D01*
X038070Y013847D01*
X037768Y014149D01*
X037768Y014223D01*
X037712Y014359D01*
X037660Y014411D01*
X037660Y015192D01*
X038200Y015732D01*
X038766Y015167D01*
X038801Y015130D01*
X038802Y015130D01*
X038803Y015130D01*
X038850Y015110D01*
X038897Y015090D01*
X038898Y015090D01*
X038949Y015090D01*
X043690Y015061D01*
X043690Y012911D01*
X043638Y012859D01*
X043582Y012723D01*
X043582Y012577D01*
X043638Y012441D01*
X043741Y012338D01*
X043877Y012282D01*
X044023Y012282D01*
X044159Y012338D01*
X044262Y012441D01*
X044318Y012577D01*
X044318Y012723D01*
X044262Y012859D01*
X044210Y012911D01*
X044210Y015058D01*
X049890Y015022D01*
X049890Y012111D01*
X049838Y012059D01*
X049782Y011923D01*
X049782Y011777D01*
X049838Y011641D01*
X049941Y011538D01*
X050077Y011482D01*
X050223Y011482D01*
X050359Y011538D01*
X050411Y011590D01*
X050842Y011590D01*
X051632Y010800D01*
X051230Y010397D01*
X051190Y010302D01*
X051190Y009898D01*
X051230Y009803D01*
X051303Y009730D01*
X052203Y008830D01*
X052298Y008790D01*
X052389Y008790D01*
X052441Y008738D01*
X052577Y008682D01*
X052723Y008682D01*
X052859Y008738D01*
X052962Y008841D01*
X053018Y008977D01*
X053018Y009123D01*
X052962Y009259D01*
X052859Y009362D01*
X052723Y009418D01*
X052577Y009418D01*
X052441Y009362D01*
X052423Y009344D01*
X052086Y009682D01*
X052123Y009682D01*
X052259Y009738D01*
X052311Y009790D01*
X053789Y009790D01*
X053841Y009738D01*
X053977Y009682D01*
X054123Y009682D01*
X054259Y009738D01*
X054362Y009841D01*
X054418Y009977D01*
X054418Y010123D01*
X054362Y010259D01*
X054259Y010362D01*
X054123Y010418D01*
X053977Y010418D01*
X053841Y010362D01*
X053789Y010310D01*
X053531Y010310D01*
X053562Y010341D01*
X053618Y010477D01*
X053618Y010623D01*
X053562Y010759D01*
X053459Y010862D01*
X053323Y010918D01*
X053177Y010918D01*
X053041Y010862D01*
X052989Y010810D01*
X052711Y010810D01*
X052659Y010862D01*
X052523Y010918D01*
X052377Y010918D01*
X052287Y010881D01*
X052220Y010947D01*
X052220Y010947D01*
X052147Y011020D01*
X051170Y011997D01*
X051097Y012070D01*
X051002Y012110D01*
X050411Y012110D01*
X050410Y012111D01*
X050410Y015019D01*
X052290Y015008D01*
X052290Y014161D01*
X052238Y014109D01*
X052182Y013973D01*
X052182Y013827D01*
X052238Y013691D01*
X052341Y013588D01*
X052477Y013532D01*
X052623Y013532D01*
X052759Y013588D01*
X052862Y013691D01*
X052918Y013827D01*
X052918Y013973D01*
X052862Y014109D01*
X052810Y014161D01*
X052810Y015004D01*
X053590Y015000D01*
X053590Y014911D01*
X053538Y014859D01*
X053482Y014723D01*
X053482Y014577D01*
X053538Y014441D01*
X053641Y014338D01*
X053777Y014282D01*
X053923Y014282D01*
X054059Y014338D01*
X054162Y014441D01*
X054218Y014577D01*
X054218Y014723D01*
X054162Y014859D01*
X054110Y014911D01*
X054110Y014996D01*
X055098Y014990D01*
X055149Y014990D01*
X055200Y014990D01*
X055201Y014990D01*
X055202Y014990D01*
X055249Y015009D01*
X055296Y015029D01*
X055297Y015029D01*
X055297Y015030D01*
X055333Y015066D01*
X055370Y015101D01*
X055370Y015102D01*
X055370Y015103D01*
X055390Y015150D01*
X055410Y015197D01*
X055410Y015198D01*
X055410Y015249D01*
X055410Y015300D01*
X055410Y015301D01*
X055410Y015390D01*
X055442Y015390D01*
X055690Y015142D01*
X055690Y012498D01*
X055730Y012403D01*
X055803Y012330D01*
X056303Y011830D01*
X056398Y011790D01*
X057302Y011790D01*
X057397Y011830D01*
X057470Y011903D01*
X057770Y012203D01*
X057803Y012282D01*
X057862Y012341D01*
X057918Y012477D01*
X057918Y012623D01*
X057862Y012759D01*
X057759Y012862D01*
X057623Y012918D01*
X057477Y012918D01*
X057341Y012862D01*
X057238Y012759D01*
X057182Y012623D01*
X057182Y012477D01*
X057219Y012387D01*
X057142Y012310D01*
X056558Y012310D01*
X056210Y012658D01*
X056210Y015302D01*
X056170Y015397D01*
X055770Y015797D01*
X055697Y015870D01*
X055602Y015910D01*
X055410Y015910D01*
X055410Y016099D01*
X055410Y016100D01*
X055410Y016151D01*
X055410Y016202D01*
X055410Y016202D01*
X055410Y016203D01*
X055390Y016250D01*
X055370Y016297D01*
X055370Y016298D01*
X055370Y016299D01*
X055333Y016334D01*
X055297Y016370D01*
X055297Y016371D01*
X055296Y016371D01*
X055249Y016391D01*
X055202Y016410D01*
X055201Y016410D01*
X055200Y016410D01*
X055149Y016410D01*
X055098Y016410D01*
X055098Y016410D01*
X038957Y016311D01*
X037210Y018058D01*
X037210Y021702D01*
X037170Y021797D01*
X037202Y021722D02*
X055220Y021722D01*
X055220Y021623D02*
X037210Y021623D01*
X037210Y021525D02*
X055220Y021525D01*
X055220Y021426D02*
X037210Y021426D01*
X037210Y021328D02*
X055220Y021328D01*
X055220Y021229D02*
X037210Y021229D01*
X037210Y021131D02*
X055220Y021131D01*
X055220Y021032D02*
X037210Y021032D01*
X037210Y020934D02*
X055167Y020934D01*
X055068Y020835D02*
X037210Y020835D01*
X037210Y020737D02*
X054970Y020737D01*
X054871Y020638D02*
X037210Y020638D01*
X037210Y020540D02*
X054773Y020540D01*
X054674Y020441D02*
X045910Y020441D01*
X046024Y020343D02*
X054576Y020343D01*
X054477Y020244D02*
X046123Y020244D01*
X046221Y020146D02*
X054379Y020146D01*
X054280Y020047D02*
X046320Y020047D01*
X046418Y019949D02*
X054182Y019949D01*
X054083Y019850D02*
X046517Y019850D01*
X046615Y019752D02*
X053985Y019752D01*
X053886Y019653D02*
X046714Y019653D01*
X046812Y019555D02*
X053788Y019555D01*
X054327Y019161D02*
X059290Y019161D01*
X059290Y019259D02*
X054426Y019259D01*
X054524Y019358D02*
X059290Y019358D01*
X059290Y019456D02*
X054623Y019456D01*
X054721Y019555D02*
X059290Y019555D01*
X059290Y019653D02*
X054820Y019653D01*
X054918Y019752D02*
X059290Y019752D01*
X059290Y019850D02*
X055017Y019850D01*
X055115Y019949D02*
X058695Y019949D01*
X058597Y020047D02*
X055214Y020047D01*
X055312Y020146D02*
X058498Y020146D01*
X058415Y020244D02*
X055411Y020244D01*
X055509Y020343D02*
X058415Y020343D01*
X058415Y020441D02*
X055608Y020441D01*
X055706Y020540D02*
X058415Y020540D01*
X058415Y020638D02*
X055805Y020638D01*
X055860Y020737D02*
X058480Y020737D01*
X058579Y020835D02*
X055880Y020835D01*
X055880Y020934D02*
X058677Y020934D01*
X058612Y021032D02*
X055880Y021032D01*
X055880Y021131D02*
X058513Y021131D01*
X058415Y021229D02*
X055880Y021229D01*
X055880Y021328D02*
X058415Y021328D01*
X058415Y021426D02*
X055880Y021426D01*
X055880Y021525D02*
X058415Y021525D01*
X058415Y021623D02*
X055880Y021623D01*
X055880Y021722D02*
X058465Y021722D01*
X057550Y022350D02*
X057450Y022250D01*
X057350Y022250D01*
X056750Y022250D02*
X056350Y022250D01*
X054159Y022904D02*
X060090Y022904D01*
X060090Y023002D02*
X046765Y023002D01*
X046863Y022904D02*
X047941Y022904D01*
X048159Y022904D02*
X049941Y022904D01*
X050159Y022904D02*
X051941Y022904D01*
X052159Y022904D02*
X053941Y022904D01*
X057444Y024480D02*
X002859Y024480D01*
X003054Y024578D02*
X057296Y024578D01*
X057149Y024677D02*
X003201Y024677D01*
X003349Y024775D02*
X057042Y024775D01*
X056948Y024874D02*
X003457Y024874D01*
X003551Y024972D02*
X056861Y024972D01*
X056783Y025071D02*
X003638Y025071D01*
X003716Y025169D02*
X056718Y025169D01*
X056664Y025268D02*
X003781Y025268D01*
X003835Y025366D02*
X056621Y025366D01*
X056572Y025465D02*
X012376Y025465D01*
X012453Y025497D02*
X012603Y025647D01*
X012685Y025844D01*
X012685Y026056D01*
X012603Y026253D01*
X012453Y026403D01*
X012340Y026450D01*
X012453Y026497D01*
X012603Y026647D01*
X012685Y026844D01*
X012685Y027056D01*
X012603Y027253D01*
X012453Y027403D01*
X012256Y027485D01*
X012044Y027485D01*
X011847Y027403D01*
X011697Y027253D01*
X011650Y027140D01*
X011603Y027253D01*
X011453Y027403D01*
X011256Y027485D01*
X011044Y027485D01*
X010847Y027403D01*
X010697Y027253D01*
X010615Y027056D01*
X010615Y027048D01*
X010613Y027061D01*
X010590Y027132D01*
X010556Y027199D01*
X010512Y027259D01*
X010459Y027312D01*
X010399Y027356D01*
X010332Y027390D01*
X010261Y027413D01*
X010200Y027423D01*
X010200Y027000D01*
X010100Y027000D01*
X010100Y027423D01*
X010039Y027413D01*
X009968Y027390D01*
X009901Y027356D01*
X009841Y027312D01*
X009788Y027259D01*
X009744Y027199D01*
X009710Y027132D01*
X009687Y027061D01*
X009677Y027000D01*
X010100Y027000D01*
X010100Y026900D01*
X010200Y026900D01*
X010200Y026477D01*
X010261Y026487D01*
X010332Y026510D01*
X010399Y026544D01*
X010459Y026588D01*
X010512Y026641D01*
X010556Y026701D01*
X010590Y026768D01*
X010613Y026839D01*
X010615Y026852D01*
X010615Y026844D01*
X010697Y026647D01*
X010847Y026497D01*
X010960Y026450D01*
X010847Y026403D01*
X010697Y026253D01*
X010615Y026056D01*
X010615Y026048D01*
X010613Y026061D01*
X010590Y026132D01*
X010556Y026199D01*
X010512Y026259D01*
X010459Y026312D01*
X010399Y026356D01*
X010332Y026390D01*
X010261Y026413D01*
X010200Y026423D01*
X010200Y026000D01*
X010100Y026000D01*
X010100Y026423D01*
X010039Y026413D01*
X009968Y026390D01*
X009901Y026356D01*
X009841Y026312D01*
X009788Y026259D01*
X009744Y026199D01*
X009710Y026132D01*
X009687Y026061D01*
X009677Y026000D01*
X010100Y026000D01*
X010100Y025900D01*
X009677Y025900D01*
X009687Y025839D01*
X009710Y025768D01*
X009744Y025701D01*
X009788Y025641D01*
X009841Y025588D01*
X009901Y025544D01*
X009968Y025510D01*
X010039Y025487D01*
X010100Y025477D01*
X010100Y025900D01*
X010200Y025900D01*
X010200Y025477D01*
X010261Y025487D01*
X010332Y025510D01*
X010399Y025544D01*
X010459Y025588D01*
X010512Y025641D01*
X010556Y025701D01*
X010590Y025768D01*
X010613Y025839D01*
X010615Y025852D01*
X010615Y025844D01*
X010697Y025647D01*
X010847Y025497D01*
X011044Y025415D01*
X011256Y025415D01*
X011453Y025497D01*
X011603Y025647D01*
X011650Y025760D01*
X011697Y025647D01*
X011847Y025497D01*
X012044Y025415D01*
X012256Y025415D01*
X012453Y025497D01*
X012519Y025563D02*
X056538Y025563D01*
X056496Y025662D02*
X012609Y025662D01*
X012650Y025760D02*
X056471Y025760D01*
X056457Y025859D02*
X012685Y025859D01*
X012685Y025957D02*
X056434Y025957D01*
X056418Y026056D02*
X012685Y026056D01*
X012644Y026154D02*
X056421Y026154D01*
X056414Y026253D02*
X055969Y026253D01*
X055951Y026245D02*
X056136Y026322D01*
X056278Y026464D01*
X056355Y026649D01*
X056355Y026851D01*
X056278Y027036D01*
X056136Y027178D01*
X055951Y027255D01*
X055749Y027255D01*
X055564Y027178D01*
X055422Y027036D01*
X055350Y026863D01*
X055278Y027036D01*
X055136Y027178D01*
X054951Y027255D01*
X054749Y027255D01*
X054564Y027178D01*
X054422Y027036D01*
X054350Y026863D01*
X054278Y027036D01*
X054136Y027178D01*
X053951Y027255D01*
X053749Y027255D01*
X053564Y027178D01*
X053422Y027036D01*
X053350Y026863D01*
X053278Y027036D01*
X053136Y027178D01*
X052951Y027255D01*
X052749Y027255D01*
X052564Y027178D01*
X052422Y027036D01*
X052350Y026863D01*
X052278Y027036D01*
X052136Y027178D01*
X051951Y027255D01*
X051749Y027255D01*
X051564Y027178D01*
X051422Y027036D01*
X051350Y026863D01*
X051278Y027036D01*
X051136Y027178D01*
X050951Y027255D01*
X050749Y027255D01*
X050564Y027178D01*
X050422Y027036D01*
X050350Y026863D01*
X050278Y027036D01*
X050136Y027178D01*
X049951Y027255D01*
X049749Y027255D01*
X049564Y027178D01*
X049422Y027036D01*
X049350Y026863D01*
X049278Y027036D01*
X049136Y027178D01*
X048951Y027255D01*
X048749Y027255D01*
X048564Y027178D01*
X048422Y027036D01*
X048350Y026863D01*
X048278Y027036D01*
X048136Y027178D01*
X047951Y027255D01*
X047749Y027255D01*
X047564Y027178D01*
X047422Y027036D01*
X047350Y026863D01*
X047278Y027036D01*
X047136Y027178D01*
X046951Y027255D01*
X046749Y027255D01*
X046564Y027178D01*
X046422Y027036D01*
X046345Y026851D01*
X046345Y026649D01*
X046422Y026464D01*
X046564Y026322D01*
X046749Y026245D01*
X046951Y026245D01*
X047136Y026322D01*
X047278Y026464D01*
X047350Y026637D01*
X047422Y026464D01*
X047564Y026322D01*
X047749Y026245D01*
X047951Y026245D01*
X048136Y026322D01*
X048278Y026464D01*
X048350Y026637D01*
X048422Y026464D01*
X048564Y026322D01*
X048749Y026245D01*
X048951Y026245D01*
X049136Y026322D01*
X049278Y026464D01*
X049350Y026637D01*
X049422Y026464D01*
X049564Y026322D01*
X049749Y026245D01*
X049951Y026245D01*
X050136Y026322D01*
X050278Y026464D01*
X050350Y026637D01*
X050422Y026464D01*
X050564Y026322D01*
X050749Y026245D01*
X050951Y026245D01*
X051136Y026322D01*
X051278Y026464D01*
X051350Y026637D01*
X051422Y026464D01*
X051564Y026322D01*
X051749Y026245D01*
X051951Y026245D01*
X052136Y026322D01*
X052278Y026464D01*
X052350Y026637D01*
X052422Y026464D01*
X052564Y026322D01*
X052749Y026245D01*
X052951Y026245D01*
X053136Y026322D01*
X053278Y026464D01*
X053350Y026637D01*
X053422Y026464D01*
X053564Y026322D01*
X053749Y026245D01*
X053951Y026245D01*
X054136Y026322D01*
X054278Y026464D01*
X054350Y026637D01*
X054422Y026464D01*
X054564Y026322D01*
X054749Y026245D01*
X054951Y026245D01*
X055136Y026322D01*
X055278Y026464D01*
X055350Y026637D01*
X055422Y026464D01*
X055564Y026322D01*
X055749Y026245D01*
X055951Y026245D01*
X055731Y026253D02*
X054969Y026253D01*
X055166Y026351D02*
X055534Y026351D01*
X055436Y026450D02*
X055264Y026450D01*
X055313Y026548D02*
X055387Y026548D01*
X054731Y026253D02*
X053969Y026253D01*
X054166Y026351D02*
X054534Y026351D01*
X054436Y026450D02*
X054264Y026450D01*
X054313Y026548D02*
X054387Y026548D01*
X053731Y026253D02*
X052969Y026253D01*
X053166Y026351D02*
X053534Y026351D01*
X053436Y026450D02*
X053264Y026450D01*
X053313Y026548D02*
X053387Y026548D01*
X052731Y026253D02*
X051969Y026253D01*
X052166Y026351D02*
X052534Y026351D01*
X052436Y026450D02*
X052264Y026450D01*
X052313Y026548D02*
X052387Y026548D01*
X051731Y026253D02*
X050969Y026253D01*
X051166Y026351D02*
X051534Y026351D01*
X051436Y026450D02*
X051264Y026450D01*
X051313Y026548D02*
X051387Y026548D01*
X050731Y026253D02*
X049969Y026253D01*
X050166Y026351D02*
X050534Y026351D01*
X050436Y026450D02*
X050264Y026450D01*
X050313Y026548D02*
X050387Y026548D01*
X049731Y026253D02*
X048969Y026253D01*
X049166Y026351D02*
X049534Y026351D01*
X049436Y026450D02*
X049264Y026450D01*
X049313Y026548D02*
X049387Y026548D01*
X048731Y026253D02*
X047969Y026253D01*
X048166Y026351D02*
X048534Y026351D01*
X048436Y026450D02*
X048264Y026450D01*
X048313Y026548D02*
X048387Y026548D01*
X047731Y026253D02*
X046969Y026253D01*
X047166Y026351D02*
X047534Y026351D01*
X047436Y026450D02*
X047264Y026450D01*
X047313Y026548D02*
X047387Y026548D01*
X046731Y026253D02*
X045269Y026253D01*
X045251Y026245D02*
X045436Y026322D01*
X045578Y026464D01*
X045655Y026649D01*
X045655Y026851D01*
X045578Y027036D01*
X045436Y027178D01*
X045251Y027255D01*
X045049Y027255D01*
X044864Y027178D01*
X044722Y027036D01*
X044650Y026863D01*
X044578Y027036D01*
X044436Y027178D01*
X044251Y027255D01*
X044049Y027255D01*
X043864Y027178D01*
X043722Y027036D01*
X043650Y026863D01*
X043578Y027036D01*
X043436Y027178D01*
X043251Y027255D01*
X043049Y027255D01*
X042864Y027178D01*
X042722Y027036D01*
X042650Y026863D01*
X042578Y027036D01*
X042436Y027178D01*
X042251Y027255D01*
X042049Y027255D01*
X041864Y027178D01*
X041722Y027036D01*
X041650Y026863D01*
X041578Y027036D01*
X041436Y027178D01*
X041251Y027255D01*
X041049Y027255D01*
X040864Y027178D01*
X040722Y027036D01*
X040650Y026863D01*
X040578Y027036D01*
X040436Y027178D01*
X040251Y027255D01*
X040049Y027255D01*
X039864Y027178D01*
X039722Y027036D01*
X039650Y026863D01*
X039578Y027036D01*
X039436Y027178D01*
X039251Y027255D01*
X039049Y027255D01*
X038864Y027178D01*
X038722Y027036D01*
X038650Y026863D01*
X038578Y027036D01*
X038436Y027178D01*
X038251Y027255D01*
X038049Y027255D01*
X037864Y027178D01*
X037722Y027036D01*
X037650Y026863D01*
X037578Y027036D01*
X037436Y027178D01*
X037251Y027255D01*
X037049Y027255D01*
X036864Y027178D01*
X036722Y027036D01*
X036650Y026863D01*
X036578Y027036D01*
X036436Y027178D01*
X036251Y027255D01*
X036049Y027255D01*
X035864Y027178D01*
X035722Y027036D01*
X035645Y026851D01*
X035645Y026649D01*
X035722Y026464D01*
X035864Y026322D01*
X036049Y026245D01*
X036251Y026245D01*
X036436Y026322D01*
X036578Y026464D01*
X036650Y026637D01*
X036722Y026464D01*
X036864Y026322D01*
X037049Y026245D01*
X037251Y026245D01*
X037436Y026322D01*
X037578Y026464D01*
X037650Y026637D01*
X037722Y026464D01*
X037864Y026322D01*
X038049Y026245D01*
X038251Y026245D01*
X038436Y026322D01*
X038578Y026464D01*
X038650Y026637D01*
X038722Y026464D01*
X038864Y026322D01*
X039049Y026245D01*
X039251Y026245D01*
X039436Y026322D01*
X039578Y026464D01*
X039650Y026637D01*
X039722Y026464D01*
X039864Y026322D01*
X040049Y026245D01*
X040251Y026245D01*
X040436Y026322D01*
X040578Y026464D01*
X040650Y026637D01*
X040722Y026464D01*
X040864Y026322D01*
X041049Y026245D01*
X041251Y026245D01*
X041436Y026322D01*
X041578Y026464D01*
X041650Y026637D01*
X041722Y026464D01*
X041864Y026322D01*
X042049Y026245D01*
X042251Y026245D01*
X042436Y026322D01*
X042578Y026464D01*
X042650Y026637D01*
X042722Y026464D01*
X042864Y026322D01*
X043049Y026245D01*
X043251Y026245D01*
X043436Y026322D01*
X043578Y026464D01*
X043650Y026637D01*
X043722Y026464D01*
X043864Y026322D01*
X044049Y026245D01*
X044251Y026245D01*
X044436Y026322D01*
X044578Y026464D01*
X044650Y026637D01*
X044722Y026464D01*
X044864Y026322D01*
X045049Y026245D01*
X045251Y026245D01*
X045031Y026253D02*
X044269Y026253D01*
X044466Y026351D02*
X044834Y026351D01*
X044736Y026450D02*
X044564Y026450D01*
X044613Y026548D02*
X044687Y026548D01*
X044031Y026253D02*
X043269Y026253D01*
X043466Y026351D02*
X043834Y026351D01*
X043736Y026450D02*
X043564Y026450D01*
X043613Y026548D02*
X043687Y026548D01*
X043031Y026253D02*
X042269Y026253D01*
X042466Y026351D02*
X042834Y026351D01*
X042736Y026450D02*
X042564Y026450D01*
X042613Y026548D02*
X042687Y026548D01*
X042031Y026253D02*
X041269Y026253D01*
X041466Y026351D02*
X041834Y026351D01*
X041736Y026450D02*
X041564Y026450D01*
X041613Y026548D02*
X041687Y026548D01*
X041031Y026253D02*
X040269Y026253D01*
X040466Y026351D02*
X040834Y026351D01*
X040736Y026450D02*
X040564Y026450D01*
X040613Y026548D02*
X040687Y026548D01*
X040031Y026253D02*
X039269Y026253D01*
X039466Y026351D02*
X039834Y026351D01*
X039736Y026450D02*
X039564Y026450D01*
X039613Y026548D02*
X039687Y026548D01*
X039031Y026253D02*
X038269Y026253D01*
X038466Y026351D02*
X038834Y026351D01*
X038736Y026450D02*
X038564Y026450D01*
X038613Y026548D02*
X038687Y026548D01*
X038031Y026253D02*
X037269Y026253D01*
X037466Y026351D02*
X037834Y026351D01*
X037736Y026450D02*
X037564Y026450D01*
X037613Y026548D02*
X037687Y026548D01*
X037031Y026253D02*
X036269Y026253D01*
X036466Y026351D02*
X036834Y026351D01*
X036736Y026450D02*
X036564Y026450D01*
X036613Y026548D02*
X036687Y026548D01*
X036031Y026253D02*
X033509Y026253D01*
X033472Y026215D02*
X033785Y026528D01*
X033785Y026544D01*
X034053Y026275D01*
X034200Y026275D01*
X034200Y026700D01*
X034300Y026700D01*
X034300Y026800D01*
X034725Y026800D01*
X034725Y026947D01*
X034447Y027225D01*
X034300Y027225D01*
X034300Y026800D01*
X034200Y026800D01*
X034200Y027225D01*
X034053Y027225D01*
X033785Y026956D01*
X033785Y026972D01*
X033472Y027285D01*
X033028Y027285D01*
X032715Y026972D01*
X032715Y026528D01*
X033028Y026215D01*
X033472Y026215D01*
X033607Y026351D02*
X033977Y026351D01*
X033879Y026450D02*
X033706Y026450D01*
X034200Y026450D02*
X034300Y026450D01*
X034300Y026548D02*
X034200Y026548D01*
X034200Y026647D02*
X034300Y026647D01*
X034300Y026700D02*
X034300Y026275D01*
X034447Y026275D01*
X034725Y026553D01*
X034725Y026700D01*
X034300Y026700D01*
X034300Y026745D02*
X035645Y026745D01*
X035646Y026647D02*
X034725Y026647D01*
X034720Y026548D02*
X035687Y026548D01*
X035736Y026450D02*
X034621Y026450D01*
X034523Y026351D02*
X035834Y026351D01*
X035645Y026844D02*
X034725Y026844D01*
X034725Y026942D02*
X035683Y026942D01*
X035726Y027041D02*
X034631Y027041D01*
X034532Y027139D02*
X035825Y027139D01*
X036007Y027238D02*
X033519Y027238D01*
X033617Y027139D02*
X033968Y027139D01*
X033869Y027041D02*
X033716Y027041D01*
X034200Y027041D02*
X034300Y027041D01*
X034300Y027139D02*
X034200Y027139D01*
X034200Y026942D02*
X034300Y026942D01*
X034300Y026844D02*
X034200Y026844D01*
X034200Y026351D02*
X034300Y026351D01*
X032991Y026253D02*
X030209Y026253D01*
X030172Y026215D02*
X030485Y026528D01*
X030485Y026544D01*
X030753Y026275D01*
X030900Y026275D01*
X030900Y026700D01*
X031000Y026700D01*
X031000Y026800D01*
X031425Y026800D01*
X031425Y026947D01*
X031147Y027225D01*
X031000Y027225D01*
X031000Y026800D01*
X030900Y026800D01*
X030900Y027225D01*
X030753Y027225D01*
X030485Y026956D01*
X030485Y026972D01*
X030172Y027285D01*
X029728Y027285D01*
X029415Y026972D01*
X029415Y026528D01*
X029728Y026215D01*
X030172Y026215D01*
X030307Y026351D02*
X030677Y026351D01*
X030579Y026450D02*
X030406Y026450D01*
X030900Y026450D02*
X031000Y026450D01*
X031000Y026548D02*
X030900Y026548D01*
X030900Y026647D02*
X031000Y026647D01*
X031000Y026700D02*
X031000Y026275D01*
X031147Y026275D01*
X031425Y026553D01*
X031425Y026700D01*
X031000Y026700D01*
X031000Y026745D02*
X032715Y026745D01*
X032715Y026647D02*
X031425Y026647D01*
X031420Y026548D02*
X032715Y026548D01*
X032794Y026450D02*
X031321Y026450D01*
X031223Y026351D02*
X032893Y026351D01*
X032715Y026844D02*
X031425Y026844D01*
X031425Y026942D02*
X032715Y026942D01*
X032784Y027041D02*
X031331Y027041D01*
X031232Y027139D02*
X032883Y027139D01*
X032981Y027238D02*
X030219Y027238D01*
X030317Y027139D02*
X030668Y027139D01*
X030569Y027041D02*
X030416Y027041D01*
X030900Y027041D02*
X031000Y027041D01*
X031000Y027139D02*
X030900Y027139D01*
X030900Y026942D02*
X031000Y026942D01*
X031000Y026844D02*
X030900Y026844D01*
X030900Y026351D02*
X031000Y026351D01*
X029691Y026253D02*
X027009Y026253D01*
X026972Y026215D02*
X027285Y026528D01*
X027285Y026544D01*
X027553Y026275D01*
X027700Y026275D01*
X027700Y026700D01*
X027800Y026700D01*
X027800Y026800D01*
X028225Y026800D01*
X028225Y026947D01*
X027947Y027225D01*
X027800Y027225D01*
X027800Y026800D01*
X027700Y026800D01*
X027700Y027225D01*
X027553Y027225D01*
X027285Y026956D01*
X027285Y026972D01*
X026972Y027285D01*
X026528Y027285D01*
X026215Y026972D01*
X026215Y026528D01*
X026528Y026215D01*
X026972Y026215D01*
X027107Y026351D02*
X027477Y026351D01*
X027379Y026450D02*
X027206Y026450D01*
X027700Y026450D02*
X027800Y026450D01*
X027800Y026548D02*
X027700Y026548D01*
X027700Y026647D02*
X027800Y026647D01*
X027800Y026700D02*
X027800Y026275D01*
X027947Y026275D01*
X028225Y026553D01*
X028225Y026700D01*
X027800Y026700D01*
X027800Y026745D02*
X029415Y026745D01*
X029415Y026647D02*
X028225Y026647D01*
X028220Y026548D02*
X029415Y026548D01*
X029494Y026450D02*
X028121Y026450D01*
X028023Y026351D02*
X029593Y026351D01*
X029415Y026844D02*
X028225Y026844D01*
X028225Y026942D02*
X029415Y026942D01*
X029484Y027041D02*
X028131Y027041D01*
X028032Y027139D02*
X029583Y027139D01*
X029681Y027238D02*
X027019Y027238D01*
X027117Y027139D02*
X027468Y027139D01*
X027369Y027041D02*
X027216Y027041D01*
X027700Y027041D02*
X027800Y027041D01*
X027800Y027139D02*
X027700Y027139D01*
X027700Y026942D02*
X027800Y026942D01*
X027800Y026844D02*
X027700Y026844D01*
X027700Y026351D02*
X027800Y026351D01*
X026491Y026253D02*
X025009Y026253D01*
X024972Y026215D02*
X025285Y026528D01*
X025285Y026972D01*
X024972Y027285D01*
X024528Y027285D01*
X024250Y027006D01*
X023972Y027285D01*
X023528Y027285D01*
X023215Y026972D01*
X023215Y026528D01*
X023528Y026215D01*
X023972Y026215D01*
X024250Y026494D01*
X024528Y026215D01*
X024972Y026215D01*
X025107Y026351D02*
X026393Y026351D01*
X026294Y026450D02*
X025206Y026450D01*
X025285Y026548D02*
X026215Y026548D01*
X026215Y026647D02*
X025285Y026647D01*
X025285Y026745D02*
X026215Y026745D01*
X026215Y026844D02*
X025285Y026844D01*
X025285Y026942D02*
X026215Y026942D01*
X026284Y027041D02*
X025216Y027041D01*
X025117Y027139D02*
X026383Y027139D01*
X026481Y027238D02*
X025019Y027238D01*
X024481Y027238D02*
X024019Y027238D01*
X024117Y027139D02*
X024383Y027139D01*
X024284Y027041D02*
X024216Y027041D01*
X024206Y026450D02*
X024294Y026450D01*
X024393Y026351D02*
X024107Y026351D01*
X024009Y026253D02*
X024491Y026253D01*
X024250Y025650D02*
X024250Y025450D01*
X023491Y026253D02*
X021909Y026253D01*
X021872Y026215D02*
X022185Y026528D01*
X022185Y026972D01*
X021872Y027285D01*
X021428Y027285D01*
X021150Y027006D01*
X020872Y027285D01*
X020428Y027285D01*
X020115Y026972D01*
X020115Y026528D01*
X020428Y026215D01*
X020872Y026215D01*
X021150Y026494D01*
X021428Y026215D01*
X021872Y026215D01*
X022007Y026351D02*
X023393Y026351D01*
X023294Y026450D02*
X022106Y026450D01*
X022185Y026548D02*
X023215Y026548D01*
X023215Y026647D02*
X022185Y026647D01*
X022185Y026745D02*
X023215Y026745D01*
X023215Y026844D02*
X022185Y026844D01*
X022185Y026942D02*
X023215Y026942D01*
X023284Y027041D02*
X022116Y027041D01*
X022017Y027139D02*
X023383Y027139D01*
X023481Y027238D02*
X021919Y027238D01*
X021381Y027238D02*
X020919Y027238D01*
X021017Y027139D02*
X021283Y027139D01*
X021184Y027041D02*
X021116Y027041D01*
X020381Y027238D02*
X018819Y027238D01*
X018772Y027285D02*
X018328Y027285D01*
X018050Y027006D01*
X017772Y027285D01*
X017328Y027285D01*
X017015Y026972D01*
X017015Y026528D01*
X017328Y026215D01*
X017772Y026215D01*
X018050Y026494D01*
X018328Y026215D01*
X018772Y026215D01*
X019085Y026528D01*
X019085Y026972D01*
X018772Y027285D01*
X018917Y027139D02*
X020283Y027139D01*
X020184Y027041D02*
X019016Y027041D01*
X019085Y026942D02*
X020115Y026942D01*
X020115Y026844D02*
X019085Y026844D01*
X019085Y026745D02*
X020115Y026745D01*
X020115Y026647D02*
X019085Y026647D01*
X019085Y026548D02*
X020115Y026548D01*
X020194Y026450D02*
X019006Y026450D01*
X018907Y026351D02*
X020293Y026351D01*
X020391Y026253D02*
X018809Y026253D01*
X018291Y026253D02*
X017809Y026253D01*
X017907Y026351D02*
X018193Y026351D01*
X018094Y026450D02*
X018006Y026450D01*
X017291Y026253D02*
X015709Y026253D01*
X015672Y026215D02*
X015985Y026528D01*
X015985Y026972D01*
X015672Y027285D01*
X015228Y027285D01*
X014950Y027006D01*
X014672Y027285D01*
X014228Y027285D01*
X013915Y026972D01*
X013915Y026528D01*
X014228Y026215D01*
X014672Y026215D01*
X014950Y026494D01*
X015228Y026215D01*
X015672Y026215D01*
X015807Y026351D02*
X017193Y026351D01*
X017094Y026450D02*
X015906Y026450D01*
X015985Y026548D02*
X017015Y026548D01*
X017015Y026647D02*
X015985Y026647D01*
X015985Y026745D02*
X017015Y026745D01*
X017015Y026844D02*
X015985Y026844D01*
X015985Y026942D02*
X017015Y026942D01*
X017084Y027041D02*
X015916Y027041D01*
X015817Y027139D02*
X017183Y027139D01*
X017281Y027238D02*
X015719Y027238D01*
X015181Y027238D02*
X014719Y027238D01*
X014817Y027139D02*
X015083Y027139D01*
X014984Y027041D02*
X014916Y027041D01*
X014181Y027238D02*
X012610Y027238D01*
X012651Y027139D02*
X014083Y027139D01*
X013984Y027041D02*
X012685Y027041D01*
X012685Y026942D02*
X013915Y026942D01*
X013915Y026844D02*
X012685Y026844D01*
X012644Y026745D02*
X013915Y026745D01*
X013915Y026647D02*
X012603Y026647D01*
X012504Y026548D02*
X013915Y026548D01*
X013994Y026450D02*
X012341Y026450D01*
X012505Y026351D02*
X014093Y026351D01*
X014191Y026253D02*
X012604Y026253D01*
X011924Y025465D02*
X011376Y025465D01*
X011519Y025563D02*
X011781Y025563D01*
X011691Y025662D02*
X011609Y025662D01*
X010924Y025465D02*
X008376Y025465D01*
X008453Y025497D02*
X008603Y025647D01*
X008685Y025844D01*
X008685Y025852D01*
X008687Y025839D01*
X008710Y025768D01*
X008744Y025701D01*
X008788Y025641D01*
X008841Y025588D01*
X008901Y025544D01*
X008968Y025510D01*
X009039Y025487D01*
X009100Y025477D01*
X009100Y025900D01*
X009200Y025900D01*
X009200Y026000D01*
X009100Y026000D01*
X009100Y026423D01*
X009039Y026413D01*
X008968Y026390D01*
X008901Y026356D01*
X008841Y026312D01*
X008788Y026259D01*
X008744Y026199D01*
X008710Y026132D01*
X008687Y026061D01*
X008685Y026048D01*
X008685Y026056D01*
X008603Y026253D01*
X008453Y026403D01*
X008340Y026450D01*
X008453Y026497D01*
X008603Y026647D01*
X008685Y026844D01*
X008685Y026852D01*
X008687Y026839D01*
X008710Y026768D01*
X008744Y026701D01*
X008788Y026641D01*
X008841Y026588D01*
X008901Y026544D01*
X008968Y026510D01*
X009039Y026487D01*
X009100Y026477D01*
X009100Y026900D01*
X009200Y026900D01*
X009200Y027000D01*
X009100Y027000D01*
X009100Y027423D01*
X009039Y027413D01*
X008968Y027390D01*
X008901Y027356D01*
X008841Y027312D01*
X008788Y027259D01*
X008744Y027199D01*
X008710Y027132D01*
X008687Y027061D01*
X008685Y027048D01*
X008685Y027056D01*
X008603Y027253D01*
X008453Y027403D01*
X008256Y027485D01*
X008044Y027485D01*
X007847Y027403D01*
X007697Y027253D01*
X007650Y027140D01*
X007603Y027253D01*
X007453Y027403D01*
X007256Y027485D01*
X007044Y027485D01*
X006847Y027403D01*
X006697Y027253D01*
X006615Y027056D01*
X006615Y027048D01*
X006613Y027061D01*
X006590Y027132D01*
X006556Y027199D01*
X006512Y027259D01*
X006459Y027312D01*
X006399Y027356D01*
X006332Y027390D01*
X006261Y027413D01*
X006200Y027423D01*
X006200Y027000D01*
X006100Y027000D01*
X006100Y027423D01*
X006039Y027413D01*
X005968Y027390D01*
X005901Y027356D01*
X005841Y027312D01*
X005788Y027259D01*
X005744Y027199D01*
X005710Y027132D01*
X005687Y027061D01*
X005685Y027048D01*
X005685Y027056D01*
X005603Y027253D01*
X005453Y027403D01*
X005256Y027485D01*
X005044Y027485D01*
X004847Y027403D01*
X004697Y027253D01*
X004615Y027056D01*
X004615Y026844D01*
X004697Y026647D01*
X004847Y026497D01*
X004960Y026450D01*
X004847Y026403D01*
X004697Y026253D01*
X004615Y026056D01*
X004615Y025844D01*
X004697Y025647D01*
X004847Y025497D01*
X005044Y025415D01*
X005256Y025415D01*
X005453Y025497D01*
X005603Y025647D01*
X005650Y025760D01*
X005697Y025647D01*
X005847Y025497D01*
X006044Y025415D01*
X006256Y025415D01*
X006453Y025497D01*
X006603Y025647D01*
X006650Y025760D01*
X006697Y025647D01*
X006847Y025497D01*
X007044Y025415D01*
X007256Y025415D01*
X007453Y025497D01*
X007603Y025647D01*
X007650Y025760D01*
X007697Y025647D01*
X007847Y025497D01*
X008044Y025415D01*
X008256Y025415D01*
X008453Y025497D01*
X008519Y025563D02*
X008875Y025563D01*
X008773Y025662D02*
X008609Y025662D01*
X008650Y025760D02*
X008714Y025760D01*
X008685Y026056D02*
X008686Y026056D01*
X008721Y026154D02*
X008644Y026154D01*
X008604Y026253D02*
X008783Y026253D01*
X008894Y026351D02*
X008505Y026351D01*
X008341Y026450D02*
X010959Y026450D01*
X010796Y026548D02*
X010405Y026548D01*
X010516Y026647D02*
X010697Y026647D01*
X010656Y026745D02*
X010578Y026745D01*
X010614Y026844D02*
X010615Y026844D01*
X010587Y027139D02*
X010649Y027139D01*
X010690Y027238D02*
X010528Y027238D01*
X010426Y027336D02*
X010780Y027336D01*
X010922Y027435D02*
X008378Y027435D01*
X008520Y027336D02*
X008874Y027336D01*
X008772Y027238D02*
X008610Y027238D01*
X008651Y027139D02*
X008713Y027139D01*
X008685Y026844D02*
X008686Y026844D01*
X008722Y026745D02*
X008644Y026745D01*
X008603Y026647D02*
X008784Y026647D01*
X008895Y026548D02*
X008504Y026548D01*
X009100Y026548D02*
X009200Y026548D01*
X009200Y026477D02*
X009261Y026487D01*
X009332Y026510D01*
X009399Y026544D01*
X009459Y026588D01*
X009512Y026641D01*
X009556Y026701D01*
X009590Y026768D01*
X009613Y026839D01*
X009623Y026900D01*
X009200Y026900D01*
X009200Y026477D01*
X009200Y026423D02*
X009200Y026000D01*
X009623Y026000D01*
X009613Y026061D01*
X009590Y026132D01*
X009556Y026199D01*
X009512Y026259D01*
X009459Y026312D01*
X009399Y026356D01*
X009332Y026390D01*
X009261Y026413D01*
X009200Y026423D01*
X009200Y026351D02*
X009100Y026351D01*
X009100Y026253D02*
X009200Y026253D01*
X009200Y026154D02*
X009100Y026154D01*
X009100Y026056D02*
X009200Y026056D01*
X009200Y025957D02*
X010100Y025957D01*
X010100Y025859D02*
X010200Y025859D01*
X010200Y025760D02*
X010100Y025760D01*
X010100Y025662D02*
X010200Y025662D01*
X010200Y025563D02*
X010100Y025563D01*
X009875Y025563D02*
X009425Y025563D01*
X009399Y025544D02*
X009459Y025588D01*
X009512Y025641D01*
X009556Y025701D01*
X009590Y025768D01*
X009613Y025839D01*
X009623Y025900D01*
X009200Y025900D01*
X009200Y025477D01*
X009261Y025487D01*
X009332Y025510D01*
X009399Y025544D01*
X009527Y025662D02*
X009773Y025662D01*
X009714Y025760D02*
X009586Y025760D01*
X009616Y025859D02*
X009684Y025859D01*
X009686Y026056D02*
X009614Y026056D01*
X009579Y026154D02*
X009721Y026154D01*
X009783Y026253D02*
X009517Y026253D01*
X009406Y026351D02*
X009894Y026351D01*
X009968Y026510D02*
X010039Y026487D01*
X010100Y026477D01*
X010100Y026900D01*
X009677Y026900D01*
X009687Y026839D01*
X009710Y026768D01*
X009744Y026701D01*
X009788Y026641D01*
X009841Y026588D01*
X009901Y026544D01*
X009968Y026510D01*
X009895Y026548D02*
X009405Y026548D01*
X009516Y026647D02*
X009784Y026647D01*
X009722Y026745D02*
X009578Y026745D01*
X009614Y026844D02*
X009686Y026844D01*
X009623Y027000D02*
X009613Y027061D01*
X009590Y027132D01*
X009556Y027199D01*
X009512Y027259D01*
X009459Y027312D01*
X009399Y027356D01*
X009332Y027390D01*
X009261Y027413D01*
X009200Y027423D01*
X009200Y027000D01*
X009623Y027000D01*
X009616Y027041D02*
X009684Y027041D01*
X009713Y027139D02*
X009587Y027139D01*
X009528Y027238D02*
X009772Y027238D01*
X009874Y027336D02*
X009426Y027336D01*
X009200Y027336D02*
X009100Y027336D01*
X009100Y027238D02*
X009200Y027238D01*
X009200Y027139D02*
X009100Y027139D01*
X009100Y027041D02*
X009200Y027041D01*
X009200Y026942D02*
X010100Y026942D01*
X010100Y026844D02*
X010200Y026844D01*
X010200Y026745D02*
X010100Y026745D01*
X010100Y026647D02*
X010200Y026647D01*
X010200Y026548D02*
X010100Y026548D01*
X010100Y026351D02*
X010200Y026351D01*
X010200Y026253D02*
X010100Y026253D01*
X010100Y026154D02*
X010200Y026154D01*
X010200Y026056D02*
X010100Y026056D01*
X010406Y026351D02*
X010795Y026351D01*
X010696Y026253D02*
X010517Y026253D01*
X010579Y026154D02*
X010656Y026154D01*
X010614Y026056D02*
X010615Y026056D01*
X010586Y025760D02*
X010650Y025760D01*
X010691Y025662D02*
X010527Y025662D01*
X010425Y025563D02*
X010781Y025563D01*
X009200Y025563D02*
X009100Y025563D01*
X009100Y025662D02*
X009200Y025662D01*
X009200Y025760D02*
X009100Y025760D01*
X009100Y025859D02*
X009200Y025859D01*
X007924Y025465D02*
X007376Y025465D01*
X007519Y025563D02*
X007781Y025563D01*
X007691Y025662D02*
X007609Y025662D01*
X006924Y025465D02*
X006376Y025465D01*
X006519Y025563D02*
X006781Y025563D01*
X006691Y025662D02*
X006609Y025662D01*
X005924Y025465D02*
X005376Y025465D01*
X005519Y025563D02*
X005781Y025563D01*
X005691Y025662D02*
X005609Y025662D01*
X004924Y025465D02*
X003878Y025465D01*
X003928Y025563D02*
X004781Y025563D01*
X004691Y025662D02*
X003961Y025662D01*
X004004Y025760D02*
X004650Y025760D01*
X004615Y025859D02*
X004028Y025859D01*
X004043Y025957D02*
X004615Y025957D01*
X004615Y026056D02*
X004066Y026056D01*
X004082Y026154D02*
X004656Y026154D01*
X004696Y026253D02*
X004079Y026253D01*
X004086Y026351D02*
X004795Y026351D01*
X004959Y026450D02*
X004079Y026450D01*
X004082Y026548D02*
X004796Y026548D01*
X004697Y026647D02*
X004066Y026647D01*
X004042Y026745D02*
X004656Y026745D01*
X004615Y026844D02*
X004027Y026844D01*
X004003Y026942D02*
X004615Y026942D01*
X004615Y027041D02*
X003962Y027041D01*
X003927Y027139D02*
X004649Y027139D01*
X004690Y027238D02*
X003877Y027238D01*
X003834Y027336D02*
X004780Y027336D01*
X004922Y027435D02*
X003780Y027435D01*
X003714Y027533D02*
X056864Y027533D01*
X056787Y027435D02*
X012378Y027435D01*
X012520Y027336D02*
X056721Y027336D01*
X056667Y027238D02*
X055993Y027238D01*
X056175Y027139D02*
X056624Y027139D01*
X056573Y027041D02*
X056274Y027041D01*
X056317Y026942D02*
X056538Y026942D01*
X056497Y026844D02*
X056355Y026844D01*
X056355Y026745D02*
X056473Y026745D01*
X056458Y026647D02*
X056354Y026647D01*
X056313Y026548D02*
X056434Y026548D01*
X056419Y026450D02*
X056264Y026450D01*
X056166Y026351D02*
X056421Y026351D01*
X055525Y027139D02*
X055175Y027139D01*
X055274Y027041D02*
X055426Y027041D01*
X055383Y026942D02*
X055317Y026942D01*
X054993Y027238D02*
X055707Y027238D01*
X054707Y027238D02*
X053993Y027238D01*
X054175Y027139D02*
X054525Y027139D01*
X054426Y027041D02*
X054274Y027041D01*
X054317Y026942D02*
X054383Y026942D01*
X053707Y027238D02*
X052993Y027238D01*
X053175Y027139D02*
X053525Y027139D01*
X053426Y027041D02*
X053274Y027041D01*
X053317Y026942D02*
X053383Y026942D01*
X052707Y027238D02*
X051993Y027238D01*
X052175Y027139D02*
X052525Y027139D01*
X052426Y027041D02*
X052274Y027041D01*
X052317Y026942D02*
X052383Y026942D01*
X051707Y027238D02*
X050993Y027238D01*
X051175Y027139D02*
X051525Y027139D01*
X051426Y027041D02*
X051274Y027041D01*
X051317Y026942D02*
X051383Y026942D01*
X050707Y027238D02*
X049993Y027238D01*
X050175Y027139D02*
X050525Y027139D01*
X050426Y027041D02*
X050274Y027041D01*
X050317Y026942D02*
X050383Y026942D01*
X049707Y027238D02*
X048993Y027238D01*
X049175Y027139D02*
X049525Y027139D01*
X049426Y027041D02*
X049274Y027041D01*
X049317Y026942D02*
X049383Y026942D01*
X048707Y027238D02*
X047993Y027238D01*
X048175Y027139D02*
X048525Y027139D01*
X048426Y027041D02*
X048274Y027041D01*
X048317Y026942D02*
X048383Y026942D01*
X047707Y027238D02*
X046993Y027238D01*
X047175Y027139D02*
X047525Y027139D01*
X047426Y027041D02*
X047274Y027041D01*
X047317Y026942D02*
X047383Y026942D01*
X046707Y027238D02*
X045293Y027238D01*
X045475Y027139D02*
X046525Y027139D01*
X046426Y027041D02*
X045574Y027041D01*
X045617Y026942D02*
X046383Y026942D01*
X046345Y026844D02*
X045655Y026844D01*
X045655Y026745D02*
X046345Y026745D01*
X046346Y026647D02*
X045654Y026647D01*
X045613Y026548D02*
X046387Y026548D01*
X046436Y026450D02*
X045564Y026450D01*
X045466Y026351D02*
X046534Y026351D01*
X044825Y027139D02*
X044475Y027139D01*
X044574Y027041D02*
X044726Y027041D01*
X044683Y026942D02*
X044617Y026942D01*
X044293Y027238D02*
X045007Y027238D01*
X044007Y027238D02*
X043293Y027238D01*
X043475Y027139D02*
X043825Y027139D01*
X043726Y027041D02*
X043574Y027041D01*
X043617Y026942D02*
X043683Y026942D01*
X043007Y027238D02*
X042293Y027238D01*
X042475Y027139D02*
X042825Y027139D01*
X042726Y027041D02*
X042574Y027041D01*
X042617Y026942D02*
X042683Y026942D01*
X042007Y027238D02*
X041293Y027238D01*
X041475Y027139D02*
X041825Y027139D01*
X041726Y027041D02*
X041574Y027041D01*
X041617Y026942D02*
X041683Y026942D01*
X041007Y027238D02*
X040293Y027238D01*
X040475Y027139D02*
X040825Y027139D01*
X040726Y027041D02*
X040574Y027041D01*
X040617Y026942D02*
X040683Y026942D01*
X040007Y027238D02*
X039293Y027238D01*
X039475Y027139D02*
X039825Y027139D01*
X039726Y027041D02*
X039574Y027041D01*
X039617Y026942D02*
X039683Y026942D01*
X039007Y027238D02*
X038293Y027238D01*
X038475Y027139D02*
X038825Y027139D01*
X038726Y027041D02*
X038574Y027041D01*
X038617Y026942D02*
X038683Y026942D01*
X038007Y027238D02*
X037293Y027238D01*
X037475Y027139D02*
X037825Y027139D01*
X037726Y027041D02*
X037574Y027041D01*
X037617Y026942D02*
X037683Y026942D01*
X037007Y027238D02*
X036293Y027238D01*
X036475Y027139D02*
X036825Y027139D01*
X036726Y027041D02*
X036574Y027041D01*
X036617Y026942D02*
X036683Y026942D01*
X038201Y023987D02*
X000410Y023987D01*
X000410Y023889D02*
X038068Y023889D01*
X038009Y023790D02*
X000410Y023790D01*
X000410Y023692D02*
X037982Y023692D01*
X037982Y023593D02*
X000410Y023593D01*
X000410Y023495D02*
X038016Y023495D01*
X038083Y023396D02*
X000410Y023396D01*
X000410Y023298D02*
X038238Y023298D01*
X038462Y023298D02*
X040238Y023298D01*
X040462Y023298D02*
X042238Y023298D01*
X042462Y023298D02*
X044238Y023298D01*
X044462Y023298D02*
X045536Y023298D01*
X045634Y023199D02*
X012989Y023199D01*
X010650Y022950D02*
X010650Y022450D01*
X008343Y020143D01*
X008295Y020103D01*
X008240Y020074D01*
X008181Y020056D01*
X008119Y020050D01*
X008047Y020057D01*
X007978Y020078D01*
X007914Y020112D01*
X007858Y020158D01*
X007812Y020214D01*
X007778Y020278D01*
X007757Y020347D01*
X007750Y020419D01*
X007756Y020481D01*
X007774Y020540D01*
X007803Y020595D01*
X007843Y020643D01*
X010150Y022950D01*
X010650Y022950D01*
X010650Y022904D02*
X010104Y022904D01*
X010142Y022904D02*
X022062Y022904D01*
X022550Y022650D02*
X022550Y021250D01*
X023050Y020750D01*
X023418Y020737D02*
X025782Y020737D01*
X025798Y020638D02*
X023402Y020638D01*
X023361Y020540D02*
X025839Y020540D01*
X025938Y020441D02*
X023262Y020441D01*
X023414Y020835D02*
X025697Y020835D01*
X025599Y020934D02*
X023373Y020934D01*
X023289Y021032D02*
X025500Y021032D01*
X025418Y021131D02*
X023037Y021131D01*
X023050Y021250D02*
X023050Y021350D01*
X022939Y021229D02*
X025390Y021229D01*
X025390Y021328D02*
X022840Y021328D01*
X022810Y021426D02*
X025390Y021426D01*
X025390Y021525D02*
X022810Y021525D01*
X022810Y021623D02*
X025390Y021623D01*
X025390Y021722D02*
X022810Y021722D01*
X022810Y021820D02*
X025390Y021820D01*
X025390Y021919D02*
X022810Y021919D01*
X022810Y022017D02*
X025390Y022017D01*
X025390Y022116D02*
X022810Y022116D01*
X022290Y022116D02*
X019710Y022116D01*
X019710Y022017D02*
X022290Y022017D01*
X022290Y021919D02*
X019710Y021919D01*
X019710Y021820D02*
X022290Y021820D01*
X022290Y021722D02*
X019710Y021722D01*
X019710Y021623D02*
X022290Y021623D01*
X022290Y021525D02*
X019710Y021525D01*
X019710Y021426D02*
X022290Y021426D01*
X022290Y021328D02*
X019740Y021328D01*
X019850Y021250D02*
X019950Y021350D01*
X019839Y021229D02*
X022290Y021229D01*
X022318Y021131D02*
X019937Y021131D01*
X020189Y021032D02*
X022400Y021032D01*
X022499Y020934D02*
X020273Y020934D01*
X020314Y020835D02*
X022597Y020835D01*
X022682Y020737D02*
X020318Y020737D01*
X020302Y020638D02*
X022698Y020638D01*
X022739Y020540D02*
X020261Y020540D01*
X020162Y020441D02*
X022838Y020441D01*
X021711Y019710D02*
X021659Y019762D01*
X021523Y019818D01*
X021377Y019818D01*
X021241Y019762D01*
X021189Y019710D01*
X018611Y019710D01*
X018559Y019762D01*
X018423Y019818D01*
X018277Y019818D01*
X018141Y019762D01*
X018089Y019710D01*
X015511Y019710D01*
X015459Y019762D01*
X015323Y019818D01*
X015177Y019818D01*
X015041Y019762D01*
X014963Y019684D01*
X014460Y020187D01*
X014460Y020539D01*
X014462Y020541D01*
X014518Y020677D01*
X014518Y020823D01*
X014462Y020959D01*
X014359Y021062D01*
X014223Y021118D01*
X014077Y021118D01*
X013941Y021062D01*
X013838Y020959D01*
X013782Y020823D01*
X013782Y020677D01*
X013838Y020541D01*
X013940Y020439D01*
X013940Y020028D01*
X013980Y019932D01*
X014053Y019859D01*
X014982Y018930D01*
X015078Y018890D01*
X017089Y018890D01*
X017141Y018838D01*
X017277Y018782D01*
X017423Y018782D01*
X017559Y018838D01*
X017611Y018890D01*
X020189Y018890D01*
X020241Y018838D01*
X020377Y018782D01*
X020523Y018782D01*
X020659Y018838D01*
X020711Y018890D01*
X023289Y018890D01*
X023341Y018838D01*
X023477Y018782D01*
X023623Y018782D01*
X023759Y018838D01*
X023811Y018890D01*
X027542Y018890D01*
X028103Y018330D01*
X028182Y018251D01*
X028182Y018177D01*
X028238Y018041D01*
X028341Y017938D01*
X028477Y017882D01*
X028623Y017882D01*
X028750Y017934D01*
X028877Y017882D01*
X029023Y017882D01*
X029159Y017938D01*
X029262Y018041D01*
X029318Y018177D01*
X029318Y018323D01*
X029262Y018459D01*
X029159Y018562D01*
X029023Y018618D01*
X028949Y018618D01*
X027897Y019670D01*
X027802Y019710D01*
X024811Y019710D01*
X024759Y019762D01*
X024623Y019818D01*
X024477Y019818D01*
X024341Y019762D01*
X024289Y019710D01*
X021711Y019710D01*
X021669Y019752D02*
X024331Y019752D01*
X024550Y019450D02*
X021450Y019450D01*
X018350Y019450D01*
X015250Y019450D01*
X015130Y019150D02*
X014200Y020080D01*
X014200Y020700D01*
X014150Y020750D01*
X014518Y020737D02*
X016296Y020737D01*
X016197Y020835D02*
X014514Y020835D01*
X014473Y020934D02*
X016117Y020934D01*
X016090Y021032D02*
X014389Y021032D01*
X013911Y021032D02*
X009600Y021032D01*
X009698Y021131D02*
X016090Y021131D01*
X016090Y021229D02*
X009797Y021229D01*
X009895Y021328D02*
X016090Y021328D01*
X016090Y021426D02*
X009994Y021426D01*
X010092Y021525D02*
X016090Y021525D01*
X016090Y021623D02*
X010191Y021623D01*
X010289Y021722D02*
X016090Y021722D01*
X016090Y021820D02*
X010388Y021820D01*
X010486Y021919D02*
X016090Y021919D01*
X016090Y022017D02*
X010585Y022017D01*
X010683Y022116D02*
X016090Y022116D01*
X016610Y022116D02*
X019190Y022116D01*
X019190Y022017D02*
X016610Y022017D01*
X016610Y021919D02*
X019190Y021919D01*
X019190Y021820D02*
X016610Y021820D01*
X016610Y021722D02*
X019190Y021722D01*
X019190Y021623D02*
X016610Y021623D01*
X016610Y021525D02*
X019190Y021525D01*
X019190Y021426D02*
X016610Y021426D01*
X016610Y021328D02*
X019190Y021328D01*
X019190Y021229D02*
X016610Y021229D01*
X016637Y021131D02*
X019218Y021131D01*
X019300Y021032D02*
X017089Y021032D01*
X017173Y020934D02*
X019399Y020934D01*
X019497Y020835D02*
X017214Y020835D01*
X017218Y020737D02*
X019582Y020737D01*
X019598Y020638D02*
X017202Y020638D01*
X017161Y020540D02*
X019639Y020540D01*
X019738Y020441D02*
X017062Y020441D01*
X016850Y020750D02*
X016650Y020750D01*
X016350Y021050D01*
X016350Y022650D01*
X016850Y021300D02*
X016900Y021250D01*
X016394Y020638D02*
X014502Y020638D01*
X014461Y020540D02*
X016493Y020540D01*
X016638Y020441D02*
X014460Y020441D01*
X014460Y020343D02*
X029390Y020343D01*
X029390Y020441D02*
X026362Y020441D01*
X026461Y020540D02*
X029390Y020540D01*
X029390Y020638D02*
X026502Y020638D01*
X026518Y020737D02*
X029390Y020737D01*
X029390Y020835D02*
X026514Y020835D01*
X026473Y020934D02*
X029390Y020934D01*
X029390Y021032D02*
X026389Y021032D01*
X026137Y021131D02*
X029390Y021131D01*
X029390Y021229D02*
X026039Y021229D01*
X026150Y021250D02*
X026150Y021350D01*
X025940Y021328D02*
X029390Y021328D01*
X029390Y021426D02*
X025910Y021426D01*
X025910Y021525D02*
X029390Y021525D01*
X029390Y021623D02*
X025910Y021623D01*
X025910Y021722D02*
X029390Y021722D01*
X029390Y021820D02*
X025910Y021820D01*
X025910Y021919D02*
X029390Y021919D01*
X029390Y022017D02*
X025910Y022017D01*
X025910Y022116D02*
X029390Y022116D01*
X029910Y022116D02*
X035517Y022116D01*
X035615Y022017D02*
X029910Y022017D01*
X029910Y021919D02*
X035714Y021919D01*
X035812Y021820D02*
X029910Y021820D01*
X029910Y021722D02*
X035911Y021722D01*
X036009Y021623D02*
X029910Y021623D01*
X029910Y021525D02*
X036108Y021525D01*
X036206Y021426D02*
X029910Y021426D01*
X029910Y021328D02*
X036290Y021328D01*
X036290Y021229D02*
X029910Y021229D01*
X029910Y021131D02*
X036290Y021131D01*
X036290Y021032D02*
X029910Y021032D01*
X029910Y020934D02*
X036290Y020934D01*
X036290Y020835D02*
X029910Y020835D01*
X029910Y020737D02*
X036290Y020737D01*
X036290Y020638D02*
X029910Y020638D01*
X029910Y020540D02*
X036290Y020540D01*
X036290Y020441D02*
X029910Y020441D01*
X029910Y020343D02*
X036290Y020343D01*
X036290Y020244D02*
X029910Y020244D01*
X029910Y020146D02*
X036290Y020146D01*
X036290Y020047D02*
X029910Y020047D01*
X029910Y019949D02*
X036290Y019949D01*
X036290Y019850D02*
X029910Y019850D01*
X029910Y019752D02*
X036290Y019752D01*
X036290Y019653D02*
X029910Y019653D01*
X029910Y019555D02*
X036290Y019555D01*
X036290Y019456D02*
X029910Y019456D01*
X029910Y019358D02*
X036290Y019358D01*
X036290Y019259D02*
X029910Y019259D01*
X029910Y019161D02*
X036290Y019161D01*
X036290Y019062D02*
X029910Y019062D01*
X029910Y018964D02*
X036290Y018964D01*
X036290Y018865D02*
X029910Y018865D01*
X029910Y018767D02*
X036290Y018767D01*
X036290Y018668D02*
X029910Y018668D01*
X029910Y018570D02*
X036290Y018570D01*
X036290Y018471D02*
X029910Y018471D01*
X029910Y018373D02*
X036290Y018373D01*
X036290Y018274D02*
X029910Y018274D01*
X029910Y018176D02*
X034205Y018176D01*
X034125Y018077D02*
X029910Y018077D01*
X029910Y017979D02*
X034084Y017979D01*
X034082Y017880D02*
X029910Y017880D01*
X029910Y017782D02*
X034100Y017782D01*
X034146Y017683D02*
X032309Y017683D01*
X032436Y017585D02*
X034249Y017585D01*
X034450Y017550D02*
X034450Y017450D01*
X034651Y017585D02*
X036348Y017585D01*
X036446Y017486D02*
X032492Y017486D01*
X032518Y017388D02*
X036545Y017388D01*
X036643Y017289D02*
X032518Y017289D01*
X032483Y017191D02*
X036742Y017191D01*
X036840Y017092D02*
X032413Y017092D01*
X032252Y016994D02*
X036939Y016994D01*
X037037Y016895D02*
X029210Y016895D01*
X029210Y016797D02*
X037136Y016797D01*
X037234Y016698D02*
X029210Y016698D01*
X029210Y016600D02*
X037333Y016600D01*
X037431Y016501D02*
X029210Y016501D01*
X029210Y016403D02*
X037530Y016403D01*
X037628Y016304D02*
X029210Y016304D01*
X029210Y016206D02*
X037727Y016206D01*
X037825Y016107D02*
X029210Y016107D01*
X029210Y016009D02*
X037741Y016009D01*
X037642Y015910D02*
X029210Y015910D01*
X029210Y015812D02*
X037544Y015812D01*
X037445Y015713D02*
X029210Y015713D01*
X029210Y015615D02*
X037347Y015615D01*
X037248Y015516D02*
X029210Y015516D01*
X029210Y015418D02*
X037167Y015418D01*
X037140Y015319D02*
X029210Y015319D01*
X029210Y015221D02*
X037140Y015221D01*
X037140Y015122D02*
X029210Y015122D01*
X029210Y015024D02*
X037140Y015024D01*
X037140Y014925D02*
X029210Y014925D01*
X029210Y014827D02*
X037140Y014827D01*
X037140Y014728D02*
X029210Y014728D01*
X029210Y014630D02*
X037140Y014630D01*
X037140Y014531D02*
X029210Y014531D01*
X029210Y014433D02*
X037140Y014433D01*
X037077Y014334D02*
X029210Y014334D01*
X029210Y014236D02*
X037037Y014236D01*
X037032Y014137D02*
X029210Y014137D01*
X029229Y014039D02*
X037047Y014039D01*
X037089Y013940D02*
X029328Y013940D01*
X029426Y013842D02*
X037187Y013842D01*
X037439Y013743D02*
X029525Y013743D01*
X029776Y013645D02*
X037538Y013645D01*
X037590Y013546D02*
X029868Y013546D01*
X029908Y013448D02*
X037590Y013448D01*
X037590Y013349D02*
X029918Y013349D01*
X029908Y013251D02*
X037590Y013251D01*
X037590Y013152D02*
X029867Y013152D01*
X029775Y013054D02*
X037590Y013054D01*
X037590Y012955D02*
X028813Y012955D01*
X028911Y012857D02*
X037590Y012857D01*
X037590Y012758D02*
X029010Y012758D01*
X029108Y012660D02*
X037590Y012660D01*
X037590Y012561D02*
X029207Y012561D01*
X029305Y012463D02*
X037590Y012463D01*
X037590Y012364D02*
X029404Y012364D01*
X029502Y012266D02*
X037590Y012266D01*
X037590Y012167D02*
X029601Y012167D01*
X029699Y012069D02*
X037590Y012069D01*
X037590Y011970D02*
X029798Y011970D01*
X029896Y011872D02*
X037590Y011872D01*
X037590Y011773D02*
X029995Y011773D01*
X030093Y011675D02*
X037590Y011675D01*
X037508Y011576D02*
X030192Y011576D01*
X030290Y011478D02*
X037410Y011478D01*
X037311Y011379D02*
X030389Y011379D01*
X030487Y011281D02*
X037213Y011281D01*
X037114Y011182D02*
X030586Y011182D01*
X030684Y011084D02*
X037016Y011084D01*
X036917Y010985D02*
X030783Y010985D01*
X030881Y010887D02*
X036819Y010887D01*
X036720Y010788D02*
X030980Y010788D01*
X031078Y010690D02*
X036622Y010690D01*
X036523Y010591D02*
X031177Y010591D01*
X031275Y010493D02*
X036425Y010493D01*
X036326Y010394D02*
X034682Y010394D01*
X034418Y010394D02*
X031374Y010394D01*
X031472Y010296D02*
X034274Y010296D01*
X034212Y010197D02*
X031571Y010197D01*
X031669Y010099D02*
X034182Y010099D01*
X034132Y010000D02*
X031768Y010000D01*
X031866Y009902D02*
X034034Y009902D01*
X033935Y009803D02*
X031965Y009803D01*
X032063Y009705D02*
X032843Y009705D01*
X032685Y009606D02*
X032162Y009606D01*
X032260Y009508D02*
X032616Y009508D01*
X032582Y009409D02*
X032359Y009409D01*
X032457Y009311D02*
X032582Y009311D01*
X032556Y009212D02*
X032608Y009212D01*
X032654Y009114D02*
X032665Y009114D01*
X032753Y009015D02*
X032796Y009015D01*
X032851Y008917D02*
X032872Y008917D01*
X032877Y008918D02*
X032857Y008910D01*
X026844Y014923D01*
X026855Y014949D01*
X026855Y015151D01*
X026778Y015336D01*
X026636Y015478D01*
X026451Y015555D01*
X026249Y015555D01*
X026064Y015478D01*
X025922Y015336D01*
X025845Y015151D01*
X025845Y014949D01*
X025922Y014764D01*
X026064Y014622D01*
X026237Y014550D01*
X026064Y014478D01*
X025922Y014336D01*
X025845Y014151D01*
X025845Y013949D01*
X025922Y013764D01*
X026064Y013622D01*
X026237Y013550D01*
X026064Y013478D01*
X025922Y013336D01*
X025845Y013151D01*
X025845Y012949D01*
X025922Y012764D01*
X026064Y012622D01*
X026237Y012550D01*
X026064Y012478D01*
X025922Y012336D01*
X025845Y012151D01*
X025845Y011949D01*
X025922Y011764D01*
X026064Y011622D01*
X026237Y011550D01*
X026064Y011478D01*
X025922Y011336D01*
X025845Y011151D01*
X025845Y010949D01*
X025922Y010764D01*
X026064Y010622D01*
X026249Y010545D01*
X026451Y010545D01*
X026636Y010622D01*
X026778Y010764D01*
X026855Y010949D01*
X026855Y011151D01*
X026778Y011336D01*
X026636Y011478D01*
X026463Y011550D01*
X026636Y011622D01*
X026778Y011764D01*
X026855Y011949D01*
X026855Y012151D01*
X026778Y012336D01*
X026636Y012478D01*
X026463Y012550D01*
X026636Y012622D01*
X026778Y012764D01*
X026855Y012949D01*
X026855Y013151D01*
X026778Y013336D01*
X026636Y013478D01*
X026463Y013550D01*
X026636Y013622D01*
X026778Y013764D01*
X026855Y013949D01*
X026855Y014151D01*
X026837Y014196D01*
X032600Y008432D01*
X032638Y008341D01*
X032741Y008238D01*
X032877Y008182D01*
X033023Y008182D01*
X033159Y008238D01*
X033262Y008341D01*
X033318Y008477D01*
X033318Y008623D01*
X033262Y008759D01*
X033159Y008862D01*
X033023Y008918D01*
X032877Y008918D01*
X033028Y008917D02*
X052116Y008917D01*
X052017Y009015D02*
X033104Y009015D01*
X033203Y008818D02*
X052231Y008818D01*
X052350Y009050D02*
X051450Y009950D01*
X051450Y010250D01*
X052000Y010800D01*
X050950Y011850D01*
X050150Y011850D01*
X050150Y015650D01*
X049450Y015650D02*
X049350Y015550D01*
X049300Y015550D01*
X049716Y015024D02*
X044210Y015024D01*
X044210Y014925D02*
X049890Y014925D01*
X049890Y014827D02*
X044210Y014827D01*
X044210Y014728D02*
X049890Y014728D01*
X049890Y014630D02*
X044210Y014630D01*
X044210Y014531D02*
X049890Y014531D01*
X049890Y014433D02*
X044210Y014433D01*
X044210Y014334D02*
X049890Y014334D01*
X049890Y014236D02*
X044210Y014236D01*
X044210Y014137D02*
X049890Y014137D01*
X049890Y014039D02*
X044210Y014039D01*
X044210Y013940D02*
X049890Y013940D01*
X049890Y013842D02*
X044210Y013842D01*
X044210Y013743D02*
X049890Y013743D01*
X049890Y013645D02*
X044210Y013645D01*
X044210Y013546D02*
X049890Y013546D01*
X049890Y013448D02*
X044210Y013448D01*
X044210Y013349D02*
X049890Y013349D01*
X049890Y013251D02*
X044210Y013251D01*
X044210Y013152D02*
X049890Y013152D01*
X049890Y013054D02*
X044210Y013054D01*
X044210Y012955D02*
X049890Y012955D01*
X049890Y012857D02*
X044263Y012857D01*
X044304Y012758D02*
X049890Y012758D01*
X049890Y012660D02*
X044318Y012660D01*
X044312Y012561D02*
X049890Y012561D01*
X049890Y012463D02*
X044271Y012463D01*
X044185Y012364D02*
X049890Y012364D01*
X049890Y012266D02*
X038110Y012266D01*
X038110Y012364D02*
X043715Y012364D01*
X043629Y012463D02*
X038110Y012463D01*
X038110Y012561D02*
X043588Y012561D01*
X043582Y012660D02*
X038110Y012660D01*
X038110Y012758D02*
X043596Y012758D01*
X043637Y012857D02*
X038110Y012857D01*
X038110Y012955D02*
X043690Y012955D01*
X043690Y013054D02*
X038110Y013054D01*
X038110Y013152D02*
X043690Y013152D01*
X043690Y013251D02*
X038110Y013251D01*
X038110Y013349D02*
X043690Y013349D01*
X043690Y013448D02*
X038110Y013448D01*
X038110Y013546D02*
X043690Y013546D01*
X043690Y013645D02*
X038110Y013645D01*
X038110Y013743D02*
X043690Y013743D01*
X043690Y013842D02*
X038073Y013842D01*
X037978Y013940D02*
X043690Y013940D01*
X043690Y014039D02*
X037879Y014039D01*
X037781Y014137D02*
X043690Y014137D01*
X043690Y014236D02*
X037763Y014236D01*
X037723Y014334D02*
X043690Y014334D01*
X043690Y014433D02*
X037660Y014433D01*
X037660Y014531D02*
X043690Y014531D01*
X043690Y014630D02*
X037660Y014630D01*
X037660Y014728D02*
X043690Y014728D01*
X043690Y014827D02*
X037660Y014827D01*
X037660Y014925D02*
X043690Y014925D01*
X043690Y015024D02*
X037660Y015024D01*
X037660Y015122D02*
X038821Y015122D01*
X038898Y015090D02*
X038898Y015090D01*
X038712Y015221D02*
X037688Y015221D01*
X037787Y015319D02*
X038613Y015319D01*
X038515Y015418D02*
X037885Y015418D01*
X037984Y015516D02*
X038416Y015516D01*
X038318Y015615D02*
X038082Y015615D01*
X038181Y015713D02*
X038219Y015713D01*
X038390Y015910D02*
X055150Y015910D01*
X055150Y015812D02*
X038488Y015812D01*
X038587Y015713D02*
X055150Y015713D01*
X055150Y015615D02*
X038685Y015615D01*
X038784Y015516D02*
X055150Y015516D01*
X055150Y015418D02*
X038882Y015418D01*
X038950Y015350D02*
X036550Y017750D01*
X036550Y021450D01*
X035550Y022450D01*
X009650Y022450D01*
X010193Y022950D01*
X035750Y022850D01*
X036950Y021650D01*
X036950Y017950D01*
X038850Y016050D01*
X055150Y016150D01*
X055150Y015250D01*
X038950Y015350D01*
X038793Y016107D02*
X038193Y016107D01*
X038291Y016009D02*
X055150Y016009D01*
X055150Y016107D02*
X048147Y016107D01*
X047150Y015850D02*
X046950Y015850D01*
X046650Y014450D02*
X046650Y014350D01*
X043966Y015319D02*
X055150Y015319D01*
X055410Y015319D02*
X055513Y015319D01*
X055612Y015221D02*
X055410Y015221D01*
X055410Y015198D02*
X055410Y015198D01*
X055378Y015122D02*
X055690Y015122D01*
X055690Y015024D02*
X055283Y015024D01*
X055098Y014990D02*
X055098Y014990D01*
X055690Y014925D02*
X054110Y014925D01*
X054176Y014827D02*
X055690Y014827D01*
X055690Y014728D02*
X054216Y014728D01*
X054218Y014630D02*
X055690Y014630D01*
X055690Y014531D02*
X054200Y014531D01*
X054154Y014433D02*
X055690Y014433D01*
X055690Y014334D02*
X054050Y014334D01*
X053850Y014650D02*
X053850Y015550D01*
X054650Y015675D02*
X054675Y015650D01*
X055550Y015650D01*
X055950Y015250D01*
X055950Y012550D01*
X056450Y012050D01*
X057250Y012050D01*
X057550Y012350D01*
X057550Y012550D01*
X057918Y012561D02*
X059290Y012561D01*
X059290Y012463D02*
X057913Y012463D01*
X057872Y012364D02*
X059290Y012364D01*
X059290Y012266D02*
X057796Y012266D01*
X057735Y012167D02*
X059290Y012167D01*
X059290Y012069D02*
X057636Y012069D01*
X057538Y011970D02*
X059290Y011970D01*
X059290Y011872D02*
X057439Y011872D01*
X057196Y012364D02*
X056504Y012364D01*
X056405Y012463D02*
X057187Y012463D01*
X057182Y012561D02*
X056307Y012561D01*
X056210Y012660D02*
X057197Y012660D01*
X057237Y012758D02*
X056210Y012758D01*
X056210Y012857D02*
X057335Y012857D01*
X057764Y012857D02*
X059290Y012857D01*
X059290Y012955D02*
X056210Y012955D01*
X056210Y013054D02*
X059290Y013054D01*
X059290Y013152D02*
X056210Y013152D01*
X056210Y013251D02*
X059290Y013251D01*
X059290Y013349D02*
X056210Y013349D01*
X056210Y013448D02*
X059290Y013448D01*
X059290Y013546D02*
X056210Y013546D01*
X056210Y013645D02*
X059290Y013645D01*
X059290Y013743D02*
X056210Y013743D01*
X056210Y013842D02*
X059290Y013842D01*
X059290Y013940D02*
X056210Y013940D01*
X056210Y014039D02*
X059290Y014039D01*
X059290Y014137D02*
X056210Y014137D01*
X056210Y014236D02*
X059290Y014236D01*
X059290Y014334D02*
X056210Y014334D01*
X056210Y014433D02*
X059290Y014433D01*
X059290Y014531D02*
X056210Y014531D01*
X056210Y014630D02*
X059290Y014630D01*
X059290Y014728D02*
X056210Y014728D01*
X056210Y014827D02*
X059290Y014827D01*
X059290Y014925D02*
X056210Y014925D01*
X056210Y015024D02*
X059290Y015024D01*
X059290Y015122D02*
X056210Y015122D01*
X056210Y015221D02*
X059290Y015221D01*
X059290Y015319D02*
X056203Y015319D01*
X056150Y015418D02*
X059290Y015418D01*
X059290Y015516D02*
X056052Y015516D01*
X055953Y015615D02*
X059290Y015615D01*
X059290Y015713D02*
X055855Y015713D01*
X055756Y015812D02*
X059290Y015812D01*
X059290Y015910D02*
X055410Y015910D01*
X055410Y016009D02*
X059290Y016009D01*
X059290Y016107D02*
X055410Y016107D01*
X055409Y016206D02*
X059290Y016206D01*
X059290Y016304D02*
X055364Y016304D01*
X055220Y016403D02*
X059290Y016403D01*
X059290Y016501D02*
X038767Y016501D01*
X038865Y016403D02*
X053934Y016403D01*
X052550Y015750D02*
X052550Y013900D01*
X052209Y014039D02*
X050410Y014039D01*
X050410Y014137D02*
X052266Y014137D01*
X052290Y014236D02*
X050410Y014236D01*
X050410Y014334D02*
X052290Y014334D01*
X052290Y014433D02*
X050410Y014433D01*
X050410Y014531D02*
X052290Y014531D01*
X052290Y014630D02*
X050410Y014630D01*
X050410Y014728D02*
X052290Y014728D01*
X052290Y014827D02*
X050410Y014827D01*
X050410Y014925D02*
X052290Y014925D01*
X052810Y014925D02*
X053590Y014925D01*
X053524Y014827D02*
X052810Y014827D01*
X052810Y014728D02*
X053484Y014728D01*
X053482Y014630D02*
X052810Y014630D01*
X052810Y014531D02*
X053500Y014531D01*
X053546Y014433D02*
X052810Y014433D01*
X052810Y014334D02*
X053650Y014334D01*
X052891Y014039D02*
X055690Y014039D01*
X055690Y014137D02*
X052834Y014137D01*
X052810Y014236D02*
X055690Y014236D01*
X055690Y013940D02*
X052918Y013940D01*
X052918Y013842D02*
X055690Y013842D01*
X055690Y013743D02*
X052884Y013743D01*
X052816Y013645D02*
X055690Y013645D01*
X055690Y013546D02*
X052658Y013546D01*
X052442Y013546D02*
X050410Y013546D01*
X050410Y013448D02*
X055690Y013448D01*
X055690Y013349D02*
X050410Y013349D01*
X050410Y013251D02*
X055690Y013251D01*
X055690Y013152D02*
X050410Y013152D01*
X050410Y013054D02*
X055690Y013054D01*
X055690Y012955D02*
X050410Y012955D01*
X050410Y012857D02*
X055690Y012857D01*
X055690Y012758D02*
X050410Y012758D01*
X050410Y012660D02*
X055690Y012660D01*
X055690Y012561D02*
X050410Y012561D01*
X050410Y012463D02*
X055705Y012463D01*
X055768Y012364D02*
X050410Y012364D01*
X050410Y012266D02*
X055867Y012266D01*
X055965Y012167D02*
X050410Y012167D01*
X049890Y012167D02*
X038110Y012167D01*
X038110Y012069D02*
X049847Y012069D01*
X049801Y011970D02*
X038110Y011970D01*
X038110Y011872D02*
X049782Y011872D01*
X049783Y011773D02*
X038110Y011773D01*
X038110Y011675D02*
X049824Y011675D01*
X049903Y011576D02*
X038110Y011576D01*
X038101Y011478D02*
X050955Y011478D01*
X050856Y011576D02*
X050397Y011576D01*
X051053Y011379D02*
X038047Y011379D01*
X037948Y011281D02*
X051152Y011281D01*
X051250Y011182D02*
X037850Y011182D01*
X037751Y011084D02*
X051349Y011084D01*
X051447Y010985D02*
X037653Y010985D01*
X037554Y010887D02*
X051546Y010887D01*
X051620Y010788D02*
X037456Y010788D01*
X037357Y010690D02*
X051522Y010690D01*
X051423Y010591D02*
X037259Y010591D01*
X037160Y010493D02*
X051325Y010493D01*
X051228Y010394D02*
X037062Y010394D01*
X036963Y010296D02*
X051190Y010296D01*
X051190Y010197D02*
X036865Y010197D01*
X036766Y010099D02*
X051190Y010099D01*
X051190Y010000D02*
X036668Y010000D01*
X036569Y009902D02*
X051190Y009902D01*
X051229Y009803D02*
X036433Y009803D01*
X036350Y010050D02*
X037850Y011550D01*
X037850Y013700D01*
X037400Y014150D01*
X037400Y015300D01*
X038350Y016250D01*
X038497Y016403D02*
X037897Y016403D01*
X037799Y016501D02*
X038399Y016501D01*
X038300Y016600D02*
X037700Y016600D01*
X037602Y016698D02*
X038202Y016698D01*
X038103Y016797D02*
X037503Y016797D01*
X037405Y016895D02*
X038005Y016895D01*
X037906Y016994D02*
X037306Y016994D01*
X037208Y017092D02*
X037808Y017092D01*
X037709Y017191D02*
X037109Y017191D01*
X037011Y017289D02*
X037611Y017289D01*
X037512Y017388D02*
X036912Y017388D01*
X036814Y017486D02*
X037414Y017486D01*
X037315Y017585D02*
X036715Y017585D01*
X036617Y017683D02*
X037217Y017683D01*
X037118Y017782D02*
X036550Y017782D01*
X036550Y017880D02*
X037020Y017880D01*
X036950Y017979D02*
X036550Y017979D01*
X036550Y018077D02*
X036950Y018077D01*
X036950Y018176D02*
X036550Y018176D01*
X036550Y018274D02*
X036950Y018274D01*
X036950Y018373D02*
X036550Y018373D01*
X036550Y018471D02*
X036950Y018471D01*
X036950Y018570D02*
X036550Y018570D01*
X036550Y018668D02*
X036950Y018668D01*
X036950Y018767D02*
X036550Y018767D01*
X036550Y018865D02*
X036950Y018865D01*
X036950Y018964D02*
X036550Y018964D01*
X036550Y019062D02*
X036950Y019062D01*
X036950Y019161D02*
X036550Y019161D01*
X036550Y019259D02*
X036950Y019259D01*
X036950Y019358D02*
X036550Y019358D01*
X036550Y019456D02*
X036950Y019456D01*
X036950Y019555D02*
X036550Y019555D01*
X036550Y019653D02*
X036950Y019653D01*
X036950Y019752D02*
X036550Y019752D01*
X036550Y019850D02*
X036950Y019850D01*
X036950Y019949D02*
X036550Y019949D01*
X036550Y020047D02*
X036950Y020047D01*
X036950Y020146D02*
X036550Y020146D01*
X036550Y020244D02*
X036950Y020244D01*
X036950Y020343D02*
X036550Y020343D01*
X036550Y020441D02*
X036950Y020441D01*
X036950Y020540D02*
X036550Y020540D01*
X036550Y020638D02*
X036950Y020638D01*
X036950Y020737D02*
X036550Y020737D01*
X036550Y020835D02*
X036950Y020835D01*
X036950Y020934D02*
X036550Y020934D01*
X036550Y021032D02*
X036950Y021032D01*
X036950Y021131D02*
X036550Y021131D01*
X036550Y021229D02*
X036950Y021229D01*
X036950Y021328D02*
X036550Y021328D01*
X036550Y021426D02*
X036950Y021426D01*
X036950Y021525D02*
X036475Y021525D01*
X036377Y021623D02*
X036950Y021623D01*
X036878Y021722D02*
X036278Y021722D01*
X036180Y021820D02*
X036780Y021820D01*
X036681Y021919D02*
X036081Y021919D01*
X035983Y022017D02*
X036583Y022017D01*
X036484Y022116D02*
X035884Y022116D01*
X035786Y022214D02*
X036386Y022214D01*
X036287Y022313D02*
X035687Y022313D01*
X035589Y022411D02*
X036189Y022411D01*
X036090Y022510D02*
X009715Y022510D01*
X009710Y022510D02*
X010650Y022510D01*
X010650Y022608D02*
X009808Y022608D01*
X009822Y022608D02*
X035992Y022608D01*
X035893Y022707D02*
X009928Y022707D01*
X009907Y022707D02*
X010650Y022707D01*
X010650Y022805D02*
X010005Y022805D01*
X010035Y022805D02*
X035795Y022805D01*
X035966Y023002D02*
X045831Y023002D01*
X045733Y023101D02*
X035825Y023101D01*
X035802Y023110D02*
X035802Y023110D01*
X036064Y022904D02*
X045930Y022904D01*
X046028Y022805D02*
X036163Y022805D01*
X036261Y022707D02*
X046127Y022707D01*
X046225Y022608D02*
X036360Y022608D01*
X036458Y022510D02*
X046324Y022510D01*
X046422Y022411D02*
X036557Y022411D01*
X036655Y022313D02*
X046521Y022313D01*
X046666Y023101D02*
X060090Y023101D01*
X060090Y023199D02*
X046568Y023199D01*
X046469Y023298D02*
X060090Y023298D01*
X060090Y023396D02*
X046371Y023396D01*
X046272Y023495D02*
X060090Y023495D01*
X060090Y023593D02*
X046174Y023593D01*
X046075Y023692D02*
X060090Y023692D01*
X060090Y023790D02*
X045977Y023790D01*
X045878Y023889D02*
X060090Y023889D01*
X060090Y023987D02*
X044499Y023987D01*
X044201Y023987D02*
X042499Y023987D01*
X042201Y023987D02*
X040499Y023987D01*
X040201Y023987D02*
X038499Y023987D01*
X038350Y022450D02*
X038150Y022450D01*
X040150Y022450D02*
X040350Y022450D01*
X042250Y022450D02*
X042350Y022450D01*
X044250Y022450D02*
X044350Y022450D01*
X048050Y021250D02*
X048150Y021250D01*
X050050Y021250D02*
X050150Y021250D01*
X052050Y021250D02*
X052250Y021250D01*
X053850Y021250D02*
X054050Y021250D01*
X054229Y019062D02*
X059290Y019062D01*
X059290Y018964D02*
X054130Y018964D01*
X054024Y018865D02*
X059290Y018865D01*
X059290Y018767D02*
X037210Y018767D01*
X037210Y018865D02*
X046576Y018865D01*
X046470Y018964D02*
X037210Y018964D01*
X037210Y019062D02*
X046371Y019062D01*
X046273Y019161D02*
X037210Y019161D01*
X037210Y019259D02*
X046174Y019259D01*
X046076Y019358D02*
X037210Y019358D01*
X037210Y019456D02*
X045977Y019456D01*
X045879Y019555D02*
X037210Y019555D01*
X037210Y019653D02*
X045780Y019653D01*
X045682Y019752D02*
X037210Y019752D01*
X037210Y019850D02*
X039129Y019850D01*
X039035Y019949D02*
X037210Y019949D01*
X037210Y020047D02*
X038994Y020047D01*
X038982Y020146D02*
X037210Y020146D01*
X037210Y020244D02*
X038990Y020244D01*
X039031Y020343D02*
X037210Y020343D01*
X037210Y020441D02*
X039120Y020441D01*
X039250Y018950D02*
X039350Y018950D01*
X041150Y018950D02*
X041350Y018950D01*
X043250Y018950D02*
X043350Y018950D01*
X045150Y018950D02*
X045350Y018950D01*
X047050Y018150D02*
X047050Y018050D01*
X049050Y018150D02*
X049050Y017950D01*
X050950Y018150D02*
X051050Y018150D01*
X052950Y018150D02*
X053050Y018150D01*
X059205Y019949D02*
X059290Y019949D01*
X059290Y018668D02*
X037210Y018668D01*
X037210Y018570D02*
X059290Y018570D01*
X059290Y018471D02*
X037210Y018471D01*
X037210Y018373D02*
X059290Y018373D01*
X059290Y018274D02*
X037210Y018274D01*
X037210Y018176D02*
X059290Y018176D01*
X059290Y018077D02*
X037210Y018077D01*
X037289Y017979D02*
X059290Y017979D01*
X059290Y017880D02*
X037388Y017880D01*
X037486Y017782D02*
X059290Y017782D01*
X059290Y017683D02*
X037585Y017683D01*
X037683Y017585D02*
X059290Y017585D01*
X059290Y017486D02*
X037782Y017486D01*
X037880Y017388D02*
X059290Y017388D01*
X059290Y017289D02*
X037979Y017289D01*
X038077Y017191D02*
X059290Y017191D01*
X059290Y017092D02*
X038176Y017092D01*
X038274Y016994D02*
X059290Y016994D01*
X059290Y016895D02*
X038373Y016895D01*
X038471Y016797D02*
X059290Y016797D01*
X059290Y016698D02*
X038570Y016698D01*
X038668Y016600D02*
X059290Y016600D01*
X055550Y014550D02*
X055450Y014650D01*
X052284Y013645D02*
X050410Y013645D01*
X050410Y013743D02*
X052216Y013743D01*
X052182Y013842D02*
X050410Y013842D01*
X050410Y013940D02*
X052182Y013940D01*
X051950Y013750D02*
X051850Y013650D01*
X052750Y012250D02*
X052850Y012250D01*
X053750Y011950D02*
X053750Y011850D01*
X052084Y011084D02*
X059290Y011084D01*
X059290Y011182D02*
X051986Y011182D01*
X051887Y011281D02*
X059290Y011281D01*
X059290Y011379D02*
X051789Y011379D01*
X051690Y011478D02*
X059290Y011478D01*
X059290Y011576D02*
X051592Y011576D01*
X051493Y011675D02*
X059290Y011675D01*
X059290Y011773D02*
X051395Y011773D01*
X051296Y011872D02*
X056261Y011872D01*
X056162Y011970D02*
X051198Y011970D01*
X051099Y012069D02*
X056064Y012069D01*
X056650Y012550D02*
X056750Y012550D01*
X057863Y012758D02*
X059290Y012758D01*
X059290Y012660D02*
X057903Y012660D01*
X059750Y013850D02*
X059750Y014050D01*
X059290Y010985D02*
X052183Y010985D01*
X052147Y011020D02*
X052147Y011020D01*
X052281Y010887D02*
X052300Y010887D01*
X052600Y010887D02*
X053100Y010887D01*
X053400Y010887D02*
X059290Y010887D01*
X059290Y010788D02*
X053533Y010788D01*
X053591Y010690D02*
X059290Y010690D01*
X059290Y010591D02*
X053618Y010591D01*
X053618Y010493D02*
X059290Y010493D01*
X059290Y010394D02*
X054182Y010394D01*
X054326Y010296D02*
X059290Y010296D01*
X059290Y010197D02*
X054388Y010197D01*
X054418Y010099D02*
X059290Y010099D01*
X059290Y010000D02*
X054418Y010000D01*
X054387Y009902D02*
X059290Y009902D01*
X059290Y009803D02*
X054324Y009803D01*
X054179Y009705D02*
X059290Y009705D01*
X059290Y009606D02*
X052162Y009606D01*
X052179Y009705D02*
X053921Y009705D01*
X054050Y010050D02*
X052050Y010050D01*
X051426Y009606D02*
X034474Y009606D01*
X034375Y009508D02*
X051525Y009508D01*
X051623Y009409D02*
X034277Y009409D01*
X034178Y009311D02*
X051722Y009311D01*
X051820Y009212D02*
X034080Y009212D01*
X033959Y009114D02*
X051919Y009114D01*
X052350Y009050D02*
X052650Y009050D01*
X052911Y009311D02*
X059290Y009311D01*
X059290Y009409D02*
X052746Y009409D01*
X052554Y009409D02*
X052359Y009409D01*
X052260Y009508D02*
X059290Y009508D01*
X059290Y009212D02*
X052982Y009212D01*
X053018Y009114D02*
X059290Y009114D01*
X059290Y009015D02*
X053018Y009015D01*
X052993Y008917D02*
X059290Y008917D01*
X059290Y008818D02*
X052939Y008818D01*
X052815Y008720D02*
X059290Y008720D01*
X059750Y008350D02*
X059750Y008150D01*
X057990Y008030D02*
X000410Y008030D01*
X000410Y007932D02*
X057990Y007932D01*
X057990Y007833D02*
X000410Y007833D01*
X000410Y007735D02*
X057990Y007735D01*
X057990Y007636D02*
X045986Y007636D01*
X045986Y007637D02*
X045767Y007727D01*
X045531Y007727D01*
X045313Y007637D01*
X045146Y007470D01*
X045055Y007252D01*
X045055Y007015D01*
X045146Y006797D01*
X045313Y006630D01*
X045531Y006540D01*
X045767Y006540D01*
X045986Y006630D01*
X046153Y006797D01*
X046243Y007015D01*
X046243Y007252D01*
X046153Y007470D01*
X045986Y007637D01*
X046085Y007538D02*
X057990Y007538D01*
X057990Y007439D02*
X046165Y007439D01*
X046206Y007341D02*
X057990Y007341D01*
X057990Y007242D02*
X046243Y007242D01*
X046243Y007144D02*
X057990Y007144D01*
X057990Y007045D02*
X046243Y007045D01*
X046215Y006947D02*
X057990Y006947D01*
X057990Y006848D02*
X046174Y006848D01*
X046105Y006750D02*
X057990Y006750D01*
X057990Y006651D02*
X046007Y006651D01*
X045799Y006553D02*
X057990Y006553D01*
X057990Y006454D02*
X000410Y006454D01*
X000410Y006356D02*
X057990Y006356D01*
X057990Y006257D02*
X000410Y006257D01*
X000410Y006159D02*
X057990Y006159D01*
X057990Y006060D02*
X026789Y006060D01*
X026825Y006054D02*
X026750Y006066D01*
X026750Y005583D01*
X027233Y005583D01*
X027221Y005658D01*
X027195Y005738D01*
X027157Y005813D01*
X027108Y005881D01*
X027048Y005941D01*
X026980Y005990D01*
X026905Y006028D01*
X026825Y006054D01*
X026750Y006060D02*
X026650Y006060D01*
X026650Y006066D02*
X026575Y006054D01*
X026495Y006028D01*
X026421Y005990D01*
X026353Y005941D01*
X026293Y005881D01*
X026244Y005813D01*
X026206Y005738D01*
X026180Y005658D01*
X026168Y005583D01*
X026650Y005583D01*
X026650Y005483D01*
X026750Y005483D01*
X026750Y005001D01*
X026825Y005013D01*
X026905Y005039D01*
X026980Y005077D01*
X027048Y005126D01*
X027108Y005186D01*
X027157Y005254D01*
X027195Y005329D01*
X027221Y005408D01*
X027233Y005483D01*
X026750Y005483D01*
X026750Y005583D01*
X026650Y005583D01*
X026650Y006066D01*
X026612Y006060D02*
X000410Y006060D01*
X000410Y005962D02*
X026381Y005962D01*
X026280Y005863D02*
X000410Y005863D01*
X000410Y005765D02*
X026219Y005765D01*
X026182Y005666D02*
X000410Y005666D01*
X000410Y005568D02*
X026650Y005568D01*
X026650Y005483D02*
X026168Y005483D01*
X026180Y005408D01*
X026206Y005329D01*
X026244Y005254D01*
X026293Y005186D01*
X026353Y005126D01*
X026421Y005077D01*
X026495Y005039D01*
X026575Y005013D01*
X026650Y005001D01*
X026650Y005483D01*
X026650Y005469D02*
X026750Y005469D01*
X026750Y005371D02*
X026650Y005371D01*
X026650Y005272D02*
X026750Y005272D01*
X026750Y005174D02*
X026650Y005174D01*
X026650Y005075D02*
X026750Y005075D01*
X026977Y005075D02*
X034115Y005075D01*
X034115Y005077D02*
X034127Y005151D01*
X034150Y005223D01*
X034184Y005291D01*
X034229Y005352D01*
X034282Y005405D01*
X034343Y005450D01*
X034411Y005484D01*
X034482Y005507D01*
X034557Y005519D01*
X034906Y005519D01*
X034906Y005058D01*
X034944Y005058D01*
X035735Y005058D01*
X035735Y005077D01*
X035723Y005151D01*
X035700Y005223D01*
X035665Y005291D01*
X035621Y005352D01*
X035568Y005405D01*
X035506Y005450D01*
X035439Y005484D01*
X035367Y005507D01*
X035293Y005519D01*
X034944Y005519D01*
X034944Y005058D01*
X034944Y005020D01*
X035735Y005020D01*
X035735Y005001D01*
X035723Y004927D01*
X035700Y004855D01*
X035665Y004787D01*
X035621Y004726D01*
X035568Y004673D01*
X035506Y004628D01*
X035439Y004594D01*
X035367Y004571D01*
X035293Y004559D01*
X034944Y004559D01*
X034944Y005020D01*
X034906Y005020D01*
X034906Y004559D01*
X034557Y004559D01*
X034482Y004571D01*
X034411Y004594D01*
X034343Y004628D01*
X034282Y004673D01*
X034229Y004726D01*
X034184Y004787D01*
X034150Y004855D01*
X034127Y004927D01*
X034115Y005001D01*
X034115Y005020D01*
X034906Y005020D01*
X034906Y005058D01*
X034115Y005058D01*
X034115Y005077D01*
X034134Y005174D02*
X027095Y005174D01*
X027166Y005272D02*
X034175Y005272D01*
X034248Y005371D02*
X027209Y005371D01*
X027231Y005469D02*
X034382Y005469D01*
X034906Y005469D02*
X034944Y005469D01*
X034944Y005371D02*
X034906Y005371D01*
X034906Y005272D02*
X034944Y005272D01*
X034944Y005174D02*
X034906Y005174D01*
X034906Y005075D02*
X034944Y005075D01*
X034944Y004977D02*
X034906Y004977D01*
X034906Y004878D02*
X034944Y004878D01*
X034944Y004780D02*
X034906Y004780D01*
X034906Y004681D02*
X034944Y004681D01*
X034944Y004583D02*
X034906Y004583D01*
X034446Y004583D02*
X000410Y004583D01*
X000410Y004681D02*
X034274Y004681D01*
X034190Y004780D02*
X000410Y004780D01*
X000410Y004878D02*
X034142Y004878D01*
X034119Y004977D02*
X000410Y004977D01*
X000410Y005075D02*
X026424Y005075D01*
X026305Y005174D02*
X000410Y005174D01*
X000410Y005272D02*
X026234Y005272D01*
X026192Y005371D02*
X000410Y005371D01*
X000410Y005469D02*
X026170Y005469D01*
X026650Y005666D02*
X026750Y005666D01*
X026750Y005568D02*
X047554Y005568D01*
X047582Y005579D02*
X047383Y005497D01*
X047232Y005345D01*
X047149Y005146D01*
X047149Y004932D01*
X047232Y004733D01*
X047383Y004581D01*
X047582Y004499D01*
X048457Y004499D01*
X048655Y004581D01*
X048807Y004733D01*
X048889Y004932D01*
X048889Y005146D01*
X048807Y005345D01*
X048655Y005497D01*
X048457Y005579D01*
X047582Y005579D01*
X047356Y005469D02*
X035468Y005469D01*
X035602Y005371D02*
X047257Y005371D01*
X047201Y005272D02*
X035675Y005272D01*
X035716Y005174D02*
X047161Y005174D01*
X047149Y005075D02*
X035735Y005075D01*
X035731Y004977D02*
X047149Y004977D01*
X047171Y004878D02*
X035707Y004878D01*
X035660Y004780D02*
X047212Y004780D01*
X047284Y004681D02*
X035576Y004681D01*
X035403Y004583D02*
X047382Y004583D01*
X048657Y004583D02*
X057715Y004583D01*
X057813Y004681D02*
X048755Y004681D01*
X048826Y004780D02*
X057912Y004780D01*
X057990Y004878D02*
X048867Y004878D01*
X048889Y004977D02*
X057990Y004977D01*
X057990Y005075D02*
X048889Y005075D01*
X048878Y005174D02*
X057990Y005174D01*
X057990Y005272D02*
X048837Y005272D01*
X048781Y005371D02*
X057990Y005371D01*
X057990Y005469D02*
X048683Y005469D01*
X048484Y005568D02*
X057990Y005568D01*
X057990Y005666D02*
X027219Y005666D01*
X027182Y005765D02*
X057990Y005765D01*
X057990Y005863D02*
X027121Y005863D01*
X027019Y005962D02*
X057990Y005962D01*
X058550Y005962D02*
X059962Y005962D01*
X060050Y006060D02*
X058550Y006060D01*
X058550Y006159D02*
X060050Y006159D01*
X060050Y006257D02*
X058550Y006257D01*
X058556Y006356D02*
X060050Y006356D01*
X060050Y006454D02*
X058654Y006454D01*
X058582Y006750D02*
X058510Y006750D01*
X058637Y005863D02*
X059863Y005863D01*
X059765Y005765D02*
X058735Y005765D01*
X057616Y004484D02*
X000410Y004484D01*
X000410Y004386D02*
X057518Y004386D01*
X057419Y004287D02*
X000410Y004287D01*
X000410Y004189D02*
X057321Y004189D01*
X057222Y004090D02*
X002133Y004090D01*
X002119Y004090D02*
X001981Y004090D01*
X001967Y004090D02*
X000410Y004090D01*
X000410Y003992D02*
X001437Y003992D01*
X001188Y003893D02*
X000410Y003893D01*
X000410Y003795D02*
X000995Y003795D01*
X000846Y003696D02*
X000410Y003696D01*
X000410Y003598D02*
X000734Y003598D01*
X000619Y003499D02*
X000410Y003499D01*
X000410Y003401D02*
X000533Y003401D01*
X000444Y003302D02*
X000410Y003302D01*
X000150Y002150D02*
X000150Y026150D01*
X000152Y026237D01*
X000158Y026324D01*
X000167Y026411D01*
X000180Y026497D01*
X000197Y026583D01*
X000218Y026668D01*
X000243Y026751D01*
X000271Y026834D01*
X000302Y026915D01*
X000337Y026995D01*
X000376Y027073D01*
X000418Y027150D01*
X000463Y027225D01*
X000512Y027297D01*
X000563Y027368D01*
X000618Y027436D01*
X000675Y027501D01*
X000736Y027564D01*
X000799Y027625D01*
X000864Y027682D01*
X000932Y027737D01*
X001003Y027788D01*
X001075Y027837D01*
X001150Y027882D01*
X001227Y027924D01*
X001305Y027963D01*
X001385Y027998D01*
X001466Y028029D01*
X001549Y028057D01*
X001632Y028082D01*
X001717Y028103D01*
X001803Y028120D01*
X001889Y028133D01*
X001976Y028142D01*
X002063Y028148D01*
X002150Y028150D01*
X058350Y028150D01*
X057157Y027829D02*
X003455Y027829D01*
X003551Y027730D02*
X057046Y027730D01*
X056949Y027632D02*
X003637Y027632D01*
X005378Y027435D02*
X006922Y027435D01*
X006780Y027336D02*
X006426Y027336D01*
X006528Y027238D02*
X006690Y027238D01*
X006649Y027139D02*
X006587Y027139D01*
X006200Y027139D02*
X006100Y027139D01*
X006100Y027041D02*
X006200Y027041D01*
X006200Y027238D02*
X006100Y027238D01*
X006100Y027336D02*
X006200Y027336D01*
X005874Y027336D02*
X005520Y027336D01*
X005610Y027238D02*
X005772Y027238D01*
X005713Y027139D02*
X005651Y027139D01*
X007378Y027435D02*
X007922Y027435D01*
X007780Y027336D02*
X007520Y027336D01*
X007610Y027238D02*
X007690Y027238D01*
X009100Y026844D02*
X009200Y026844D01*
X009200Y026745D02*
X009100Y026745D01*
X009100Y026647D02*
X009200Y026647D01*
X010100Y027041D02*
X010200Y027041D01*
X010200Y027139D02*
X010100Y027139D01*
X010100Y027238D02*
X010200Y027238D01*
X010200Y027336D02*
X010100Y027336D01*
X011378Y027435D02*
X011922Y027435D01*
X011780Y027336D02*
X011520Y027336D01*
X011610Y027238D02*
X011690Y027238D01*
X014709Y026253D02*
X015191Y026253D01*
X015093Y026351D02*
X014807Y026351D01*
X014906Y026450D02*
X014994Y026450D01*
X014950Y025550D02*
X014950Y025450D01*
X018050Y025450D02*
X018050Y025550D01*
X018016Y027041D02*
X018084Y027041D01*
X018183Y027139D02*
X017917Y027139D01*
X017819Y027238D02*
X018281Y027238D01*
X020909Y026253D02*
X021391Y026253D01*
X021293Y026351D02*
X021007Y026351D01*
X021106Y026450D02*
X021194Y026450D01*
X021150Y025550D02*
X021150Y025450D01*
X019450Y022650D02*
X019450Y021250D01*
X019950Y020750D01*
X021231Y019752D02*
X018569Y019752D01*
X018131Y019752D02*
X015469Y019752D01*
X015031Y019752D02*
X014896Y019752D01*
X014797Y019850D02*
X029390Y019850D01*
X029390Y019752D02*
X024769Y019752D01*
X024550Y019450D02*
X027750Y019450D01*
X028950Y018250D01*
X029200Y017979D02*
X029390Y017979D01*
X029390Y018077D02*
X029277Y018077D01*
X029318Y018176D02*
X029390Y018176D01*
X029390Y018274D02*
X029318Y018274D01*
X029298Y018373D02*
X029390Y018373D01*
X029390Y018471D02*
X029250Y018471D01*
X029141Y018570D02*
X029390Y018570D01*
X029390Y018668D02*
X028900Y018668D01*
X028801Y018767D02*
X029390Y018767D01*
X029390Y018865D02*
X028703Y018865D01*
X028604Y018964D02*
X029390Y018964D01*
X029390Y019062D02*
X028506Y019062D01*
X028407Y019161D02*
X029390Y019161D01*
X029390Y019259D02*
X028309Y019259D01*
X028210Y019358D02*
X029390Y019358D01*
X029390Y019456D02*
X028112Y019456D01*
X028013Y019555D02*
X029390Y019555D01*
X029390Y019653D02*
X027915Y019653D01*
X027650Y019150D02*
X028250Y018550D01*
X028550Y018250D01*
X028300Y017979D02*
X021689Y017979D01*
X021591Y018077D02*
X028223Y018077D01*
X028182Y018176D02*
X021518Y018176D01*
X021547Y018120D02*
X021547Y018120D01*
X021497Y018274D02*
X028158Y018274D01*
X028060Y018373D02*
X021448Y018373D01*
X021338Y018471D02*
X027961Y018471D01*
X027863Y018570D02*
X000410Y018570D01*
X000410Y018668D02*
X027764Y018668D01*
X027666Y018767D02*
X000410Y018767D01*
X000410Y018865D02*
X017114Y018865D01*
X017350Y019150D02*
X015130Y019150D01*
X014948Y018964D02*
X000410Y018964D01*
X000410Y019062D02*
X014850Y019062D01*
X014751Y019161D02*
X000410Y019161D01*
X000410Y019259D02*
X014653Y019259D01*
X014554Y019358D02*
X000410Y019358D01*
X000410Y019456D02*
X014456Y019456D01*
X014357Y019555D02*
X000410Y019555D01*
X000410Y019653D02*
X014259Y019653D01*
X014160Y019752D02*
X000410Y019752D01*
X000410Y019850D02*
X007846Y019850D01*
X007699Y019949D02*
X000410Y019949D01*
X000410Y020047D02*
X007607Y020047D01*
X007550Y020146D02*
X000410Y020146D01*
X000410Y020244D02*
X007517Y020244D01*
X007495Y020343D02*
X000410Y020343D01*
X000410Y020441D02*
X007487Y020441D01*
X007501Y020540D02*
X000410Y020540D01*
X000410Y020638D02*
X007532Y020638D01*
X007583Y020737D02*
X000410Y020737D01*
X000410Y020835D02*
X007664Y020835D01*
X007766Y020934D02*
X000410Y020934D01*
X000410Y021032D02*
X007864Y021032D01*
X007963Y021131D02*
X000410Y021131D01*
X000410Y021229D02*
X008061Y021229D01*
X008160Y021328D02*
X000410Y021328D01*
X000410Y021426D02*
X008258Y021426D01*
X008357Y021525D02*
X000410Y021525D01*
X000410Y021623D02*
X008455Y021623D01*
X008554Y021722D02*
X000410Y021722D01*
X000410Y021820D02*
X008652Y021820D01*
X008751Y021919D02*
X000410Y021919D01*
X000410Y022017D02*
X008849Y022017D01*
X008948Y022116D02*
X000410Y022116D01*
X000410Y022214D02*
X009046Y022214D01*
X009145Y022313D02*
X000410Y022313D01*
X000410Y022411D02*
X009243Y022411D01*
X009342Y022510D02*
X000410Y022510D01*
X000410Y022608D02*
X009438Y022608D01*
X009539Y022707D02*
X000410Y022707D01*
X000410Y022805D02*
X009637Y022805D01*
X009736Y022904D02*
X000410Y022904D01*
X000410Y023002D02*
X009834Y023002D01*
X009933Y023101D02*
X000410Y023101D01*
X000410Y023199D02*
X010072Y023199D01*
X009611Y022411D02*
X010611Y022411D01*
X010513Y022313D02*
X009513Y022313D01*
X009414Y022214D02*
X010414Y022214D01*
X010316Y022116D02*
X009316Y022116D01*
X009217Y022017D02*
X010217Y022017D01*
X010119Y021919D02*
X009119Y021919D01*
X009020Y021820D02*
X010020Y021820D01*
X009922Y021722D02*
X008922Y021722D01*
X008823Y021623D02*
X009823Y021623D01*
X009725Y021525D02*
X008725Y021525D01*
X008626Y021426D02*
X009626Y021426D01*
X009528Y021328D02*
X008528Y021328D01*
X008429Y021229D02*
X009429Y021229D01*
X009331Y021131D02*
X008331Y021131D01*
X008232Y021032D02*
X009232Y021032D01*
X009134Y020934D02*
X008134Y020934D01*
X008035Y020835D02*
X009035Y020835D01*
X008937Y020737D02*
X007937Y020737D01*
X007839Y020638D02*
X008838Y020638D01*
X008740Y020540D02*
X007774Y020540D01*
X007752Y020441D02*
X008641Y020441D01*
X008543Y020343D02*
X007758Y020343D01*
X007796Y020244D02*
X008444Y020244D01*
X008346Y020146D02*
X007873Y020146D01*
X008377Y019850D02*
X014062Y019850D01*
X013973Y019949D02*
X008516Y019949D01*
X008615Y020047D02*
X013940Y020047D01*
X013940Y020146D02*
X008713Y020146D01*
X008812Y020244D02*
X013940Y020244D01*
X013940Y020343D02*
X008910Y020343D01*
X009009Y020441D02*
X013938Y020441D01*
X013839Y020540D02*
X009107Y020540D01*
X009206Y020638D02*
X013798Y020638D01*
X013782Y020737D02*
X009304Y020737D01*
X009403Y020835D02*
X013786Y020835D01*
X013827Y020934D02*
X009501Y020934D01*
X014460Y020244D02*
X029390Y020244D01*
X029390Y020146D02*
X014502Y020146D01*
X014600Y020047D02*
X029390Y020047D01*
X029390Y019949D02*
X014699Y019949D01*
X017350Y019150D02*
X020450Y019150D01*
X023550Y019150D01*
X027650Y019150D01*
X027567Y018865D02*
X023786Y018865D01*
X023314Y018865D02*
X020686Y018865D01*
X020214Y018865D02*
X017586Y018865D01*
X020550Y018250D02*
X020550Y018150D01*
X020838Y017941D02*
X020941Y017838D01*
X021032Y017800D01*
X020730Y017497D01*
X020690Y017402D01*
X020690Y013711D01*
X020690Y013743D02*
X000410Y013743D01*
X000410Y013645D02*
X020632Y013645D01*
X020591Y013546D02*
X000410Y013546D01*
X000410Y013448D02*
X020582Y013448D01*
X020593Y013349D02*
X000410Y013349D01*
X000410Y013251D02*
X020634Y013251D01*
X020727Y013152D02*
X000410Y013152D01*
X000410Y013054D02*
X025845Y013054D01*
X025845Y013152D02*
X024448Y013152D01*
X024431Y013145D02*
X024579Y013207D01*
X024693Y013321D01*
X024755Y013469D01*
X024755Y013631D01*
X024693Y013779D01*
X024579Y013893D01*
X024431Y013955D01*
X024269Y013955D01*
X024121Y013893D01*
X024007Y013779D01*
X023950Y013643D01*
X023893Y013779D01*
X023779Y013893D01*
X023631Y013955D01*
X023469Y013955D01*
X023321Y013893D01*
X023207Y013779D01*
X023145Y013631D01*
X023145Y013469D01*
X023207Y013321D01*
X023321Y013207D01*
X023469Y013145D01*
X023631Y013145D01*
X023779Y013207D01*
X023893Y013321D01*
X023950Y013457D01*
X024007Y013321D01*
X024121Y013207D01*
X024269Y013145D01*
X024431Y013145D01*
X024252Y013152D02*
X023648Y013152D01*
X023452Y013152D02*
X021173Y013152D01*
X021266Y013251D02*
X023277Y013251D01*
X023195Y013349D02*
X021307Y013349D01*
X021318Y013448D02*
X023154Y013448D01*
X023145Y013546D02*
X021309Y013546D01*
X021268Y013645D02*
X023151Y013645D01*
X023192Y013743D02*
X021210Y013743D01*
X021210Y013842D02*
X023269Y013842D01*
X023433Y013940D02*
X021210Y013940D01*
X021210Y014039D02*
X025845Y014039D01*
X025845Y014137D02*
X021210Y014137D01*
X021210Y014236D02*
X025880Y014236D01*
X025921Y014334D02*
X021210Y014334D01*
X021210Y014433D02*
X026018Y014433D01*
X026191Y014531D02*
X021210Y014531D01*
X021210Y014630D02*
X026056Y014630D01*
X025957Y014728D02*
X021210Y014728D01*
X021210Y014827D02*
X025896Y014827D01*
X025855Y014925D02*
X021210Y014925D01*
X021210Y015024D02*
X025845Y015024D01*
X025845Y015122D02*
X021210Y015122D01*
X021210Y015221D02*
X025874Y015221D01*
X025915Y015319D02*
X021210Y015319D01*
X021210Y015418D02*
X026003Y015418D01*
X026155Y015516D02*
X021210Y015516D01*
X021210Y015615D02*
X028690Y015615D01*
X028690Y015713D02*
X021210Y015713D01*
X021210Y015812D02*
X028690Y015812D01*
X028690Y015910D02*
X021210Y015910D01*
X021210Y016009D02*
X028690Y016009D01*
X028690Y016107D02*
X021210Y016107D01*
X021210Y016206D02*
X028690Y016206D01*
X028690Y016304D02*
X021210Y016304D01*
X021210Y016403D02*
X028690Y016403D01*
X028690Y016501D02*
X021210Y016501D01*
X021210Y016600D02*
X028690Y016600D01*
X028690Y016698D02*
X021210Y016698D01*
X021210Y016797D02*
X028690Y016797D01*
X028690Y016895D02*
X021210Y016895D01*
X021210Y016994D02*
X028690Y016994D01*
X028950Y017350D02*
X028950Y013950D01*
X029550Y013350D01*
X029182Y013349D02*
X028419Y013349D01*
X028517Y013251D02*
X029192Y013251D01*
X029233Y013152D02*
X028616Y013152D01*
X028714Y013054D02*
X029325Y013054D01*
X029085Y013448D02*
X028320Y013448D01*
X028222Y013546D02*
X028986Y013546D01*
X028888Y013645D02*
X028123Y013645D01*
X028025Y013743D02*
X028789Y013743D01*
X028714Y013842D02*
X027926Y013842D01*
X027828Y013940D02*
X028690Y013940D01*
X028690Y014039D02*
X027729Y014039D01*
X027631Y014137D02*
X028690Y014137D01*
X028690Y014236D02*
X027532Y014236D01*
X027434Y014334D02*
X028690Y014334D01*
X028690Y014433D02*
X027335Y014433D01*
X027237Y014531D02*
X028690Y014531D01*
X028690Y014630D02*
X027138Y014630D01*
X027040Y014728D02*
X028690Y014728D01*
X028690Y014827D02*
X026941Y014827D01*
X026845Y014925D02*
X028690Y014925D01*
X028690Y015024D02*
X026855Y015024D01*
X026855Y015122D02*
X028690Y015122D01*
X028690Y015221D02*
X026826Y015221D01*
X026785Y015319D02*
X028690Y015319D01*
X028690Y015418D02*
X026697Y015418D01*
X026545Y015516D02*
X028690Y015516D01*
X026895Y014137D02*
X026855Y014137D01*
X026855Y014039D02*
X026994Y014039D01*
X027092Y013940D02*
X026851Y013940D01*
X026811Y013842D02*
X027191Y013842D01*
X027289Y013743D02*
X026758Y013743D01*
X026659Y013645D02*
X027388Y013645D01*
X027486Y013546D02*
X026473Y013546D01*
X026667Y013448D02*
X027585Y013448D01*
X027683Y013349D02*
X026766Y013349D01*
X026814Y013251D02*
X027782Y013251D01*
X027880Y013152D02*
X026855Y013152D01*
X026855Y013054D02*
X027979Y013054D01*
X028077Y012955D02*
X026855Y012955D01*
X026817Y012857D02*
X028176Y012857D01*
X028274Y012758D02*
X026773Y012758D01*
X026674Y012660D02*
X028373Y012660D01*
X028471Y012561D02*
X026490Y012561D01*
X026652Y012463D02*
X028570Y012463D01*
X028668Y012364D02*
X026751Y012364D01*
X026808Y012266D02*
X028767Y012266D01*
X028865Y012167D02*
X026848Y012167D01*
X026855Y012069D02*
X028964Y012069D01*
X029062Y011970D02*
X026855Y011970D01*
X026823Y011872D02*
X029161Y011872D01*
X029259Y011773D02*
X026782Y011773D01*
X026689Y011675D02*
X029358Y011675D01*
X029456Y011576D02*
X026526Y011576D01*
X026637Y011478D02*
X029555Y011478D01*
X029653Y011379D02*
X026736Y011379D01*
X026801Y011281D02*
X029752Y011281D01*
X029850Y011182D02*
X026842Y011182D01*
X026855Y011084D02*
X029949Y011084D01*
X030047Y010985D02*
X026855Y010985D01*
X026829Y010887D02*
X030146Y010887D01*
X030244Y010788D02*
X026788Y010788D01*
X026704Y010690D02*
X030343Y010690D01*
X030441Y010591D02*
X026562Y010591D01*
X026521Y010463D02*
X026454Y010484D01*
X026398Y010493D01*
X026398Y010098D01*
X026793Y010098D01*
X026784Y010154D01*
X026763Y010221D01*
X026731Y010283D01*
X026690Y010340D01*
X026640Y010390D01*
X026583Y010431D01*
X026521Y010463D01*
X026402Y010493D02*
X030540Y010493D01*
X030638Y010394D02*
X026634Y010394D01*
X026722Y010296D02*
X030737Y010296D01*
X030835Y010197D02*
X026770Y010197D01*
X026793Y010099D02*
X030934Y010099D01*
X031032Y010000D02*
X026793Y010000D01*
X026793Y010002D02*
X026398Y010002D01*
X026398Y010098D01*
X026302Y010098D01*
X026302Y010002D01*
X026398Y010002D01*
X026398Y009607D01*
X026454Y009616D01*
X026521Y009637D01*
X026583Y009669D01*
X026640Y009710D01*
X026690Y009760D01*
X026731Y009817D01*
X026763Y009879D01*
X026784Y009946D01*
X026793Y010002D01*
X026770Y009902D02*
X031131Y009902D01*
X031229Y009803D02*
X026721Y009803D01*
X026632Y009705D02*
X031328Y009705D01*
X031426Y009606D02*
X000410Y009606D01*
X000410Y009508D02*
X031525Y009508D01*
X031623Y009409D02*
X000410Y009409D01*
X000410Y009311D02*
X031722Y009311D01*
X031820Y009212D02*
X000410Y009212D01*
X000410Y009114D02*
X031919Y009114D01*
X032017Y009015D02*
X000410Y009015D01*
X000410Y008917D02*
X032116Y008917D01*
X032214Y008818D02*
X000410Y008818D01*
X000410Y008720D02*
X032313Y008720D01*
X032411Y008621D02*
X000410Y008621D01*
X000410Y008523D02*
X032510Y008523D01*
X032603Y008424D02*
X000410Y008424D01*
X000410Y008326D02*
X032653Y008326D01*
X032767Y008227D02*
X000410Y008227D01*
X000410Y008129D02*
X057950Y008129D01*
X057902Y008227D02*
X033133Y008227D01*
X033247Y008326D02*
X057882Y008326D01*
X057882Y008424D02*
X033297Y008424D01*
X033318Y008523D02*
X057923Y008523D01*
X058000Y008621D02*
X033318Y008621D01*
X033279Y008720D02*
X052485Y008720D01*
X051328Y009705D02*
X034679Y009705D01*
X034550Y010050D02*
X033850Y009350D01*
X032950Y009350D01*
X033057Y009705D02*
X033837Y009705D01*
X034550Y010050D02*
X036350Y010050D01*
X032950Y008550D02*
X032850Y008550D01*
X026350Y015050D01*
X025450Y014250D02*
X025450Y014050D01*
X025849Y013940D02*
X024467Y013940D01*
X024631Y013842D02*
X025889Y013842D01*
X025942Y013743D02*
X024708Y013743D01*
X024749Y013645D02*
X026041Y013645D01*
X026033Y013448D02*
X024746Y013448D01*
X024755Y013546D02*
X026227Y013546D01*
X025934Y013349D02*
X024705Y013349D01*
X024623Y013251D02*
X025886Y013251D01*
X025845Y012955D02*
X000410Y012955D01*
X000410Y012857D02*
X025883Y012857D01*
X025927Y012758D02*
X000410Y012758D01*
X000410Y012660D02*
X026026Y012660D01*
X026048Y012463D02*
X000410Y012463D01*
X000410Y012561D02*
X026210Y012561D01*
X025949Y012364D02*
X000410Y012364D01*
X000410Y012266D02*
X025892Y012266D01*
X025852Y012167D02*
X000410Y012167D01*
X000410Y012069D02*
X025845Y012069D01*
X025845Y011970D02*
X000410Y011970D01*
X000410Y011872D02*
X023699Y011872D01*
X023721Y011893D02*
X023607Y011779D01*
X023545Y011631D01*
X023545Y011469D01*
X023607Y011321D01*
X023721Y011207D01*
X023869Y011145D01*
X024031Y011145D01*
X024179Y011207D01*
X024293Y011321D01*
X024355Y011469D01*
X024355Y011631D01*
X024293Y011779D01*
X024179Y011893D01*
X024031Y011955D01*
X023869Y011955D01*
X023721Y011893D01*
X023604Y011773D02*
X000410Y011773D01*
X000410Y011675D02*
X023563Y011675D01*
X023545Y011576D02*
X000410Y011576D01*
X000410Y011478D02*
X023545Y011478D01*
X023582Y011379D02*
X000410Y011379D01*
X000410Y011281D02*
X023647Y011281D01*
X023780Y011182D02*
X000410Y011182D01*
X000410Y011084D02*
X025845Y011084D01*
X025858Y011182D02*
X024120Y011182D01*
X024253Y011281D02*
X025899Y011281D01*
X025964Y011379D02*
X024318Y011379D01*
X024355Y011478D02*
X026063Y011478D01*
X026174Y011576D02*
X024355Y011576D01*
X024337Y011675D02*
X026011Y011675D01*
X025918Y011773D02*
X024296Y011773D01*
X024201Y011872D02*
X025877Y011872D01*
X025845Y010985D02*
X000410Y010985D01*
X000410Y010887D02*
X025871Y010887D01*
X025912Y010788D02*
X000410Y010788D01*
X000410Y010690D02*
X025996Y010690D01*
X026138Y010591D02*
X000410Y010591D01*
X000410Y010493D02*
X026298Y010493D01*
X026302Y010493D02*
X026246Y010484D01*
X026179Y010463D01*
X026117Y010431D01*
X026060Y010390D01*
X026010Y010340D01*
X025969Y010283D01*
X025937Y010221D01*
X025916Y010154D01*
X025907Y010098D01*
X026302Y010098D01*
X026302Y010493D01*
X026398Y010493D01*
X026398Y010394D02*
X026302Y010394D01*
X026302Y010296D02*
X026398Y010296D01*
X026398Y010197D02*
X026302Y010197D01*
X026302Y010099D02*
X026398Y010099D01*
X026398Y010000D02*
X026302Y010000D01*
X026302Y010002D02*
X026302Y009607D01*
X026246Y009616D01*
X026179Y009637D01*
X026117Y009669D01*
X026060Y009710D01*
X026010Y009760D01*
X025969Y009817D01*
X025937Y009879D01*
X025916Y009946D01*
X025907Y010002D01*
X026302Y010002D01*
X026302Y009902D02*
X026398Y009902D01*
X026398Y009803D02*
X026302Y009803D01*
X026302Y009705D02*
X026398Y009705D01*
X026068Y009705D02*
X000410Y009705D01*
X000410Y009803D02*
X025979Y009803D01*
X025930Y009902D02*
X000410Y009902D01*
X000410Y010000D02*
X025907Y010000D01*
X025907Y010099D02*
X000410Y010099D01*
X000410Y010197D02*
X025930Y010197D01*
X025978Y010296D02*
X000410Y010296D01*
X000410Y010394D02*
X026066Y010394D01*
X024077Y013251D02*
X023823Y013251D01*
X023905Y013349D02*
X023995Y013349D01*
X023954Y013448D02*
X023946Y013448D01*
X023949Y013645D02*
X023951Y013645D01*
X023992Y013743D02*
X023908Y013743D01*
X023831Y013842D02*
X024069Y013842D01*
X024233Y013940D02*
X023667Y013940D01*
X020690Y013940D02*
X000410Y013940D01*
X000410Y013842D02*
X020690Y013842D01*
X020690Y014039D02*
X000410Y014039D01*
X000410Y014137D02*
X020690Y014137D01*
X020690Y014236D02*
X000410Y014236D01*
X000410Y014334D02*
X020690Y014334D01*
X020690Y014433D02*
X000410Y014433D01*
X000410Y014531D02*
X020690Y014531D01*
X020690Y014630D02*
X000410Y014630D01*
X000410Y014728D02*
X020690Y014728D01*
X020690Y014827D02*
X000410Y014827D01*
X000410Y014925D02*
X020690Y014925D01*
X020690Y015024D02*
X000410Y015024D01*
X000410Y015122D02*
X020690Y015122D01*
X020690Y015221D02*
X000410Y015221D01*
X000410Y015319D02*
X020690Y015319D01*
X020690Y015418D02*
X000410Y015418D01*
X000410Y015516D02*
X020690Y015516D01*
X020690Y015615D02*
X000410Y015615D01*
X000410Y015713D02*
X020690Y015713D01*
X020690Y015812D02*
X000410Y015812D01*
X000410Y015910D02*
X020690Y015910D01*
X020690Y016009D02*
X000410Y016009D01*
X000410Y016107D02*
X020690Y016107D01*
X020690Y016206D02*
X000410Y016206D01*
X000410Y016304D02*
X020690Y016304D01*
X020690Y016403D02*
X000410Y016403D01*
X000410Y016501D02*
X020690Y016501D01*
X020690Y016600D02*
X000410Y016600D01*
X000410Y016698D02*
X020690Y016698D01*
X020690Y016797D02*
X000410Y016797D01*
X000410Y016895D02*
X020690Y016895D01*
X020690Y016994D02*
X000410Y016994D01*
X000410Y017092D02*
X020690Y017092D01*
X020690Y017191D02*
X000410Y017191D01*
X000410Y017289D02*
X020690Y017289D01*
X020690Y017388D02*
X000410Y017388D01*
X000410Y017486D02*
X020725Y017486D01*
X020817Y017585D02*
X000410Y017585D01*
X000410Y017683D02*
X020915Y017683D01*
X021014Y017782D02*
X000410Y017782D01*
X000410Y017880D02*
X020899Y017880D01*
X021400Y017900D02*
X021950Y017350D01*
X028950Y017350D01*
X029650Y017350D01*
X032150Y017350D01*
X032048Y016994D02*
X029210Y016994D01*
X029650Y017350D02*
X029650Y022650D01*
X028550Y022650D02*
X028250Y022650D01*
X028650Y023450D02*
X028650Y023550D01*
X031450Y022650D02*
X031650Y022650D01*
X031750Y022550D01*
X031850Y023450D02*
X031850Y023550D01*
X034550Y022650D02*
X034750Y022650D01*
X035150Y023450D02*
X035150Y023550D01*
X031400Y019950D02*
X031250Y019550D01*
X032050Y017950D02*
X032150Y017950D01*
X031991Y017683D02*
X029910Y017683D01*
X029390Y017683D02*
X021985Y017683D01*
X021886Y017782D02*
X029390Y017782D01*
X029390Y017880D02*
X021788Y017880D01*
X021545Y017388D02*
X021355Y017388D01*
X021257Y017289D02*
X021643Y017289D01*
X021742Y017191D02*
X021210Y017191D01*
X021210Y017092D02*
X021893Y017092D01*
X018650Y016450D02*
X018650Y016250D01*
X018650Y016050D02*
X018650Y015950D01*
X018750Y015650D02*
X018650Y015550D01*
X018650Y015450D01*
X012550Y015650D02*
X012550Y015850D01*
X025650Y021250D02*
X025650Y022650D01*
X025650Y021250D02*
X026150Y020750D01*
X034450Y017900D02*
X036800Y017900D01*
X036850Y017850D01*
X036290Y018176D02*
X034695Y018176D01*
X034750Y018350D02*
X035050Y018350D01*
X035250Y018850D02*
X035200Y018950D01*
X037996Y016304D02*
X038596Y016304D01*
X038694Y016206D02*
X038094Y016206D01*
X037450Y013750D02*
X037400Y013650D01*
X039150Y013550D02*
X039150Y013350D01*
X043950Y012650D02*
X043950Y015650D01*
X049550Y011850D02*
X049650Y011850D01*
X052000Y010800D02*
X052250Y010550D01*
X052450Y010550D01*
X053250Y010550D01*
X053584Y010394D02*
X053918Y010394D01*
X054250Y010650D02*
X054350Y010750D01*
X055950Y010350D02*
X056050Y010350D01*
X056150Y010250D01*
X045500Y006553D02*
X000410Y006553D01*
X000410Y006651D02*
X045292Y006651D01*
X045193Y006750D02*
X000410Y006750D01*
X000410Y006848D02*
X045125Y006848D01*
X045084Y006947D02*
X000410Y006947D01*
X000410Y007045D02*
X045055Y007045D01*
X045055Y007144D02*
X000410Y007144D01*
X000410Y007242D02*
X045055Y007242D01*
X045092Y007341D02*
X000410Y007341D01*
X000410Y007439D02*
X045133Y007439D01*
X045213Y007538D02*
X000410Y007538D01*
X000410Y007636D02*
X045312Y007636D01*
X041650Y010450D02*
X041450Y010450D01*
X035561Y003528D02*
X035362Y003610D01*
X034487Y003610D01*
X034289Y003528D01*
X034137Y003376D01*
X034055Y003178D01*
X034055Y002963D01*
X034137Y002765D01*
X034289Y002613D01*
X034487Y002530D01*
X035362Y002530D01*
X035561Y002613D01*
X035713Y002765D01*
X035795Y002963D01*
X035795Y003178D01*
X035713Y003376D01*
X035561Y003528D01*
X035590Y003499D02*
X047354Y003499D01*
X047383Y003528D02*
X047232Y003376D01*
X047149Y003178D01*
X047149Y002963D01*
X047232Y002765D01*
X047383Y002613D01*
X047582Y002530D01*
X048457Y002530D01*
X048655Y002613D01*
X048807Y002765D01*
X048889Y002963D01*
X048889Y003178D01*
X048807Y003376D01*
X048655Y003528D01*
X048457Y003610D01*
X047582Y003610D01*
X047383Y003528D01*
X047256Y003401D02*
X035688Y003401D01*
X035743Y003302D02*
X047201Y003302D01*
X047160Y003204D02*
X035784Y003204D01*
X035795Y003105D02*
X047149Y003105D01*
X047149Y003007D02*
X035795Y003007D01*
X035772Y002908D02*
X047172Y002908D01*
X047213Y002810D02*
X035731Y002810D01*
X035659Y002711D02*
X047285Y002711D01*
X047384Y002613D02*
X035560Y002613D01*
X034289Y002613D02*
X004009Y002613D01*
X004037Y002514D02*
X055890Y002514D01*
X055890Y002416D02*
X004048Y002416D01*
X004068Y002317D02*
X055890Y002317D01*
X055890Y002219D02*
X004074Y002219D01*
X004090Y002120D02*
X055890Y002120D01*
X055890Y002022D02*
X004087Y002022D01*
X003971Y002711D02*
X034191Y002711D01*
X034118Y002810D02*
X003940Y002810D01*
X003901Y002908D02*
X034078Y002908D01*
X034055Y003007D02*
X003854Y003007D01*
X003794Y003105D02*
X034055Y003105D01*
X034065Y003204D02*
X003722Y003204D01*
X003656Y003302D02*
X034106Y003302D01*
X034161Y003401D02*
X003567Y003401D01*
X003481Y003499D02*
X034260Y003499D01*
X034456Y003598D02*
X003366Y003598D01*
X003254Y003696D02*
X056828Y003696D01*
X056730Y003598D02*
X048488Y003598D01*
X048684Y003499D02*
X056631Y003499D01*
X056533Y003401D02*
X048783Y003401D01*
X048838Y003302D02*
X056434Y003302D01*
X056336Y003204D02*
X048879Y003204D01*
X048889Y003105D02*
X056237Y003105D01*
X056139Y003007D02*
X048889Y003007D01*
X048866Y002908D02*
X056040Y002908D01*
X055942Y002810D02*
X048826Y002810D01*
X048754Y002711D02*
X055894Y002711D01*
X055890Y002613D02*
X048655Y002613D01*
X047551Y003598D02*
X035394Y003598D01*
X032853Y000938D02*
X044993Y000938D01*
X045092Y000840D02*
X032754Y000840D01*
X032612Y000741D02*
X045234Y000741D01*
X045761Y000643D02*
X003526Y000643D01*
X003611Y000741D02*
X032088Y000741D01*
X026750Y005765D02*
X026650Y005765D01*
X026650Y005863D02*
X026750Y005863D01*
X026750Y005962D02*
X026650Y005962D01*
X045859Y000544D02*
X003413Y000544D01*
X003305Y000446D02*
X045958Y000446D01*
X056927Y003795D02*
X003105Y003795D01*
X002912Y003893D02*
X057025Y003893D01*
X057124Y003992D02*
X002663Y003992D01*
X000150Y002150D02*
X000152Y002063D01*
X000158Y001976D01*
X000167Y001889D01*
X000180Y001803D01*
X000197Y001717D01*
X000218Y001632D01*
X000243Y001549D01*
X000271Y001466D01*
X000302Y001385D01*
X000337Y001305D01*
X000376Y001227D01*
X000418Y001150D01*
X000463Y001075D01*
X000512Y001003D01*
X000563Y000932D01*
X000618Y000864D01*
X000675Y000799D01*
X000736Y000736D01*
X000799Y000675D01*
X000864Y000618D01*
X000932Y000563D01*
X001003Y000512D01*
X001075Y000463D01*
X001150Y000418D01*
X001227Y000376D01*
X001305Y000337D01*
X001385Y000302D01*
X001466Y000271D01*
X001549Y000243D01*
X001632Y000218D01*
X001717Y000197D01*
X001803Y000180D01*
X001889Y000167D01*
X001976Y000158D01*
X002063Y000152D01*
X002150Y000150D01*
X000410Y024086D02*
X060090Y024086D01*
X060090Y024184D02*
X000410Y024184D01*
X000410Y024283D02*
X057927Y024283D01*
X057637Y024381D02*
X002569Y024381D01*
X001531Y024381D02*
X000410Y024381D01*
X000410Y024480D02*
X001241Y024480D01*
X001046Y024578D02*
X000410Y024578D01*
X000410Y024677D02*
X000899Y024677D01*
X000751Y024775D02*
X000410Y024775D01*
X000410Y024874D02*
X000643Y024874D01*
X000549Y024972D02*
X000410Y024972D01*
X000410Y025071D02*
X000462Y025071D01*
X058350Y028150D02*
X058437Y028148D01*
X058524Y028142D01*
X058611Y028133D01*
X058697Y028120D01*
X058783Y028103D01*
X058868Y028082D01*
X058951Y028057D01*
X059034Y028029D01*
X059115Y027998D01*
X059195Y027963D01*
X059273Y027924D01*
X059350Y027882D01*
X059425Y027837D01*
X059497Y027788D01*
X059568Y027737D01*
X059636Y027682D01*
X059701Y027625D01*
X059764Y027564D01*
X059825Y027501D01*
X059882Y027436D01*
X059937Y027368D01*
X059988Y027297D01*
X060037Y027225D01*
X060082Y027150D01*
X060124Y027073D01*
X060163Y026995D01*
X060198Y026915D01*
X060229Y026834D01*
X060257Y026751D01*
X060282Y026668D01*
X060303Y026583D01*
X060320Y026497D01*
X060333Y026411D01*
X060342Y026324D01*
X060348Y026237D01*
X060350Y026150D01*
X060350Y002150D01*
X060348Y002063D01*
X060342Y001976D01*
X060333Y001889D01*
X060320Y001803D01*
X060303Y001717D01*
X060282Y001632D01*
X060257Y001549D01*
X060229Y001466D01*
X060198Y001385D01*
X060163Y001305D01*
X060124Y001227D01*
X060082Y001150D01*
X060037Y001075D01*
X059988Y001003D01*
X059937Y000932D01*
X059882Y000864D01*
X059825Y000799D01*
X059764Y000736D01*
X059701Y000675D01*
X059636Y000618D01*
X059568Y000563D01*
X059497Y000512D01*
X059425Y000463D01*
X059350Y000418D01*
X059273Y000376D01*
X059195Y000337D01*
X059115Y000302D01*
X059034Y000271D01*
X058951Y000243D01*
X058868Y000218D01*
X058783Y000197D01*
X058697Y000180D01*
X058611Y000167D01*
X058524Y000158D01*
X058437Y000152D01*
X058350Y000150D01*
X058973Y024283D02*
X060090Y024283D01*
X060090Y024381D02*
X059263Y024381D01*
X059456Y024480D02*
X060090Y024480D01*
X060090Y024578D02*
X059604Y024578D01*
X059751Y024677D02*
X060090Y024677D01*
X060090Y024775D02*
X059858Y024775D01*
X059952Y024874D02*
X060090Y024874D01*
X060090Y024972D02*
X060039Y024972D01*
D11*
X048349Y005039D02*
X047689Y005039D01*
X047689Y003070D02*
X048349Y003070D01*
X035255Y003070D02*
X034595Y003070D01*
X034595Y005039D02*
X035255Y005039D01*
D12*
X032350Y001275D03*
X026700Y005533D03*
X013550Y001350D03*
X045496Y001275D03*
X045649Y007133D03*
X008150Y020450D03*
D13*
X026350Y015050D03*
X026350Y014050D03*
X026350Y013050D03*
X026350Y012050D03*
X026350Y011050D03*
X026350Y010050D03*
X036150Y026750D03*
X037150Y026750D03*
X038150Y026750D03*
X039150Y026750D03*
X040150Y026750D03*
X041150Y026750D03*
X042150Y026750D03*
X043150Y026750D03*
X044150Y026750D03*
X045150Y026750D03*
X046850Y026750D03*
X047850Y026750D03*
X048850Y026750D03*
X049850Y026750D03*
X050850Y026750D03*
X051850Y026750D03*
X052850Y026750D03*
X053850Y026750D03*
X054850Y026750D03*
X055850Y026750D03*
D14*
X057700Y026250D02*
X057702Y026304D01*
X057708Y026358D01*
X057718Y026411D01*
X057731Y026464D01*
X057748Y026515D01*
X057769Y026565D01*
X057794Y026613D01*
X057822Y026660D01*
X057853Y026704D01*
X057887Y026746D01*
X057924Y026785D01*
X057964Y026822D01*
X058007Y026855D01*
X058052Y026886D01*
X058099Y026913D01*
X058147Y026936D01*
X058198Y026956D01*
X058249Y026973D01*
X058302Y026985D01*
X058355Y026994D01*
X058409Y026999D01*
X058464Y027000D01*
X058518Y026997D01*
X058571Y026990D01*
X058624Y026979D01*
X058677Y026965D01*
X058728Y026947D01*
X058777Y026925D01*
X058825Y026900D01*
X058871Y026871D01*
X058915Y026839D01*
X058956Y026804D01*
X058994Y026766D01*
X059030Y026725D01*
X059063Y026682D01*
X059093Y026637D01*
X059119Y026589D01*
X059142Y026540D01*
X059161Y026489D01*
X059176Y026438D01*
X059188Y026385D01*
X059196Y026331D01*
X059200Y026277D01*
X059200Y026223D01*
X059196Y026169D01*
X059188Y026115D01*
X059176Y026062D01*
X059161Y026011D01*
X059142Y025960D01*
X059119Y025911D01*
X059093Y025863D01*
X059063Y025818D01*
X059030Y025775D01*
X058994Y025734D01*
X058956Y025696D01*
X058915Y025661D01*
X058871Y025629D01*
X058825Y025600D01*
X058777Y025575D01*
X058728Y025553D01*
X058677Y025535D01*
X058624Y025521D01*
X058571Y025510D01*
X058518Y025503D01*
X058464Y025500D01*
X058409Y025501D01*
X058355Y025506D01*
X058302Y025515D01*
X058249Y025527D01*
X058198Y025544D01*
X058147Y025564D01*
X058099Y025587D01*
X058052Y025614D01*
X058007Y025645D01*
X057964Y025678D01*
X057924Y025715D01*
X057887Y025754D01*
X057853Y025796D01*
X057822Y025840D01*
X057794Y025887D01*
X057769Y025935D01*
X057748Y025985D01*
X057731Y026036D01*
X057718Y026089D01*
X057708Y026142D01*
X057702Y026196D01*
X057700Y026250D01*
X024155Y013550D02*
X024157Y013578D01*
X024163Y013605D01*
X024173Y013631D01*
X024186Y013655D01*
X024203Y013678D01*
X024222Y013697D01*
X024245Y013714D01*
X024269Y013727D01*
X024295Y013737D01*
X024322Y013743D01*
X024350Y013745D01*
X024378Y013743D01*
X024405Y013737D01*
X024431Y013727D01*
X024455Y013714D01*
X024478Y013697D01*
X024497Y013678D01*
X024514Y013655D01*
X024527Y013631D01*
X024537Y013605D01*
X024543Y013578D01*
X024545Y013550D01*
X024543Y013522D01*
X024537Y013495D01*
X024527Y013469D01*
X024514Y013445D01*
X024497Y013422D01*
X024478Y013403D01*
X024455Y013386D01*
X024431Y013373D01*
X024405Y013363D01*
X024378Y013357D01*
X024350Y013355D01*
X024322Y013357D01*
X024295Y013363D01*
X024269Y013373D01*
X024245Y013386D01*
X024222Y013403D01*
X024203Y013422D01*
X024186Y013445D01*
X024173Y013469D01*
X024163Y013495D01*
X024157Y013522D01*
X024155Y013550D01*
X023355Y013550D02*
X023357Y013578D01*
X023363Y013605D01*
X023373Y013631D01*
X023386Y013655D01*
X023403Y013678D01*
X023422Y013697D01*
X023445Y013714D01*
X023469Y013727D01*
X023495Y013737D01*
X023522Y013743D01*
X023550Y013745D01*
X023578Y013743D01*
X023605Y013737D01*
X023631Y013727D01*
X023655Y013714D01*
X023678Y013697D01*
X023697Y013678D01*
X023714Y013655D01*
X023727Y013631D01*
X023737Y013605D01*
X023743Y013578D01*
X023745Y013550D01*
X023743Y013522D01*
X023737Y013495D01*
X023727Y013469D01*
X023714Y013445D01*
X023697Y013422D01*
X023678Y013403D01*
X023655Y013386D01*
X023631Y013373D01*
X023605Y013363D01*
X023578Y013357D01*
X023550Y013355D01*
X023522Y013357D01*
X023495Y013363D01*
X023469Y013373D01*
X023445Y013386D01*
X023422Y013403D01*
X023403Y013422D01*
X023386Y013445D01*
X023373Y013469D01*
X023363Y013495D01*
X023357Y013522D01*
X023355Y013550D01*
X023755Y011550D02*
X023757Y011578D01*
X023763Y011605D01*
X023773Y011631D01*
X023786Y011655D01*
X023803Y011678D01*
X023822Y011697D01*
X023845Y011714D01*
X023869Y011727D01*
X023895Y011737D01*
X023922Y011743D01*
X023950Y011745D01*
X023978Y011743D01*
X024005Y011737D01*
X024031Y011727D01*
X024055Y011714D01*
X024078Y011697D01*
X024097Y011678D01*
X024114Y011655D01*
X024127Y011631D01*
X024137Y011605D01*
X024143Y011578D01*
X024145Y011550D01*
X024143Y011522D01*
X024137Y011495D01*
X024127Y011469D01*
X024114Y011445D01*
X024097Y011422D01*
X024078Y011403D01*
X024055Y011386D01*
X024031Y011373D01*
X024005Y011363D01*
X023978Y011357D01*
X023950Y011355D01*
X023922Y011357D01*
X023895Y011363D01*
X023869Y011373D01*
X023845Y011386D01*
X023822Y011403D01*
X023803Y011422D01*
X023786Y011445D01*
X023773Y011469D01*
X023763Y011495D01*
X023757Y011522D01*
X023755Y011550D01*
X001300Y002050D02*
X001302Y002104D01*
X001308Y002158D01*
X001318Y002211D01*
X001331Y002264D01*
X001348Y002315D01*
X001369Y002365D01*
X001394Y002413D01*
X001422Y002460D01*
X001453Y002504D01*
X001487Y002546D01*
X001524Y002585D01*
X001564Y002622D01*
X001607Y002655D01*
X001652Y002686D01*
X001699Y002713D01*
X001747Y002736D01*
X001798Y002756D01*
X001849Y002773D01*
X001902Y002785D01*
X001955Y002794D01*
X002009Y002799D01*
X002064Y002800D01*
X002118Y002797D01*
X002171Y002790D01*
X002224Y002779D01*
X002277Y002765D01*
X002328Y002747D01*
X002377Y002725D01*
X002425Y002700D01*
X002471Y002671D01*
X002515Y002639D01*
X002556Y002604D01*
X002594Y002566D01*
X002630Y002525D01*
X002663Y002482D01*
X002693Y002437D01*
X002719Y002389D01*
X002742Y002340D01*
X002761Y002289D01*
X002776Y002238D01*
X002788Y002185D01*
X002796Y002131D01*
X002800Y002077D01*
X002800Y002023D01*
X002796Y001969D01*
X002788Y001915D01*
X002776Y001862D01*
X002761Y001811D01*
X002742Y001760D01*
X002719Y001711D01*
X002693Y001663D01*
X002663Y001618D01*
X002630Y001575D01*
X002594Y001534D01*
X002556Y001496D01*
X002515Y001461D01*
X002471Y001429D01*
X002425Y001400D01*
X002377Y001375D01*
X002328Y001353D01*
X002277Y001335D01*
X002224Y001321D01*
X002171Y001310D01*
X002118Y001303D01*
X002064Y001300D01*
X002009Y001301D01*
X001955Y001306D01*
X001902Y001315D01*
X001849Y001327D01*
X001798Y001344D01*
X001747Y001364D01*
X001699Y001387D01*
X001652Y001414D01*
X001607Y001445D01*
X001564Y001478D01*
X001524Y001515D01*
X001487Y001554D01*
X001453Y001596D01*
X001422Y001640D01*
X001394Y001687D01*
X001369Y001735D01*
X001348Y001785D01*
X001331Y001836D01*
X001318Y001889D01*
X001308Y001942D01*
X001302Y001996D01*
X001300Y002050D01*
X001300Y026350D02*
X001302Y026404D01*
X001308Y026458D01*
X001318Y026511D01*
X001331Y026564D01*
X001348Y026615D01*
X001369Y026665D01*
X001394Y026713D01*
X001422Y026760D01*
X001453Y026804D01*
X001487Y026846D01*
X001524Y026885D01*
X001564Y026922D01*
X001607Y026955D01*
X001652Y026986D01*
X001699Y027013D01*
X001747Y027036D01*
X001798Y027056D01*
X001849Y027073D01*
X001902Y027085D01*
X001955Y027094D01*
X002009Y027099D01*
X002064Y027100D01*
X002118Y027097D01*
X002171Y027090D01*
X002224Y027079D01*
X002277Y027065D01*
X002328Y027047D01*
X002377Y027025D01*
X002425Y027000D01*
X002471Y026971D01*
X002515Y026939D01*
X002556Y026904D01*
X002594Y026866D01*
X002630Y026825D01*
X002663Y026782D01*
X002693Y026737D01*
X002719Y026689D01*
X002742Y026640D01*
X002761Y026589D01*
X002776Y026538D01*
X002788Y026485D01*
X002796Y026431D01*
X002800Y026377D01*
X002800Y026323D01*
X002796Y026269D01*
X002788Y026215D01*
X002776Y026162D01*
X002761Y026111D01*
X002742Y026060D01*
X002719Y026011D01*
X002693Y025963D01*
X002663Y025918D01*
X002630Y025875D01*
X002594Y025834D01*
X002556Y025796D01*
X002515Y025761D01*
X002471Y025729D01*
X002425Y025700D01*
X002377Y025675D01*
X002328Y025653D01*
X002277Y025635D01*
X002224Y025621D01*
X002171Y025610D01*
X002118Y025603D01*
X002064Y025600D01*
X002009Y025601D01*
X001955Y025606D01*
X001902Y025615D01*
X001849Y025627D01*
X001798Y025644D01*
X001747Y025664D01*
X001699Y025687D01*
X001652Y025714D01*
X001607Y025745D01*
X001564Y025778D01*
X001524Y025815D01*
X001487Y025854D01*
X001453Y025896D01*
X001422Y025940D01*
X001394Y025987D01*
X001369Y026035D01*
X001348Y026085D01*
X001331Y026136D01*
X001318Y026189D01*
X001308Y026242D01*
X001302Y026296D01*
X001300Y026350D01*
X057700Y002050D02*
X057702Y002104D01*
X057708Y002158D01*
X057718Y002211D01*
X057731Y002264D01*
X057748Y002315D01*
X057769Y002365D01*
X057794Y002413D01*
X057822Y002460D01*
X057853Y002504D01*
X057887Y002546D01*
X057924Y002585D01*
X057964Y002622D01*
X058007Y002655D01*
X058052Y002686D01*
X058099Y002713D01*
X058147Y002736D01*
X058198Y002756D01*
X058249Y002773D01*
X058302Y002785D01*
X058355Y002794D01*
X058409Y002799D01*
X058464Y002800D01*
X058518Y002797D01*
X058571Y002790D01*
X058624Y002779D01*
X058677Y002765D01*
X058728Y002747D01*
X058777Y002725D01*
X058825Y002700D01*
X058871Y002671D01*
X058915Y002639D01*
X058956Y002604D01*
X058994Y002566D01*
X059030Y002525D01*
X059063Y002482D01*
X059093Y002437D01*
X059119Y002389D01*
X059142Y002340D01*
X059161Y002289D01*
X059176Y002238D01*
X059188Y002185D01*
X059196Y002131D01*
X059200Y002077D01*
X059200Y002023D01*
X059196Y001969D01*
X059188Y001915D01*
X059176Y001862D01*
X059161Y001811D01*
X059142Y001760D01*
X059119Y001711D01*
X059093Y001663D01*
X059063Y001618D01*
X059030Y001575D01*
X058994Y001534D01*
X058956Y001496D01*
X058915Y001461D01*
X058871Y001429D01*
X058825Y001400D01*
X058777Y001375D01*
X058728Y001353D01*
X058677Y001335D01*
X058624Y001321D01*
X058571Y001310D01*
X058518Y001303D01*
X058464Y001300D01*
X058409Y001301D01*
X058355Y001306D01*
X058302Y001315D01*
X058249Y001327D01*
X058198Y001344D01*
X058147Y001364D01*
X058099Y001387D01*
X058052Y001414D01*
X058007Y001445D01*
X057964Y001478D01*
X057924Y001515D01*
X057887Y001554D01*
X057853Y001596D01*
X057822Y001640D01*
X057794Y001687D01*
X057769Y001735D01*
X057748Y001785D01*
X057731Y001836D01*
X057718Y001889D01*
X057708Y001942D01*
X057702Y001996D01*
X057700Y002050D01*
D15*
X058950Y005150D03*
X058950Y006150D03*
X058950Y020450D03*
X058950Y021450D03*
X034250Y026750D03*
X033250Y026750D03*
X030950Y026750D03*
X029950Y026750D03*
X027750Y026750D03*
X026750Y026750D03*
X024750Y026750D03*
X023750Y026750D03*
X021650Y026750D03*
X020650Y026750D03*
X018550Y026750D03*
X017550Y026750D03*
X015450Y026750D03*
X014450Y026750D03*
D16*
X012150Y026950D03*
X011150Y026950D03*
X010150Y026950D03*
X009150Y026950D03*
X008150Y026950D03*
X007150Y026950D03*
X006150Y026950D03*
X005150Y026950D03*
X005150Y025950D03*
X006150Y025950D03*
X007150Y025950D03*
X008150Y025950D03*
X009150Y025950D03*
X010150Y025950D03*
X011150Y025950D03*
X012150Y025950D03*
D17*
X014950Y025450D03*
X018050Y025450D03*
X021150Y025450D03*
X024250Y025450D03*
X028650Y023450D03*
X028250Y022650D03*
X026150Y021350D03*
X026150Y020750D03*
X024550Y019450D03*
X023550Y019150D03*
X021450Y019450D03*
X020450Y019150D03*
X020550Y018150D03*
X021150Y018150D03*
X018350Y019450D03*
X017350Y019150D03*
X015250Y019450D03*
X014150Y020750D03*
X016850Y020750D03*
X016850Y021300D03*
X019950Y021350D03*
X019950Y020750D03*
X023050Y020750D03*
X023050Y021350D03*
X028550Y018250D03*
X028950Y018250D03*
X031400Y019950D03*
X032150Y017950D03*
X032150Y017350D03*
X034450Y017450D03*
X034450Y017900D03*
X035200Y018950D03*
X039350Y018950D03*
X041350Y018950D03*
X043350Y018950D03*
X045350Y018950D03*
X047050Y019150D03*
X047050Y018150D03*
X049050Y018150D03*
X049050Y019150D03*
X051050Y019150D03*
X051050Y018150D03*
X053050Y018150D03*
X053050Y019150D03*
X052050Y021250D03*
X054050Y021250D03*
X056350Y022250D03*
X057350Y022250D03*
X054050Y022550D03*
X052050Y022550D03*
X050050Y022550D03*
X048050Y022550D03*
X048050Y021250D03*
X050050Y021250D03*
X045350Y020150D03*
X043350Y020150D03*
X041350Y020150D03*
X039350Y020150D03*
X038350Y022450D03*
X040350Y022450D03*
X040350Y023650D03*
X038350Y023650D03*
X035150Y023450D03*
X034750Y022650D03*
X031850Y023450D03*
X031450Y022650D03*
X042350Y022450D03*
X044350Y022450D03*
X044350Y023650D03*
X042350Y023650D03*
X047150Y015850D03*
X049300Y015550D03*
X051300Y015550D03*
X053300Y015550D03*
X054350Y015550D03*
X053850Y014650D03*
X053550Y014350D03*
X052550Y013900D03*
X051850Y013650D03*
X052850Y012250D03*
X053750Y011950D03*
X054250Y010650D03*
X053250Y010550D03*
X052450Y010550D03*
X052050Y010050D03*
X052650Y009050D03*
X054050Y010050D03*
X056150Y010250D03*
X055250Y008250D03*
X058250Y008350D03*
X059750Y008350D03*
X057550Y012550D03*
X056750Y012550D03*
X059750Y013850D03*
X055450Y014650D03*
X050150Y011850D03*
X049650Y011850D03*
X046650Y014350D03*
X043950Y012650D03*
X041650Y010450D03*
X039150Y013350D03*
X037400Y013650D03*
X037400Y014150D03*
X029550Y013850D03*
X029550Y013350D03*
X025450Y014050D03*
X020950Y013450D03*
X018650Y015450D03*
X018650Y015950D03*
X018650Y016450D03*
X012550Y015650D03*
X010250Y016450D03*
X010650Y017950D03*
X005450Y015050D03*
X004850Y016050D03*
X005100Y013500D03*
X005100Y013000D03*
X005100Y012500D03*
X006650Y012500D03*
X006650Y013000D03*
X006650Y013500D03*
X003150Y013250D03*
X003150Y013750D03*
X003150Y012750D03*
X003150Y012250D03*
X003150Y011750D03*
X003150Y011250D03*
X003150Y010750D03*
X003150Y010250D03*
X003150Y009750D03*
X003150Y009250D03*
X003150Y008750D03*
X003150Y008250D03*
X003150Y007750D03*
X003150Y007250D03*
X003150Y006750D03*
X003150Y006250D03*
X006850Y004450D03*
X007350Y004450D03*
X007850Y004450D03*
X008350Y004450D03*
X008850Y004450D03*
X009350Y004450D03*
X011350Y003000D03*
X011950Y003000D03*
X012900Y004300D03*
X012900Y004700D03*
X012900Y005100D03*
X016000Y005000D03*
X016000Y004500D03*
X016000Y004000D03*
X017200Y004000D03*
X017200Y004500D03*
X017200Y005000D03*
X017200Y005500D03*
X016000Y005500D03*
X019800Y005400D03*
X019800Y004900D03*
X019800Y004400D03*
X019800Y003900D03*
X021000Y003900D03*
X021000Y004400D03*
X021000Y004900D03*
X021000Y005400D03*
X014350Y008850D03*
X014350Y009350D03*
X014350Y009850D03*
X014350Y010350D03*
X015450Y010300D03*
X016050Y010300D03*
X016850Y010300D03*
X017450Y010300D03*
X013650Y011250D03*
X013150Y011250D03*
X012650Y011250D03*
X012150Y011250D03*
X011450Y010350D03*
X010450Y010300D03*
X009850Y010300D03*
X011450Y009850D03*
X011450Y009350D03*
X011450Y008850D03*
X012150Y007950D03*
X012650Y007950D03*
X013150Y007950D03*
X013650Y007950D03*
X029550Y006300D03*
X029550Y005800D03*
X029550Y005300D03*
X029550Y004800D03*
X030750Y004800D03*
X030750Y005300D03*
X030750Y005800D03*
X030750Y006300D03*
X032950Y008550D03*
X032950Y009350D03*
X032950Y009950D03*
X034550Y010050D03*
X004350Y019000D03*
X003750Y021150D03*
D18*
X003750Y021350D01*
X010650Y018050D02*
X010650Y017950D01*
X010250Y016550D02*
X010250Y016450D01*
X005450Y015250D02*
X005450Y015050D01*
X004850Y016050D02*
X004850Y016150D01*
X038350Y023650D02*
X040350Y023650D01*
X042350Y023650D01*
X044350Y023650D01*
X045650Y023650D01*
X046750Y022550D01*
X048050Y022550D01*
X050050Y022550D01*
X052050Y022550D01*
X054050Y022550D01*
X055409Y022550D01*
X055550Y022409D01*
X055550Y020850D01*
X053850Y019150D01*
X053050Y019150D01*
X051050Y019150D01*
X049050Y019150D01*
X047050Y019150D01*
X046750Y019150D01*
X045750Y020150D01*
X045350Y020150D01*
X043350Y020150D01*
X041350Y020150D01*
X039350Y020150D01*
M02*
