%
M48
M72
T01C0.0197
T02C0.0276
T03C0.0390
T04C0.0394
T05C0.0433
T06C0.0512
T07C0.1500
%
T01
X6850Y4450
X7350Y4450
X7850Y4450
X8350Y4450
X8850Y4450
X9350Y4450
X11350Y3000
X11950Y3000
X12900Y4300
X12900Y4700
X12900Y5100
X16000Y5000
X16000Y4500
X16000Y4000
X17200Y4000
X17200Y4500
X17200Y5000
X17200Y5500
X16000Y5500
X19800Y5400
X19800Y4900
X19800Y4400
X19800Y3900
X21000Y3900
X21000Y4400
X21000Y4900
X21000Y5400
X14350Y8850
X14350Y9350
X14350Y9850
X14350Y10350
X15450Y10300
X16050Y10300
X16850Y10300
X17450Y10300
X13650Y11250
X13150Y11250
X12650Y11250
X12150Y11250
X11450Y10350
X10450Y10300
X9850Y10300
X11450Y9850
X11450Y9350
X11450Y8850
X12150Y7950
X12650Y7950
X13150Y7950
X13650Y7950
X6650Y12500
X6650Y13000
X6650Y13500
X5100Y13500
X5100Y13000
X5100Y12500
X3150Y12250
X3150Y11750
X3150Y11250
X3150Y10750
X3150Y10250
X3150Y9750
X3150Y9250
X3150Y8750
X3150Y8250
X3150Y7750
X3150Y7250
X3150Y6750
X3150Y6250
X3150Y12750
X3150Y13250
X3150Y13750
X5450Y15050
X4850Y16050
X10250Y16450
X12550Y15650
X10650Y17950
X15250Y19450
X17350Y19150
X18350Y19450
X20450Y19150
X21450Y19450
X23550Y19150
X24550Y19450
X23050Y20750
X23050Y21350
X26150Y21350
X26150Y20750
X28250Y22650
X28650Y23450
X31450Y22650
X31850Y23450
X34750Y22650
X35150Y23450
X38350Y23650
X40350Y23650
X40350Y22450
X38350Y22450
X42350Y22450
X44350Y22450
X44350Y23650
X42350Y23650
X48050Y22550
X50050Y22550
X52050Y22550
X54050Y22550
X56350Y22250
X57350Y22250
X54050Y21250
X52050Y21250
X50050Y21250
X48050Y21250
X45350Y20150
X43350Y20150
X41350Y20150
X39350Y20150
X39350Y18950
X41350Y18950
X43350Y18950
X45350Y18950
X47050Y19150
X47050Y18150
X49050Y18150
X49050Y19150
X51050Y19150
X51050Y18150
X53050Y18150
X53050Y19150
X47150Y15850
X49300Y15550
X51300Y15550
X53300Y15550
X54350Y15550
X53850Y14650
X53550Y14350
X52550Y13900
X51850Y13650
X52850Y12250
X53750Y11950
X54250Y10650
X53250Y10550
X52450Y10550
X52050Y10050
X52650Y9050
X54050Y10050
X56150Y10250
X55250Y8250
X58250Y8350
X59750Y8350
X57550Y12550
X56750Y12550
X59750Y13850
X55450Y14650
X50150Y11850
X49650Y11850
X46650Y14350
X43950Y12650
X41650Y10450
X39150Y13350
X37400Y13650
X37400Y14150
X32150Y17350
X32150Y17950
X34450Y17900
X34450Y17450
X35200Y18950
X31400Y19950
X28950Y18250
X28550Y18250
X21150Y18150
X20550Y18150
X18650Y16450
X18650Y15950
X18650Y15450
X20950Y13450
X25450Y14050
X29550Y13850
X29550Y13350
X32950Y9950
X32950Y9350
X32950Y8550
X34550Y10050
X30750Y6300
X30750Y5800
X30750Y5300
X30750Y4800
X29550Y4800
X29550Y5300
X29550Y5800
X29550Y6300
X4350Y19000
X3750Y21150
X14150Y20750
X16850Y20750
X16850Y21300
X19950Y21350
X19950Y20750
X21150Y25450
X18050Y25450
X14950Y25450
X24250Y25450
T02
X34925Y5039
X34925Y3070
X48019Y3070
X48019Y5039
T03
X23950Y11550
X23550Y13550
X24350Y13550
T04
X26350Y11050
X26350Y10050
X26350Y12050
X26350Y13050
X26350Y14050
X26350Y15050
X36150Y26750
X37150Y26750
X38150Y26750
X39150Y26750
X40150Y26750
X41150Y26750
X42150Y26750
X43150Y26750
X44150Y26750
X45150Y26750
X46850Y26750
X47850Y26750
X48850Y26750
X49850Y26750
X50850Y26750
X51850Y26750
X52850Y26750
X53850Y26750
X54850Y26750
X55850Y26750
T05
X5150Y26950
X6150Y26950
X7150Y26950
X8150Y26950
X9150Y26950
X10150Y26950
X11150Y26950
X12150Y26950
X14450Y26750
X15450Y26750
X17550Y26750
X18550Y26750
X20650Y26750
X21650Y26750
X23750Y26750
X24750Y26750
X26750Y26750
X27750Y26750
X29950Y26750
X30950Y26750
X33250Y26750
X34250Y26750
X12150Y25950
X11150Y25950
X10150Y25950
X9150Y25950
X8150Y25950
X7150Y25950
X6150Y25950
X5150Y25950
X58950Y20450
X58950Y21450
X58950Y6150
X58950Y5150
T06
X13550Y1350
X26700Y5533
X32350Y1275
X45496Y1275
X45649Y7133
X8150Y20450
T07
X58450Y26250
X2050Y26350
X2050Y2050
X58450Y2050
M30
