G75*
%MOIN*%
%OFA0B0*%
%FSLAX24Y24*%
%IPPOS*%
%LPD*%
%AMOC8*
5,1,8,0,0,1.08239X$1,22.5*
%
%ADD10C,0.0100*%
%ADD11R,0.0315X0.0472*%
%ADD12R,0.0472X0.0315*%
%ADD13R,0.0433X0.0394*%
%ADD14R,0.2441X0.0728*%
%ADD15R,0.0433X0.1575*%
%ADD16R,0.0512X0.1181*%
%ADD17R,0.2450X0.2650*%
%ADD18R,0.0900X0.0600*%
%ADD19R,0.0787X0.0433*%
%ADD20R,0.0787X0.1299*%
%ADD21R,0.0630X0.1024*%
%ADD22R,0.1181X0.0315*%
%ADD23C,0.0050*%
%ADD24R,0.4197X0.3299*%
%ADD25R,0.0800X0.1500*%
%ADD26R,0.1280X0.1250*%
%ADD27R,0.0433X0.1969*%
%ADD28R,0.1024X0.0630*%
%ADD29R,0.0209X0.0780*%
%ADD30R,0.0394X0.0551*%
%ADD31R,0.0787X0.0197*%
%ADD32R,0.0866X0.0551*%
%ADD33R,0.0945X0.0551*%
%ADD34C,0.0157*%
%ADD35R,0.2201X0.2500*%
%ADD36R,0.0358X0.0949*%
%ADD37C,0.0000*%
%ADD38R,0.0394X0.0433*%
%ADD39R,0.0354X0.0236*%
%ADD40R,0.0197X0.0787*%
%ADD41R,0.0413X0.0256*%
%ADD42R,0.0315X0.0118*%
%ADD43R,0.0118X0.0315*%
%ADD44R,0.0252X0.0750*%
%ADD45R,0.0531X0.0157*%
%ADD46R,0.0236X0.0354*%
%ADD47R,0.0236X0.0413*%
D10*
X002150Y000150D02*
X058350Y000150D01*
X058437Y000152D01*
X058524Y000158D01*
X058611Y000167D01*
X058697Y000180D01*
X058783Y000197D01*
X058868Y000218D01*
X058951Y000243D01*
X059034Y000271D01*
X059115Y000302D01*
X059195Y000337D01*
X059273Y000376D01*
X059350Y000418D01*
X059425Y000463D01*
X059497Y000512D01*
X059568Y000563D01*
X059636Y000618D01*
X059701Y000675D01*
X059764Y000736D01*
X059825Y000799D01*
X059882Y000864D01*
X059937Y000932D01*
X059988Y001003D01*
X060037Y001075D01*
X060082Y001150D01*
X060124Y001227D01*
X060163Y001305D01*
X060198Y001385D01*
X060229Y001466D01*
X060257Y001549D01*
X060282Y001632D01*
X060303Y001717D01*
X060320Y001803D01*
X060333Y001889D01*
X060342Y001976D01*
X060348Y002063D01*
X060350Y002150D01*
X060350Y026150D01*
X060348Y026237D01*
X060342Y026324D01*
X060333Y026411D01*
X060320Y026497D01*
X060303Y026583D01*
X060282Y026668D01*
X060257Y026751D01*
X060229Y026834D01*
X060198Y026915D01*
X060163Y026995D01*
X060124Y027073D01*
X060082Y027150D01*
X060037Y027225D01*
X059988Y027297D01*
X059937Y027368D01*
X059882Y027436D01*
X059825Y027501D01*
X059764Y027564D01*
X059701Y027625D01*
X059636Y027682D01*
X059568Y027737D01*
X059497Y027788D01*
X059425Y027837D01*
X059350Y027882D01*
X059273Y027924D01*
X059195Y027963D01*
X059115Y027998D01*
X059034Y028029D01*
X058951Y028057D01*
X058868Y028082D01*
X058783Y028103D01*
X058697Y028120D01*
X058611Y028133D01*
X058524Y028142D01*
X058437Y028148D01*
X058350Y028150D01*
X002150Y028150D01*
X002063Y028148D01*
X001976Y028142D01*
X001889Y028133D01*
X001803Y028120D01*
X001717Y028103D01*
X001632Y028082D01*
X001549Y028057D01*
X001466Y028029D01*
X001385Y027998D01*
X001305Y027963D01*
X001227Y027924D01*
X001150Y027882D01*
X001075Y027837D01*
X001003Y027788D01*
X000932Y027737D01*
X000864Y027682D01*
X000799Y027625D01*
X000736Y027564D01*
X000675Y027501D01*
X000618Y027436D01*
X000563Y027368D01*
X000512Y027297D01*
X000463Y027225D01*
X000418Y027150D01*
X000376Y027073D01*
X000337Y026995D01*
X000302Y026915D01*
X000271Y026834D01*
X000243Y026751D01*
X000218Y026668D01*
X000197Y026583D01*
X000180Y026497D01*
X000167Y026411D01*
X000158Y026324D01*
X000152Y026237D01*
X000150Y026150D01*
X000150Y002150D01*
X000152Y002063D01*
X000158Y001976D01*
X000167Y001889D01*
X000180Y001803D01*
X000197Y001717D01*
X000218Y001632D01*
X000243Y001549D01*
X000271Y001466D01*
X000302Y001385D01*
X000337Y001305D01*
X000376Y001227D01*
X000418Y001150D01*
X000463Y001075D01*
X000512Y001003D01*
X000563Y000932D01*
X000618Y000864D01*
X000675Y000799D01*
X000736Y000736D01*
X000799Y000675D01*
X000864Y000618D01*
X000932Y000563D01*
X001003Y000512D01*
X001075Y000463D01*
X001150Y000418D01*
X001227Y000376D01*
X001305Y000337D01*
X001385Y000302D01*
X001466Y000271D01*
X001549Y000243D01*
X001632Y000218D01*
X001717Y000197D01*
X001803Y000180D01*
X001889Y000167D01*
X001976Y000158D01*
X002063Y000152D01*
X002150Y000150D01*
D11*
X011566Y004871D03*
X012274Y004871D03*
X033396Y009350D03*
X034104Y009350D03*
X034104Y010150D03*
X033396Y010150D03*
X021204Y017650D03*
X020496Y017650D03*
X009731Y016446D03*
X009022Y016446D03*
X004339Y016044D03*
X003630Y016044D03*
X014596Y023100D03*
X015304Y023100D03*
X017696Y023100D03*
X018404Y023100D03*
X020796Y023100D03*
X021504Y023100D03*
X023896Y023050D03*
X024604Y023050D03*
X026896Y022750D03*
X027604Y022750D03*
X030096Y022750D03*
X030804Y022750D03*
X033396Y022750D03*
X034104Y022750D03*
X037350Y021830D03*
X038350Y021830D03*
X039350Y021830D03*
X040350Y021830D03*
X041350Y021830D03*
X042350Y021830D03*
X043350Y021830D03*
X044350Y021830D03*
X044350Y020770D03*
X045350Y020770D03*
X047050Y019920D03*
X048050Y019920D03*
X048050Y020630D03*
X049050Y020630D03*
X050050Y020630D03*
X050050Y019920D03*
X049050Y019920D03*
X051050Y019920D03*
X051050Y020630D03*
X052050Y020630D03*
X053050Y020630D03*
X053050Y019920D03*
X052050Y019920D03*
X054050Y019920D03*
X054050Y020630D03*
X055050Y020630D03*
X055050Y023070D03*
X054050Y023070D03*
X053050Y023070D03*
X052050Y023070D03*
X051050Y023070D03*
X050050Y023070D03*
X049050Y023070D03*
X048050Y023070D03*
X044350Y024270D03*
X043350Y024270D03*
X042350Y024270D03*
X041350Y024270D03*
X040350Y024270D03*
X039350Y024270D03*
X038350Y024270D03*
X037350Y024270D03*
X038350Y020770D03*
X039350Y020770D03*
X040350Y020770D03*
X041350Y020770D03*
X042350Y020770D03*
X043350Y020770D03*
X043350Y018330D03*
X042350Y018330D03*
X041350Y018330D03*
X040350Y018330D03*
X039350Y018330D03*
X038350Y018330D03*
X044350Y018330D03*
X045350Y018330D03*
X047050Y017480D03*
X048050Y017480D03*
X049050Y017480D03*
X050050Y017480D03*
X051050Y017480D03*
X052050Y017480D03*
X053050Y017480D03*
X054050Y017480D03*
X054296Y014650D03*
X055004Y014650D03*
X055004Y013950D03*
X054296Y013950D03*
X052354Y013150D03*
X051646Y013150D03*
X050254Y010200D03*
X049546Y010200D03*
D12*
X054250Y011096D03*
X054250Y011804D03*
X053050Y013896D03*
X053050Y014604D03*
X039150Y012904D03*
X039150Y012196D03*
X036900Y013546D03*
X036900Y014254D03*
X033916Y017318D03*
X033916Y018026D03*
X032650Y018004D03*
X032650Y017296D03*
X030050Y013954D03*
X030050Y013246D03*
X021350Y014096D03*
X021350Y014804D03*
X020550Y014804D03*
X020550Y014096D03*
X019450Y020696D03*
X019450Y021404D03*
X016350Y021404D03*
X016350Y020696D03*
X022550Y020696D03*
X022550Y021404D03*
X025650Y021404D03*
X025650Y020696D03*
X016709Y006923D03*
X016709Y006214D03*
D13*
X015985Y006150D03*
X015315Y006150D03*
X033415Y008550D03*
X034085Y008550D03*
X054015Y008350D03*
X054685Y008350D03*
X056115Y009750D03*
X056785Y009750D03*
X056865Y013150D03*
X057535Y013150D03*
X010485Y015650D03*
X009815Y015650D03*
D14*
X054214Y006673D03*
X054214Y004252D03*
D15*
X043169Y005578D03*
X043169Y002523D03*
X030149Y002523D03*
X030149Y005578D03*
X020422Y004629D03*
X020422Y001574D03*
D16*
X038385Y001968D03*
X040236Y001968D03*
X040236Y006063D03*
X038385Y006063D03*
D17*
X052246Y001678D03*
D18*
X055056Y000788D03*
X055056Y002568D03*
D19*
X003627Y017179D03*
X003627Y018085D03*
X003627Y018990D03*
D20*
X005950Y018085D03*
D21*
X008826Y017930D03*
X009928Y017930D03*
X004636Y015028D03*
X003533Y015028D03*
X004799Y023950D03*
X005901Y023950D03*
X058399Y012750D03*
X059501Y012750D03*
X059501Y009350D03*
X058399Y009350D03*
D22*
X006647Y021159D03*
X004600Y021159D03*
D23*
X011020Y015847D02*
X011020Y015453D01*
X011453Y015453D01*
X011453Y015532D01*
X011335Y015532D01*
X011335Y015768D01*
X011453Y015768D01*
X011453Y015847D01*
X011020Y015847D01*
X011020Y015816D02*
X011453Y015816D01*
X011335Y015767D02*
X011020Y015767D01*
X011020Y015719D02*
X011335Y015719D01*
X011335Y015670D02*
X011020Y015670D01*
X011020Y015622D02*
X011335Y015622D01*
X011335Y015573D02*
X011020Y015573D01*
X011020Y015525D02*
X011453Y015525D01*
X011453Y015476D02*
X011020Y015476D01*
X011847Y015476D02*
X012280Y015476D01*
X012280Y015453D02*
X012280Y015847D01*
X011847Y015847D01*
X011847Y015768D01*
X011965Y015768D01*
X011965Y015532D01*
X011847Y015532D01*
X011847Y015453D01*
X012280Y015453D01*
X012280Y015525D02*
X011847Y015525D01*
X011965Y015573D02*
X012280Y015573D01*
X012280Y015622D02*
X011965Y015622D01*
X011965Y015670D02*
X012280Y015670D01*
X012280Y015719D02*
X011965Y015719D01*
X011965Y015767D02*
X012280Y015767D01*
X012280Y015816D02*
X011847Y015816D01*
D24*
X006878Y009098D03*
D25*
X005894Y012983D03*
X007863Y012998D03*
D26*
X008063Y005684D03*
X008063Y001224D03*
D27*
X016591Y001559D03*
X016591Y004748D03*
D28*
X011650Y002301D03*
X011650Y001199D03*
X010154Y008400D03*
X010154Y009502D03*
X015732Y009502D03*
X017110Y009502D03*
X017110Y008400D03*
X015732Y008400D03*
D29*
X015700Y020080D03*
X015200Y020080D03*
X014700Y020080D03*
X014200Y020080D03*
X017300Y020080D03*
X017800Y020080D03*
X018300Y020080D03*
X018800Y020080D03*
X020400Y020080D03*
X020900Y020080D03*
X021400Y020080D03*
X021900Y020080D03*
X023500Y020080D03*
X024000Y020080D03*
X024500Y020080D03*
X025000Y020080D03*
X025000Y022020D03*
X024500Y022020D03*
X024000Y022020D03*
X023500Y022020D03*
X021900Y022020D03*
X021400Y022020D03*
X020900Y022020D03*
X020400Y022020D03*
X018800Y022020D03*
X018300Y022020D03*
X017800Y022020D03*
X017300Y022020D03*
X015700Y022020D03*
X015200Y022020D03*
X014700Y022020D03*
X014200Y022020D03*
D30*
X014576Y024017D03*
X015324Y024017D03*
X014950Y024883D03*
X017676Y024017D03*
X018424Y024017D03*
X018050Y024883D03*
X020776Y024017D03*
X021524Y024017D03*
X021150Y024883D03*
X023876Y024017D03*
X024624Y024017D03*
X024250Y024883D03*
D31*
X022104Y016900D03*
X022104Y016400D03*
X022104Y015900D03*
X022104Y015400D03*
X019596Y015400D03*
X019596Y015900D03*
X019596Y016400D03*
X019596Y016900D03*
D32*
X032060Y018970D03*
X032060Y019970D03*
X034540Y019970D03*
D33*
X034501Y018970D03*
D34*
X034395Y015698D02*
X034395Y015698D01*
X034395Y016290D01*
X034395Y016290D01*
X034395Y015698D01*
X034395Y015854D02*
X034395Y015854D01*
X034395Y016010D02*
X034395Y016010D01*
X034395Y016166D02*
X034395Y016166D01*
X034710Y015698D02*
X034710Y015698D01*
X034710Y016290D01*
X034710Y016290D01*
X034710Y015698D01*
X034710Y015854D02*
X034710Y015854D01*
X034710Y016010D02*
X034710Y016010D01*
X034710Y016166D02*
X034710Y016166D01*
X035025Y015698D02*
X035025Y015698D01*
X035025Y016290D01*
X035025Y016290D01*
X035025Y015698D01*
X035025Y015854D02*
X035025Y015854D01*
X035025Y016010D02*
X035025Y016010D01*
X035025Y016166D02*
X035025Y016166D01*
X034080Y015698D02*
X034080Y015698D01*
X034080Y016290D01*
X034080Y016290D01*
X034080Y015698D01*
X034080Y015854D02*
X034080Y015854D01*
X034080Y016010D02*
X034080Y016010D01*
X034080Y016166D02*
X034080Y016166D01*
X033765Y015698D02*
X033765Y015698D01*
X033765Y016290D01*
X033765Y016290D01*
X033765Y015698D01*
X033765Y015854D02*
X033765Y015854D01*
X033765Y016010D02*
X033765Y016010D01*
X033765Y016166D02*
X033765Y016166D01*
X033450Y015698D02*
X033450Y015698D01*
X033450Y016290D01*
X033450Y016290D01*
X033450Y015698D01*
X033450Y015854D02*
X033450Y015854D01*
X033450Y016010D02*
X033450Y016010D01*
X033450Y016166D02*
X033450Y016166D01*
X033135Y015698D02*
X033135Y015698D01*
X033135Y016290D01*
X033135Y016290D01*
X033135Y015698D01*
X033135Y015854D02*
X033135Y015854D01*
X033135Y016010D02*
X033135Y016010D01*
X033135Y016166D02*
X033135Y016166D01*
X032820Y015698D02*
X032820Y015698D01*
X032820Y016290D01*
X032820Y016290D01*
X032820Y015698D01*
X032820Y015854D02*
X032820Y015854D01*
X032820Y016010D02*
X032820Y016010D01*
X032820Y016166D02*
X032820Y016166D01*
X032505Y015698D02*
X032505Y015698D01*
X032505Y016290D01*
X032505Y016290D01*
X032505Y015698D01*
X032505Y015854D02*
X032505Y015854D01*
X032505Y016010D02*
X032505Y016010D01*
X032505Y016166D02*
X032505Y016166D01*
X032190Y015698D02*
X032190Y015698D01*
X032190Y016290D01*
X032190Y016290D01*
X032190Y015698D01*
X032190Y015854D02*
X032190Y015854D01*
X032190Y016010D02*
X032190Y016010D01*
X032190Y016166D02*
X032190Y016166D01*
X031875Y015698D02*
X031875Y015698D01*
X031875Y016290D01*
X031875Y016290D01*
X031875Y015698D01*
X031875Y015854D02*
X031875Y015854D01*
X031875Y016010D02*
X031875Y016010D01*
X031875Y016166D02*
X031875Y016166D01*
X030910Y015325D02*
X030910Y015325D01*
X031502Y015325D01*
X031502Y015325D01*
X030910Y015325D01*
X030910Y015010D02*
X030910Y015010D01*
X031502Y015010D01*
X031502Y015010D01*
X030910Y015010D01*
X030910Y014695D02*
X030910Y014695D01*
X031502Y014695D01*
X031502Y014695D01*
X030910Y014695D01*
X030910Y014380D02*
X030910Y014380D01*
X031502Y014380D01*
X031502Y014380D01*
X030910Y014380D01*
X030910Y014065D02*
X030910Y014065D01*
X031502Y014065D01*
X031502Y014065D01*
X030910Y014065D01*
X030910Y013750D02*
X030910Y013750D01*
X031502Y013750D01*
X031502Y013750D01*
X030910Y013750D01*
X030910Y013435D02*
X030910Y013435D01*
X031502Y013435D01*
X031502Y013435D01*
X030910Y013435D01*
X030910Y013120D02*
X030910Y013120D01*
X031502Y013120D01*
X031502Y013120D01*
X030910Y013120D01*
X030910Y012805D02*
X030910Y012805D01*
X031502Y012805D01*
X031502Y012805D01*
X030910Y012805D01*
X030910Y012490D02*
X030910Y012490D01*
X031502Y012490D01*
X031502Y012490D01*
X030910Y012490D01*
X030910Y012175D02*
X030910Y012175D01*
X031502Y012175D01*
X031502Y012175D01*
X030910Y012175D01*
X031875Y011210D02*
X031875Y011210D01*
X031875Y011802D01*
X031875Y011802D01*
X031875Y011210D01*
X031875Y011366D02*
X031875Y011366D01*
X031875Y011522D02*
X031875Y011522D01*
X031875Y011678D02*
X031875Y011678D01*
X032190Y011210D02*
X032190Y011210D01*
X032190Y011802D01*
X032190Y011802D01*
X032190Y011210D01*
X032190Y011366D02*
X032190Y011366D01*
X032190Y011522D02*
X032190Y011522D01*
X032190Y011678D02*
X032190Y011678D01*
X032505Y011210D02*
X032505Y011210D01*
X032505Y011802D01*
X032505Y011802D01*
X032505Y011210D01*
X032505Y011366D02*
X032505Y011366D01*
X032505Y011522D02*
X032505Y011522D01*
X032505Y011678D02*
X032505Y011678D01*
X032820Y011210D02*
X032820Y011210D01*
X032820Y011802D01*
X032820Y011802D01*
X032820Y011210D01*
X032820Y011366D02*
X032820Y011366D01*
X032820Y011522D02*
X032820Y011522D01*
X032820Y011678D02*
X032820Y011678D01*
X033135Y011210D02*
X033135Y011210D01*
X033135Y011802D01*
X033135Y011802D01*
X033135Y011210D01*
X033135Y011366D02*
X033135Y011366D01*
X033135Y011522D02*
X033135Y011522D01*
X033135Y011678D02*
X033135Y011678D01*
X033450Y011210D02*
X033450Y011210D01*
X033450Y011802D01*
X033450Y011802D01*
X033450Y011210D01*
X033450Y011366D02*
X033450Y011366D01*
X033450Y011522D02*
X033450Y011522D01*
X033450Y011678D02*
X033450Y011678D01*
X033765Y011210D02*
X033765Y011210D01*
X033765Y011802D01*
X033765Y011802D01*
X033765Y011210D01*
X033765Y011366D02*
X033765Y011366D01*
X033765Y011522D02*
X033765Y011522D01*
X033765Y011678D02*
X033765Y011678D01*
X034080Y011210D02*
X034080Y011210D01*
X034080Y011802D01*
X034080Y011802D01*
X034080Y011210D01*
X034080Y011366D02*
X034080Y011366D01*
X034080Y011522D02*
X034080Y011522D01*
X034080Y011678D02*
X034080Y011678D01*
X034395Y011210D02*
X034395Y011210D01*
X034395Y011802D01*
X034395Y011802D01*
X034395Y011210D01*
X034395Y011366D02*
X034395Y011366D01*
X034395Y011522D02*
X034395Y011522D01*
X034395Y011678D02*
X034395Y011678D01*
X034710Y011210D02*
X034710Y011210D01*
X034710Y011802D01*
X034710Y011802D01*
X034710Y011210D01*
X034710Y011366D02*
X034710Y011366D01*
X034710Y011522D02*
X034710Y011522D01*
X034710Y011678D02*
X034710Y011678D01*
X035025Y011210D02*
X035025Y011210D01*
X035025Y011802D01*
X035025Y011802D01*
X035025Y011210D01*
X035025Y011366D02*
X035025Y011366D01*
X035025Y011522D02*
X035025Y011522D01*
X035025Y011678D02*
X035025Y011678D01*
X035398Y012175D02*
X035398Y012175D01*
X035990Y012175D01*
X035990Y012175D01*
X035398Y012175D01*
X035398Y012490D02*
X035398Y012490D01*
X035990Y012490D01*
X035990Y012490D01*
X035398Y012490D01*
X035398Y012805D02*
X035398Y012805D01*
X035990Y012805D01*
X035990Y012805D01*
X035398Y012805D01*
X035398Y013120D02*
X035398Y013120D01*
X035990Y013120D01*
X035990Y013120D01*
X035398Y013120D01*
X035398Y013435D02*
X035398Y013435D01*
X035990Y013435D01*
X035990Y013435D01*
X035398Y013435D01*
X035398Y013750D02*
X035398Y013750D01*
X035990Y013750D01*
X035990Y013750D01*
X035398Y013750D01*
X035398Y014065D02*
X035398Y014065D01*
X035990Y014065D01*
X035990Y014065D01*
X035398Y014065D01*
X035398Y014380D02*
X035398Y014380D01*
X035990Y014380D01*
X035990Y014380D01*
X035398Y014380D01*
X035398Y014695D02*
X035398Y014695D01*
X035990Y014695D01*
X035990Y014695D01*
X035398Y014695D01*
X035398Y015010D02*
X035398Y015010D01*
X035990Y015010D01*
X035990Y015010D01*
X035398Y015010D01*
X035398Y015325D02*
X035398Y015325D01*
X035990Y015325D01*
X035990Y015325D01*
X035398Y015325D01*
D35*
X012918Y009606D03*
D36*
X012918Y005974D03*
X013418Y005974D03*
X013918Y005974D03*
X014418Y005974D03*
X012418Y005974D03*
X011918Y005974D03*
X011418Y005974D03*
D37*
X001300Y002050D02*
X001302Y002104D01*
X001308Y002158D01*
X001318Y002211D01*
X001331Y002264D01*
X001348Y002315D01*
X001369Y002365D01*
X001394Y002413D01*
X001422Y002460D01*
X001453Y002504D01*
X001487Y002546D01*
X001524Y002585D01*
X001564Y002622D01*
X001607Y002655D01*
X001652Y002686D01*
X001699Y002713D01*
X001747Y002736D01*
X001798Y002756D01*
X001849Y002773D01*
X001902Y002785D01*
X001955Y002794D01*
X002009Y002799D01*
X002064Y002800D01*
X002118Y002797D01*
X002171Y002790D01*
X002224Y002779D01*
X002277Y002765D01*
X002328Y002747D01*
X002377Y002725D01*
X002425Y002700D01*
X002471Y002671D01*
X002515Y002639D01*
X002556Y002604D01*
X002594Y002566D01*
X002630Y002525D01*
X002663Y002482D01*
X002693Y002437D01*
X002719Y002389D01*
X002742Y002340D01*
X002761Y002289D01*
X002776Y002238D01*
X002788Y002185D01*
X002796Y002131D01*
X002800Y002077D01*
X002800Y002023D01*
X002796Y001969D01*
X002788Y001915D01*
X002776Y001862D01*
X002761Y001811D01*
X002742Y001760D01*
X002719Y001711D01*
X002693Y001663D01*
X002663Y001618D01*
X002630Y001575D01*
X002594Y001534D01*
X002556Y001496D01*
X002515Y001461D01*
X002471Y001429D01*
X002425Y001400D01*
X002377Y001375D01*
X002328Y001353D01*
X002277Y001335D01*
X002224Y001321D01*
X002171Y001310D01*
X002118Y001303D01*
X002064Y001300D01*
X002009Y001301D01*
X001955Y001306D01*
X001902Y001315D01*
X001849Y001327D01*
X001798Y001344D01*
X001747Y001364D01*
X001699Y001387D01*
X001652Y001414D01*
X001607Y001445D01*
X001564Y001478D01*
X001524Y001515D01*
X001487Y001554D01*
X001453Y001596D01*
X001422Y001640D01*
X001394Y001687D01*
X001369Y001735D01*
X001348Y001785D01*
X001331Y001836D01*
X001318Y001889D01*
X001308Y001942D01*
X001302Y001996D01*
X001300Y002050D01*
X023755Y011550D02*
X023757Y011578D01*
X023763Y011605D01*
X023773Y011631D01*
X023786Y011655D01*
X023803Y011678D01*
X023822Y011697D01*
X023845Y011714D01*
X023869Y011727D01*
X023895Y011737D01*
X023922Y011743D01*
X023950Y011745D01*
X023978Y011743D01*
X024005Y011737D01*
X024031Y011727D01*
X024055Y011714D01*
X024078Y011697D01*
X024097Y011678D01*
X024114Y011655D01*
X024127Y011631D01*
X024137Y011605D01*
X024143Y011578D01*
X024145Y011550D01*
X024143Y011522D01*
X024137Y011495D01*
X024127Y011469D01*
X024114Y011445D01*
X024097Y011422D01*
X024078Y011403D01*
X024055Y011386D01*
X024031Y011373D01*
X024005Y011363D01*
X023978Y011357D01*
X023950Y011355D01*
X023922Y011357D01*
X023895Y011363D01*
X023869Y011373D01*
X023845Y011386D01*
X023822Y011403D01*
X023803Y011422D01*
X023786Y011445D01*
X023773Y011469D01*
X023763Y011495D01*
X023757Y011522D01*
X023755Y011550D01*
X023355Y013550D02*
X023357Y013578D01*
X023363Y013605D01*
X023373Y013631D01*
X023386Y013655D01*
X023403Y013678D01*
X023422Y013697D01*
X023445Y013714D01*
X023469Y013727D01*
X023495Y013737D01*
X023522Y013743D01*
X023550Y013745D01*
X023578Y013743D01*
X023605Y013737D01*
X023631Y013727D01*
X023655Y013714D01*
X023678Y013697D01*
X023697Y013678D01*
X023714Y013655D01*
X023727Y013631D01*
X023737Y013605D01*
X023743Y013578D01*
X023745Y013550D01*
X023743Y013522D01*
X023737Y013495D01*
X023727Y013469D01*
X023714Y013445D01*
X023697Y013422D01*
X023678Y013403D01*
X023655Y013386D01*
X023631Y013373D01*
X023605Y013363D01*
X023578Y013357D01*
X023550Y013355D01*
X023522Y013357D01*
X023495Y013363D01*
X023469Y013373D01*
X023445Y013386D01*
X023422Y013403D01*
X023403Y013422D01*
X023386Y013445D01*
X023373Y013469D01*
X023363Y013495D01*
X023357Y013522D01*
X023355Y013550D01*
X024155Y013550D02*
X024157Y013578D01*
X024163Y013605D01*
X024173Y013631D01*
X024186Y013655D01*
X024203Y013678D01*
X024222Y013697D01*
X024245Y013714D01*
X024269Y013727D01*
X024295Y013737D01*
X024322Y013743D01*
X024350Y013745D01*
X024378Y013743D01*
X024405Y013737D01*
X024431Y013727D01*
X024455Y013714D01*
X024478Y013697D01*
X024497Y013678D01*
X024514Y013655D01*
X024527Y013631D01*
X024537Y013605D01*
X024543Y013578D01*
X024545Y013550D01*
X024543Y013522D01*
X024537Y013495D01*
X024527Y013469D01*
X024514Y013445D01*
X024497Y013422D01*
X024478Y013403D01*
X024455Y013386D01*
X024431Y013373D01*
X024405Y013363D01*
X024378Y013357D01*
X024350Y013355D01*
X024322Y013357D01*
X024295Y013363D01*
X024269Y013373D01*
X024245Y013386D01*
X024222Y013403D01*
X024203Y013422D01*
X024186Y013445D01*
X024173Y013469D01*
X024163Y013495D01*
X024157Y013522D01*
X024155Y013550D01*
X001300Y026350D02*
X001302Y026404D01*
X001308Y026458D01*
X001318Y026511D01*
X001331Y026564D01*
X001348Y026615D01*
X001369Y026665D01*
X001394Y026713D01*
X001422Y026760D01*
X001453Y026804D01*
X001487Y026846D01*
X001524Y026885D01*
X001564Y026922D01*
X001607Y026955D01*
X001652Y026986D01*
X001699Y027013D01*
X001747Y027036D01*
X001798Y027056D01*
X001849Y027073D01*
X001902Y027085D01*
X001955Y027094D01*
X002009Y027099D01*
X002064Y027100D01*
X002118Y027097D01*
X002171Y027090D01*
X002224Y027079D01*
X002277Y027065D01*
X002328Y027047D01*
X002377Y027025D01*
X002425Y027000D01*
X002471Y026971D01*
X002515Y026939D01*
X002556Y026904D01*
X002594Y026866D01*
X002630Y026825D01*
X002663Y026782D01*
X002693Y026737D01*
X002719Y026689D01*
X002742Y026640D01*
X002761Y026589D01*
X002776Y026538D01*
X002788Y026485D01*
X002796Y026431D01*
X002800Y026377D01*
X002800Y026323D01*
X002796Y026269D01*
X002788Y026215D01*
X002776Y026162D01*
X002761Y026111D01*
X002742Y026060D01*
X002719Y026011D01*
X002693Y025963D01*
X002663Y025918D01*
X002630Y025875D01*
X002594Y025834D01*
X002556Y025796D01*
X002515Y025761D01*
X002471Y025729D01*
X002425Y025700D01*
X002377Y025675D01*
X002328Y025653D01*
X002277Y025635D01*
X002224Y025621D01*
X002171Y025610D01*
X002118Y025603D01*
X002064Y025600D01*
X002009Y025601D01*
X001955Y025606D01*
X001902Y025615D01*
X001849Y025627D01*
X001798Y025644D01*
X001747Y025664D01*
X001699Y025687D01*
X001652Y025714D01*
X001607Y025745D01*
X001564Y025778D01*
X001524Y025815D01*
X001487Y025854D01*
X001453Y025896D01*
X001422Y025940D01*
X001394Y025987D01*
X001369Y026035D01*
X001348Y026085D01*
X001331Y026136D01*
X001318Y026189D01*
X001308Y026242D01*
X001302Y026296D01*
X001300Y026350D01*
X057700Y026250D02*
X057702Y026304D01*
X057708Y026358D01*
X057718Y026411D01*
X057731Y026464D01*
X057748Y026515D01*
X057769Y026565D01*
X057794Y026613D01*
X057822Y026660D01*
X057853Y026704D01*
X057887Y026746D01*
X057924Y026785D01*
X057964Y026822D01*
X058007Y026855D01*
X058052Y026886D01*
X058099Y026913D01*
X058147Y026936D01*
X058198Y026956D01*
X058249Y026973D01*
X058302Y026985D01*
X058355Y026994D01*
X058409Y026999D01*
X058464Y027000D01*
X058518Y026997D01*
X058571Y026990D01*
X058624Y026979D01*
X058677Y026965D01*
X058728Y026947D01*
X058777Y026925D01*
X058825Y026900D01*
X058871Y026871D01*
X058915Y026839D01*
X058956Y026804D01*
X058994Y026766D01*
X059030Y026725D01*
X059063Y026682D01*
X059093Y026637D01*
X059119Y026589D01*
X059142Y026540D01*
X059161Y026489D01*
X059176Y026438D01*
X059188Y026385D01*
X059196Y026331D01*
X059200Y026277D01*
X059200Y026223D01*
X059196Y026169D01*
X059188Y026115D01*
X059176Y026062D01*
X059161Y026011D01*
X059142Y025960D01*
X059119Y025911D01*
X059093Y025863D01*
X059063Y025818D01*
X059030Y025775D01*
X058994Y025734D01*
X058956Y025696D01*
X058915Y025661D01*
X058871Y025629D01*
X058825Y025600D01*
X058777Y025575D01*
X058728Y025553D01*
X058677Y025535D01*
X058624Y025521D01*
X058571Y025510D01*
X058518Y025503D01*
X058464Y025500D01*
X058409Y025501D01*
X058355Y025506D01*
X058302Y025515D01*
X058249Y025527D01*
X058198Y025544D01*
X058147Y025564D01*
X058099Y025587D01*
X058052Y025614D01*
X058007Y025645D01*
X057964Y025678D01*
X057924Y025715D01*
X057887Y025754D01*
X057853Y025796D01*
X057822Y025840D01*
X057794Y025887D01*
X057769Y025935D01*
X057748Y025985D01*
X057731Y026036D01*
X057718Y026089D01*
X057708Y026142D01*
X057702Y026196D01*
X057700Y026250D01*
X057700Y002050D02*
X057702Y002104D01*
X057708Y002158D01*
X057718Y002211D01*
X057731Y002264D01*
X057748Y002315D01*
X057769Y002365D01*
X057794Y002413D01*
X057822Y002460D01*
X057853Y002504D01*
X057887Y002546D01*
X057924Y002585D01*
X057964Y002622D01*
X058007Y002655D01*
X058052Y002686D01*
X058099Y002713D01*
X058147Y002736D01*
X058198Y002756D01*
X058249Y002773D01*
X058302Y002785D01*
X058355Y002794D01*
X058409Y002799D01*
X058464Y002800D01*
X058518Y002797D01*
X058571Y002790D01*
X058624Y002779D01*
X058677Y002765D01*
X058728Y002747D01*
X058777Y002725D01*
X058825Y002700D01*
X058871Y002671D01*
X058915Y002639D01*
X058956Y002604D01*
X058994Y002566D01*
X059030Y002525D01*
X059063Y002482D01*
X059093Y002437D01*
X059119Y002389D01*
X059142Y002340D01*
X059161Y002289D01*
X059176Y002238D01*
X059188Y002185D01*
X059196Y002131D01*
X059200Y002077D01*
X059200Y002023D01*
X059196Y001969D01*
X059188Y001915D01*
X059176Y001862D01*
X059161Y001811D01*
X059142Y001760D01*
X059119Y001711D01*
X059093Y001663D01*
X059063Y001618D01*
X059030Y001575D01*
X058994Y001534D01*
X058956Y001496D01*
X058915Y001461D01*
X058871Y001429D01*
X058825Y001400D01*
X058777Y001375D01*
X058728Y001353D01*
X058677Y001335D01*
X058624Y001321D01*
X058571Y001310D01*
X058518Y001303D01*
X058464Y001300D01*
X058409Y001301D01*
X058355Y001306D01*
X058302Y001315D01*
X058249Y001327D01*
X058198Y001344D01*
X058147Y001364D01*
X058099Y001387D01*
X058052Y001414D01*
X058007Y001445D01*
X057964Y001478D01*
X057924Y001515D01*
X057887Y001554D01*
X057853Y001596D01*
X057822Y001640D01*
X057794Y001687D01*
X057769Y001735D01*
X057748Y001785D01*
X057731Y001836D01*
X057718Y001889D01*
X057708Y001942D01*
X057702Y001996D01*
X057700Y002050D01*
D38*
X053250Y011115D03*
X053250Y011785D03*
X052450Y011785D03*
X052450Y011115D03*
X012550Y023615D03*
X011850Y023615D03*
X011150Y023615D03*
X010450Y023615D03*
X010450Y024285D03*
X011150Y024285D03*
X011850Y024285D03*
X012550Y024285D03*
X008950Y024285D03*
X008250Y024285D03*
X007550Y024285D03*
X006850Y024285D03*
X006850Y023615D03*
X007550Y023615D03*
X008250Y023615D03*
X008950Y023615D03*
D39*
X040300Y015295D03*
X040300Y014705D03*
X041300Y014705D03*
X042300Y014705D03*
X042300Y015295D03*
X041300Y015295D03*
X040800Y015905D03*
X040800Y016495D03*
X041800Y016495D03*
X042800Y016495D03*
X042800Y015905D03*
X041800Y015905D03*
X043300Y015295D03*
X043300Y014705D03*
X047622Y015999D03*
X047622Y016589D03*
X049000Y016589D03*
X049000Y015999D03*
X049650Y016005D03*
X049650Y016595D03*
X050950Y016595D03*
X051600Y016595D03*
X051600Y016005D03*
X050950Y016005D03*
X052950Y016005D03*
X053650Y016005D03*
X053650Y016595D03*
X052950Y016595D03*
X054650Y016595D03*
X054650Y016005D03*
X042800Y010395D03*
X042800Y009805D03*
X048050Y023955D03*
X048050Y024545D03*
X049050Y024545D03*
X050050Y024545D03*
X050050Y023955D03*
X049050Y023955D03*
X051050Y023955D03*
X051050Y024545D03*
X052050Y024545D03*
X053050Y024545D03*
X053050Y023955D03*
X052050Y023955D03*
X054050Y023955D03*
X055050Y023955D03*
X055050Y024545D03*
X054050Y024545D03*
D40*
X043300Y013770D03*
X042800Y013770D03*
X042300Y013770D03*
X041800Y013770D03*
X041300Y013770D03*
X040800Y013770D03*
X040300Y013770D03*
X039800Y013770D03*
X039800Y011330D03*
X040300Y011330D03*
X040800Y011330D03*
X041300Y011330D03*
X041800Y011330D03*
X042300Y011330D03*
X042800Y011330D03*
X043300Y011330D03*
X046650Y011130D03*
X047150Y011130D03*
X047650Y011130D03*
X048150Y011130D03*
X048650Y011130D03*
X049150Y011130D03*
X049650Y011130D03*
X050150Y011130D03*
X050150Y013570D03*
X049650Y013570D03*
X049150Y013570D03*
X048650Y013570D03*
X048150Y013570D03*
X047650Y013570D03*
X047150Y013570D03*
X046650Y013570D03*
D41*
X034567Y023427D03*
X034567Y024273D03*
X032933Y024273D03*
X032933Y023427D03*
X031267Y023427D03*
X031267Y024273D03*
X029633Y024273D03*
X028067Y024273D03*
X028067Y023427D03*
X029633Y023427D03*
X026433Y023427D03*
X026433Y024273D03*
D42*
X053148Y013344D03*
X053148Y013147D03*
X053148Y012950D03*
X053148Y012753D03*
X053148Y012556D03*
X054152Y012556D03*
X054152Y012753D03*
X054152Y012950D03*
X054152Y013147D03*
X054152Y013344D03*
D43*
X053847Y013452D03*
X053650Y013452D03*
X053453Y013452D03*
X053453Y012448D03*
X053650Y012448D03*
X053847Y012448D03*
D44*
X056700Y014435D03*
X057200Y014435D03*
X057700Y014435D03*
X058200Y014435D03*
X058200Y018665D03*
X057700Y018665D03*
X057200Y018665D03*
X056700Y018665D03*
D45*
X055196Y009834D03*
X055196Y009578D03*
X055196Y009322D03*
X055196Y009066D03*
X053504Y009066D03*
X053504Y009322D03*
X053504Y009578D03*
X053504Y009834D03*
D46*
X056155Y009050D03*
X056745Y009050D03*
X056755Y020450D03*
X057345Y020450D03*
X057345Y021050D03*
X056755Y021050D03*
D47*
X058576Y011681D03*
X059324Y011681D03*
X059324Y010619D03*
X058950Y010619D03*
X058576Y010619D03*
M02*
